<svg width="100" height="78" viewBox="0 0 100 78" fill="none" xmlns="http://www.w3.org/2000/svg">
<path d="M18.1977 77.4246V72.2746C18.1977 70.3 16.9957 69.0128 14.9355 69.0128C13.9056 69.0128 12.7896 69.3561 12.017 70.472C11.4164 69.5277 10.5581 69.0128 9.2705 69.0128C8.41184 69.0128 7.55396 69.2701 6.86695 70.2143V69.1844H5.06439V77.4246H6.86695V72.8752C6.86695 71.4163 7.63959 70.7293 8.84156 70.7293C10.0427 70.7293 10.6441 71.502 10.6441 72.8752V77.4246H12.4467V72.8752C12.4467 71.4163 13.3046 70.7293 14.4205 70.7293C15.6225 70.7293 16.2231 71.502 16.2231 72.8752V77.4246H18.1977ZM44.8924 69.1844H41.9743V66.6952H40.1717V69.1844H38.5408V70.8149H40.1714V74.5921C40.1714 76.4807 40.944 77.5963 43.0042 77.5963C43.7769 77.5963 44.6347 77.339 45.2361 76.9957L44.7208 75.4504C44.2058 75.7937 43.6052 75.8797 43.1759 75.8797C42.3176 75.8797 41.9743 75.3647 41.9743 74.5061V70.8149H44.8924V69.1844ZM60.1716 69.0124C59.1417 69.0124 58.455 69.5277 58.0257 70.2143V69.1844H56.2232V77.4246H58.0257V72.7895C58.0257 71.4163 58.6263 70.6437 59.7423 70.6437C60.0856 70.6437 60.5149 70.7297 60.8582 70.8153L61.3732 69.0988C61.0299 69.0128 60.5149 69.0128 60.1716 69.0128V69.0124ZM37.0816 69.871C36.2229 69.2701 35.0213 69.0128 33.7337 69.0128C31.6739 69.0128 30.3007 70.0427 30.3007 71.6736C30.3007 73.0472 31.3306 73.8195 33.1331 74.0771L33.9914 74.1632C34.9357 74.3344 35.4507 74.5921 35.4507 75.0214C35.4507 75.622 34.7641 76.0514 33.5621 76.0514C32.3605 76.0514 31.4162 75.622 30.8152 75.1931L29.957 76.5663C30.9013 77.2529 32.1889 77.5963 33.4761 77.5963C35.8796 77.5963 37.2532 76.4807 37.2532 74.9354C37.2532 73.4762 36.1373 72.7035 34.4204 72.4462L33.5621 72.3602C32.7894 72.2742 32.1889 72.1029 32.1889 71.588C32.1889 70.987 32.7894 70.6437 33.7337 70.6437C34.7641 70.6437 35.794 71.0726 36.3089 71.3303L37.0816 69.871ZM84.9785 69.0128C83.9482 69.0128 83.2616 69.5277 82.8323 70.2143V69.1844H81.0297V77.4246H82.8323V72.7895C82.8323 71.4163 83.4332 70.6437 84.5488 70.6437C84.8925 70.6437 85.3218 70.7297 85.6651 70.8153L86.1801 69.0988C85.8368 69.0128 85.3218 69.0128 84.9785 69.0128ZM61.9741 73.3045C61.9741 75.7937 63.6907 77.5963 66.3519 77.5963C67.5535 77.5963 68.4118 77.339 69.27 76.6523L68.4118 75.1931C67.7251 75.7081 67.0385 75.9653 66.2659 75.9653C64.8066 75.9653 63.7767 74.9354 63.7767 73.3045C63.7767 71.7596 64.8066 70.7293 66.2659 70.6437C67.0385 70.6437 67.7251 70.901 68.4118 71.4163L69.27 69.9571C68.4118 69.2701 67.5535 69.0128 66.3519 69.0128C63.6907 69.0128 61.9741 70.8153 61.9741 73.3045ZM78.6265 73.3045V69.1844H76.824V70.2143C76.223 69.4421 75.3647 69.0128 74.2488 69.0128C71.9313 69.0128 70.1287 70.8153 70.1287 73.3045C70.1287 75.7937 71.9313 77.5963 74.2488 77.5963C75.4504 77.5963 76.309 77.1673 76.824 76.3947V77.4246H78.6265V73.3045ZM72.0169 73.3045C72.0169 71.8453 72.9612 70.6437 74.5061 70.6437C75.9653 70.6437 76.9956 71.7596 76.9956 73.3045C76.9956 74.7638 75.9653 75.9653 74.5061 75.9653C72.9612 75.8793 72.0169 74.7638 72.0169 73.3045ZM50.4722 69.0128C48.0686 69.0128 46.3517 70.7293 46.3517 73.3045C46.3517 75.8797 48.0682 77.5963 50.5578 77.5963C51.7594 77.5963 52.9613 77.2529 53.9056 76.4807L53.047 75.1931C52.3603 75.7081 51.5021 76.0514 50.6438 76.0514C49.5279 76.0514 48.4119 75.5364 48.1542 74.0768H54.2489V73.3905C54.335 70.7293 52.7897 69.0128 50.4718 69.0128H50.4722ZM50.4722 70.5577C51.5877 70.5577 52.3607 71.2447 52.532 72.5323H48.2403C48.4119 71.4163 49.1846 70.5577 50.4722 70.5577ZM95.1929 73.3045V65.9226H93.3904V70.2143C92.7894 69.4421 91.9311 69.0128 90.8151 69.0128C88.4976 69.0128 86.6951 70.8153 86.6951 73.3045C86.6951 75.7937 88.4976 77.5963 90.8151 77.5963C92.0171 77.5963 92.8754 77.1673 93.3904 76.3947V77.4246H95.1929V73.3045ZM88.5836 73.3045C88.5836 71.8453 89.5275 70.6437 91.0728 70.6437C92.5321 70.6437 93.562 71.7596 93.562 73.3045C93.562 74.7638 92.5321 75.9653 91.0728 75.9653C89.5275 75.8793 88.5836 74.7638 88.5836 73.3045ZM28.3261 73.3045V69.1844H26.5235V70.2143C25.9225 69.4421 25.0642 69.0128 23.9483 69.0128C21.6308 69.0128 19.8282 70.8153 19.8282 73.3045C19.8282 75.7937 21.6308 77.5963 23.9483 77.5963C25.1503 77.5963 26.0085 77.1673 26.5235 76.3947V77.4246H28.3261V73.3045ZM21.6308 73.3045C21.6308 71.8453 22.5751 70.6437 24.1199 70.6437C25.5792 70.6437 26.6095 71.7596 26.6095 73.3045C26.6095 74.7638 25.5792 75.9653 24.1199 75.9653C22.5751 75.8793 21.6308 74.7638 21.6308 73.3045Z" fill="black"/>
<path d="M36.4806 6.60925H63.519V55.1928H36.4806V6.60925Z" fill="#FF5F00"/>
<path d="M38.1975 30.9012C38.1975 21.0302 42.8326 12.2746 49.9568 6.60927C44.7211 2.48918 38.1119 0 30.9016 0C13.8195 0 0 13.8195 0 30.9012C0 47.9826 13.8195 61.8025 30.9012 61.8025C38.1115 61.8025 44.7208 59.3133 49.9568 55.1928C42.8326 49.6135 38.1975 40.7723 38.1975 30.9012Z" fill="#EB001B"/>
<path d="M99.9996 30.9012C99.9996 47.9826 86.1801 61.8025 69.0984 61.8025C61.8881 61.8025 55.2789 59.3133 50.0428 55.1928C57.2531 49.5279 61.8025 40.7723 61.8025 30.9012C61.8025 21.0302 57.1671 12.2746 50.0428 6.60927C55.2785 2.48918 61.8881 0 69.0984 0C86.1801 0 100 13.9055 100 30.9012H99.9996Z" fill="#F79E1B"/>
</svg>
