<svg width="146" height="48" viewBox="0 0 146 48" fill="none" xmlns="http://www.w3.org/2000/svg">
<path d="M75.5077 15.345C75.4244 22.0316 81.3608 25.7628 85.8326 27.9814C90.427 30.2575 91.9703 31.7172 91.9521 33.7529C91.9178 36.8681 88.2872 38.243 84.8899 38.2964C78.9626 38.3899 75.5162 36.6672 72.7764 35.3642L70.6412 45.5364C73.3901 46.826 78.4801 47.9506 83.7584 48C96.1484 48 104.254 41.7733 104.298 32.119C104.347 19.8665 87.6519 19.1883 87.766 13.7117C87.8053 12.0511 89.3617 10.279 92.7722 9.82842C94.4603 9.60081 99.1203 9.42662 104.404 11.9036L106.477 2.06184C103.636 1.00857 99.9843 0 95.4378 0C83.7761 0 75.5738 6.31151 75.5077 15.345ZM126.403 0.847729C124.14 0.847729 122.234 2.19132 121.383 4.25315L103.685 47.2771H116.065L118.529 40.3449H133.658L135.088 47.2771H146L136.477 0.847729H126.403ZM128.135 13.39L131.708 30.8248H121.923L128.135 13.39ZM60.4965 0.848309L50.7373 47.2765H62.5353L72.29 0.847149H60.4965V0.848309ZM43.0432 0.847149L30.7632 32.4494L25.7958 5.57933C25.2129 2.57977 22.9112 0.847729 20.355 0.847729H0.281164L0 2.19596C4.12108 3.1064 8.80334 4.57483 11.6401 6.14603C13.3761 7.10582 13.8711 7.94484 14.4415 10.2256L23.8499 47.2771H36.3175L55.4321 0.847729H43.0432" fill="url(#paint0_linear)"/>
<defs>
<linearGradient id="paint0_linear" x1="67.122" y1="48.9629" x2="68.5365" y2="-0.332394" gradientUnits="userSpaceOnUse">
<stop stop-color="#222357"/>
<stop offset="1" stop-color="#254AA5"/>
</linearGradient>
</defs>
</svg>
