<svg width="100" height="78" viewBox="0 0 100 78" fill="none" xmlns="http://www.w3.org/2000/svg">
<path d="M63.5199 55.2012H36.4805V6.60669H63.5203L63.5199 55.2012Z" fill="#6C6BBD"/>
<path d="M38.1965 30.9047C38.1965 21.0473 42.8117 12.2664 49.9992 6.60782C44.7434 2.46992 38.1094 0 30.9008 0C13.8344 0 0 13.8363 0 30.9047C0 47.9735 13.8344 61.8098 30.9008 61.8098C38.1098 61.8098 44.7434 59.3399 49.9992 55.202C42.8117 49.5434 38.1965 40.7625 38.1965 30.9051" fill="#D32011"/>
<path d="M100 30.9047C100 47.9735 86.1657 61.8098 69.0993 61.8098C61.8903 61.8098 55.2567 59.3399 49.9989 55.202C57.1883 49.5434 61.8036 40.7625 61.8036 30.9051C61.8036 21.0473 57.1883 12.2664 49.9989 6.60782C55.2567 2.46992 61.8907 0 69.0993 0C86.1657 0 100 13.8363 100 30.9047Z" fill="#0099DF"/>
<path d="M72.6691 68.9326C73.0285 68.9326 73.5453 69.0014 73.9402 69.1564L73.3902 70.8385C73.0129 70.683 72.6355 70.6322 72.2742 70.6322C71.107 70.6322 70.5234 71.3865 70.5234 72.7424V77.344H68.7375V69.1389H70.5058V70.135C70.9695 69.4139 71.6394 68.9326 72.6691 68.9326ZM66.0711 70.7697H63.1531V74.4772C63.1531 75.3006 63.4441 75.8506 64.3383 75.8506C64.8019 75.8506 65.3851 75.6955 65.916 75.3869L66.4305 76.9135C65.8648 77.3084 64.9726 77.5502 64.2004 77.5502C62.0883 77.5502 61.3515 76.4166 61.3515 74.5107V70.7697H59.6855V69.1389H61.3515V66.6494H63.1531V69.1389H66.0711V70.7697ZM43.2219 72.5201C43.4125 71.3354 44.132 70.5279 45.4031 70.5279C46.5523 70.5279 47.291 71.249 47.4797 72.5201H43.2219ZM49.3347 73.2412C49.3168 70.683 47.7371 68.9326 45.4363 68.9326C43.0336 68.9326 41.3515 70.683 41.3515 73.2412C41.3515 75.8486 43.1023 77.5482 45.5582 77.5482C46.7941 77.5482 47.9258 77.2397 48.9219 76.399L48.0457 75.0764C47.3601 75.6268 46.4836 75.935 45.6605 75.935C44.5109 75.935 43.4636 75.4025 43.2062 73.9272H49.2992C49.3168 73.7029 49.3344 73.4811 49.3344 73.2412H49.3347ZM57.1785 71.2334C56.6812 70.9229 55.6691 70.5279 54.6219 70.5279C53.6433 70.5279 53.0597 70.8893 53.0597 71.4908C53.0597 72.0389 53.6769 72.194 54.4492 72.2963L55.2902 72.4162C57.0761 72.6756 58.1566 73.4299 58.1566 74.8721C58.1566 76.4346 56.7832 77.5502 54.4156 77.5502C53.0758 77.5502 51.8398 77.2065 50.8609 76.4854L51.7023 75.0943C52.3035 75.558 53.1976 75.9529 54.4332 75.9529C55.6515 75.9529 56.3039 75.5936 56.3039 74.9568C56.3039 74.4947 55.8402 74.2357 54.8617 74.0998L54.0207 73.9803C52.1836 73.7209 51.1875 72.8975 51.1875 71.5596C51.1875 69.9287 52.5273 68.9326 54.6043 68.9326C55.909 68.9326 57.0937 69.2256 57.9504 69.7912L57.1781 71.2334H57.1785ZM79.1941 70.6279C78.8269 70.6279 78.4871 70.6928 78.1707 70.8205C77.8645 70.9446 77.5864 71.1291 77.3531 71.3631C77.1186 71.6024 76.9342 71.8863 76.8109 72.1979C76.6793 72.5221 76.6144 72.8799 76.6144 73.2689C76.6144 73.6596 76.6793 74.0154 76.8109 74.3397C76.9426 74.6639 77.1234 74.9428 77.3531 75.1748C77.5864 75.4087 77.8645 75.5931 78.1707 75.717C78.4871 75.8467 78.8269 75.9096 79.1941 75.9096C79.5613 75.9096 79.9035 75.8471 80.2176 75.717C80.5252 75.5936 80.8046 75.4092 81.0391 75.1748C81.273 74.9428 81.4539 74.6639 81.5875 74.3397C81.7191 74.0154 81.784 73.66 81.784 73.2689C81.784 72.8799 81.7191 72.5221 81.5875 72.1979C81.4539 71.8736 81.273 71.5947 81.0391 71.3631C80.8048 71.1286 80.5255 70.9441 80.218 70.8205C79.8926 70.6904 79.5449 70.625 79.1945 70.6279H79.1941ZM79.1941 68.9326C79.8308 68.9326 80.4203 69.0424 80.9625 69.2647C81.5047 69.4846 81.9742 69.7893 82.3695 70.1764C82.7678 70.5667 83.0838 71.0329 83.2988 71.5475C83.5226 72.0764 83.6348 72.6498 83.6348 73.2689C83.6348 73.8877 83.5226 74.4615 83.2988 74.99C83.0837 75.5053 82.7676 75.9723 82.3691 76.3635C81.9746 76.7502 81.5047 77.0533 80.9629 77.2752C80.4199 77.4951 79.8308 77.6053 79.1941 77.6053C78.5574 77.6053 77.968 77.4951 77.4258 77.2752C76.8836 77.0533 76.4179 76.7506 76.025 76.3635C75.6289 75.9711 75.3143 75.5044 75.0992 74.99C74.8754 74.4615 74.7633 73.8877 74.7633 73.2689C74.7633 72.6498 74.8754 72.0764 75.0992 71.5479C75.3144 71.0341 75.629 70.568 76.025 70.1764C76.4269 69.7827 76.903 69.4728 77.4258 69.2647C77.968 69.0424 78.5574 68.9326 79.1941 68.9326ZM32.7929 73.2412C32.7929 71.799 33.7383 70.6143 35.2824 70.6143C36.7582 70.6143 37.7543 71.7482 37.7543 73.2412C37.7543 74.7346 36.7582 75.8662 35.2824 75.8662C33.7383 75.8662 32.7929 74.6834 32.7929 73.2412ZM39.4363 73.2412V69.1389H37.6519V70.135C37.0843 69.3963 36.2277 68.9326 35.0605 68.9326C32.7597 68.9326 30.9578 70.7342 30.9578 73.2412C30.9578 75.7467 32.7597 77.5502 35.0605 77.5502C36.2277 77.5502 37.084 77.0865 37.6519 76.3479V77.344H39.4363V73.2412ZM29.3777 77.344V72.1939C29.3777 70.2549 28.1418 68.9502 26.1515 68.9322C25.1043 68.9147 24.0215 69.2408 23.2672 70.3924C22.7011 69.4826 21.8074 68.9326 20.5539 68.9326C19.6793 68.9326 18.8207 69.19 18.1507 70.1506V69.1389H16.3668V77.344H18.1683V72.7955C18.1683 71.3709 18.9582 70.6143 20.1761 70.6143C21.3613 70.6143 21.9625 71.3865 21.9625 72.7775V77.344H23.7644V72.7955C23.7644 71.3709 24.5894 70.6143 25.7722 70.6143C26.9925 70.6143 27.5761 71.3865 27.5761 72.7775V77.344H29.3777Z" fill="#110F0D"/>
</svg>
