<svg width="148" height="64" viewBox="0 0 148 64" fill="none" xmlns="http://www.w3.org/2000/svg">
<path d="M59.5345 61.0068C59.2541 60.2354 58.7456 59.7095 58.3775 59.0258C57.4834 57.8512 56.4315 56.8344 55.3797 55.8175C55.0115 55.6948 54.8537 55.3442 54.5031 55.204C54.2752 54.9059 53.907 54.7481 53.609 54.5202C53.013 54.0644 52.3643 53.6787 51.6981 53.2931C50.4359 52.4866 48.8756 51.9782 47.3328 51.4523C45.6674 51.0491 43.9143 50.751 42.091 50.5056C40.2853 50.2426 38.4796 49.9972 37.1122 49.2784C36.3233 49.0505 35.7447 48.6122 35.061 48.2616C34.4299 47.8409 33.7462 47.4902 33.2202 46.9643C32.5716 46.5786 32.1684 45.93 31.66 45.404C31.4847 45.0534 31.1866 44.843 31.0464 44.4573C30.8711 44.3872 30.8185 44.1768 30.7133 44.0541C30.5906 43.9139 30.5906 43.6334 30.3802 43.5808C30.275 44.2996 30.3101 45.1586 30.3802 45.8949C30.4678 46.2105 30.5029 46.5961 30.5906 46.9117C30.6432 47.1922 30.9061 47.648 30.8009 47.8584C25.3312 47.5779 21.3341 45.8423 17.8629 43.5632C16.1449 42.4237 14.6723 41.0388 13.3048 39.5486C12.7088 38.7246 12.0601 37.9357 11.5342 37.0241C10.9907 36.13 10.5349 35.1132 10.044 34.1665C9.23759 32.1154 8.48375 30.0116 8.20325 27.4346C7.83509 25.0328 7.92275 21.9648 8.46621 19.7384C8.65906 18.5112 9.06227 17.4768 9.4129 16.4074C9.6408 15.9166 9.88624 15.4257 10.0966 14.9173C10.3946 14.4965 10.5524 13.918 10.9206 13.5499C11.9199 11.674 13.41 10.2715 14.9352 8.92163C16.5832 7.71198 18.459 6.73023 20.7205 6.13417C22.8944 5.6433 25.8571 5.55564 28.2063 6.06404C32.9748 7.04579 36.5687 9.1846 39.5841 11.9195C42.6345 14.6017 44.9837 18.0028 46.5965 22.1401C48.262 26.0671 48.8405 32.1855 47.3504 36.6384C46.7368 36.2878 46.1232 35.9547 45.5096 35.6216C44.7733 35.4112 44.0545 35.1658 43.1955 35.0782C42.1611 35.0606 41.1443 35.0782 40.4782 35.4112C41.8281 35.271 42.915 35.6391 43.7565 35.9547C44.2474 36.1476 44.5279 36.2703 44.9135 36.4982C45.6674 36.9365 46.3336 37.3397 46.8946 37.9357C48.4899 39.3382 49.6294 41.1965 50.1729 43.6509C50.1729 43.721 50.2606 43.7035 50.243 43.5808C50.3131 43.5632 50.3482 43.5107 50.3833 43.4405C50.4709 43.3353 50.5761 43.2302 50.6638 43.1074C50.8391 42.8971 51.0144 42.6867 51.1371 42.4237C51.5053 41.9854 51.8033 41.4946 52.0838 40.9862C52.7325 40.0395 53.2233 38.9525 53.7843 37.9182C54.7485 35.7093 55.5374 33.325 56.0283 30.6252C57.0101 24.6296 55.8355 18.9495 53.7843 14.7595C51.6806 10.5345 48.7353 7.15098 44.9311 4.60896C41.0917 2.08447 36.6038 0.226161 30.4328 0.050849C30.3977 -0.0718693 30.3451 0.0683802 30.2224 0.050849C26.9616 -0.0543381 24.3319 0.401473 21.7198 1.06766C20.5101 1.47087 19.2479 1.8215 18.1785 2.36497C16.9513 2.76818 15.9696 3.43437 14.8476 3.92524C14.4443 4.31093 13.8308 4.50377 13.41 4.87192C12.8665 5.13489 12.4633 5.55564 11.9199 5.81861C11.0433 6.58998 10.1141 7.2737 9.25512 8.0626C8.41362 8.83397 7.67731 9.71053 6.87088 10.517C6.74816 10.7975 6.53778 10.9903 6.32741 11.2007C6.18716 11.4636 6.01185 11.6916 5.78394 11.8844C5.69629 12.2 5.41579 12.3227 5.3106 12.6382C5.0827 12.8136 5.0301 13.1642 4.76714 13.322C4.53923 13.883 4.13601 14.2862 3.87304 14.8121C3.55748 15.3205 3.31205 15.8815 2.99649 16.3724C2.50561 17.5119 1.97968 18.6164 1.57646 19.8436C1.15571 21.0357 0.805087 22.2979 0.559651 23.6653C0.296683 24.9451 0.0512466 26.6106 0.086309 27.9605C-0.0890029 28.4514 0.0512466 29.363 0.086309 29.9415C0.086309 30.0467 0.0161843 30.0818 0.0161843 30.1519C0.0161843 30.8005 0.191496 31.5894 0.226558 31.9927C0.366808 33.4828 0.629776 34.8678 1.05052 36.0774C1.31349 37.4273 1.87449 38.4792 2.27771 39.6889C2.8913 40.7057 3.31205 41.9153 4.04836 42.8269C4.59182 43.8963 5.36319 44.7378 6.0995 45.6144C6.88841 46.4559 7.67731 47.3149 8.62399 47.9986C10.3596 49.5063 12.3932 50.716 14.6197 51.7503C18.7746 53.7664 24.9806 55.0812 30.5555 54.7481C31.9755 54.5553 33.4131 54.38 34.7104 54.0644C35.9025 53.6261 37.2875 53.3632 38.725 53.1879C42.0034 52.9775 44.8434 53.2755 47.3679 54.0118C49.9275 54.6955 52.1364 55.7299 54.0473 57.0798C55.0641 57.6758 55.9056 58.4472 56.7646 59.1835C57.6412 59.9374 58.3424 60.8665 59.1489 61.708C59.2541 62.0236 59.4644 62.2515 59.6222 62.532C59.8326 62.7599 59.7274 63.2858 60.2358 63.2157C60.5514 62.9001 60.1832 62.4443 60.1657 62.0586C59.8501 61.7256 59.78 61.2873 59.5345 61.0068Z" fill="#FCB316"/>
<path d="M46.8069 42.3535C46.7367 42.3535 46.7192 42.4061 46.6666 42.4236C46.5439 42.6866 46.5965 43.1073 46.6666 43.3703C47.0348 44.1241 47.1575 45.1059 47.9639 45.4214C48.3496 45.2987 48.3145 44.7377 48.297 44.1942C48.1217 43.5281 47.8763 42.932 47.473 42.4937C47.1925 42.3885 46.9997 42.2132 46.8069 42.3535ZM42.0384 44.2644C42.0384 44.2293 41.9858 44.1942 41.9683 44.2644C41.3021 44.1767 41.0742 44.5449 40.7411 44.8078C40.1625 46.333 41.0917 47.8232 42.7221 47.8057C43.3707 47.6479 43.774 47.2271 43.8792 46.5084C43.7915 45.2286 43.248 44.4046 42.0384 44.2644Z" fill="#FCB316"/>
<path d="M81.3433 39.4085C81.6063 40.513 82.1673 41.3019 82.7984 42.0382C83.4295 42.7745 84.1658 43.3881 85.0599 43.8439C85.9014 44.3698 86.813 44.8081 87.8649 45.1062C88.3733 45.2815 88.8642 45.4918 89.4953 45.562C89.9336 45.8074 90.4595 45.9301 90.4946 46.5612C90.4771 47.3151 89.9687 47.5956 89.32 47.7358C88.6714 47.5956 87.8649 47.6131 87.3215 47.3677C85.954 47.2099 84.8496 46.7716 83.6925 46.3684C81.4836 45.5094 79.6253 44.2647 78.0825 42.7394C77.767 42.2135 77.3287 41.7928 76.9956 41.2844C76.6625 40.7759 76.4346 40.1624 76.084 39.654C73.3842 39.3033 71.5434 38.0761 69.9305 36.6561C68.4404 34.9556 67.2482 32.922 66.7574 30.2222C66.1788 27.6276 66.3542 24.3843 67.0379 21.8773C68.528 17.0212 71.6486 13.7955 77.5391 13.3572C79.1695 13.4098 80.5895 13.6026 81.8868 14.0935C83.2016 14.5668 84.4463 15.4434 85.4281 16.355C85.5157 16.4251 85.5508 16.4427 85.6034 16.5303C85.8138 16.8284 86.3222 17.2491 86.6027 17.6173C86.6553 17.6874 86.6377 17.8101 86.6903 17.8978C86.7955 18.0555 86.9533 18.1257 87.0585 18.2659C87.1111 18.3536 87.0935 18.4588 87.1461 18.5289C87.2163 18.6341 87.3039 18.7918 87.4091 18.9847C87.4442 19.0548 87.5669 19.1074 87.5844 19.16C87.7422 19.458 87.8123 19.8262 87.9526 20.1593C88.0928 20.5099 88.2857 20.8079 88.4084 21.1586C88.759 22.1929 88.9869 23.4201 89.1272 24.6823C89.4778 28.3288 88.759 31.5896 87.4091 34.0089C86.778 35.2712 85.9014 36.3055 84.8671 37.1821C83.9204 38.1813 82.6231 38.7774 81.3433 39.4085ZM76.9956 16.5829C76.2067 16.6355 75.7333 17.0037 75.0847 17.214C74.6639 17.5997 74.138 17.8978 73.8224 18.3886C73.2965 18.6867 73.1563 19.3528 72.7355 19.7385C72.3849 20.6151 72.0518 21.5968 71.8239 22.7364C71.6135 23.8584 71.4733 25.1206 71.4557 26.3653C71.4382 29.4859 72.1044 32.5889 73.3491 34.4297C74.0854 35.3238 74.9795 36.0601 76.0664 36.6035C76.6976 36.6561 77.1884 36.8665 77.8721 36.884C78.2578 36.7438 78.889 36.884 79.1344 36.6035C79.6954 36.6386 79.8181 36.2704 80.309 36.2354C80.5719 35.9724 80.8524 35.762 81.2206 35.6043C81.5537 35.2361 81.8693 34.8679 82.2199 34.5173C82.3952 34.2544 82.5004 33.8862 82.7633 33.6934C84.3412 30.678 84.5165 25.1557 83.4821 21.6494C83.0964 20.3697 82.553 19.3353 81.9394 18.4763C81.2732 17.7926 80.4843 17.214 79.5902 16.7582C78.8714 16.6004 78.1877 16.4076 77.241 16.4953C77.1884 16.4953 77.1358 16.5128 77.1534 16.5829C77.1183 16.5829 77.0657 16.5829 76.9956 16.5829ZM96.1221 14.0409C97.5421 14.0935 99.2076 13.9182 100.47 14.1286C100.75 14.5668 100.645 15.0928 100.645 15.5836C100.75 22.228 100.645 29.3631 100.645 36.1477C100.645 36.6912 100.663 37.2522 100.645 37.7781C100.628 38.2339 100.75 38.7248 100.47 39.1456C99.8387 39.3033 98.9271 39.2332 98.1207 39.2332C97.2616 39.2332 96.4201 39.3559 95.8591 39.0579C95.7014 31.0286 95.7014 22.3682 95.8591 14.3214C95.8942 14.1811 95.9819 14.0935 96.1221 14.0409ZM106.991 14.0409H111.252C111.637 14.5668 111.76 15.3557 111.883 16.1271C113.162 21.0008 114.425 25.892 115.599 30.8884C115.88 30.9234 115.792 30.5903 115.88 30.4326C116.002 30.3098 115.932 30.0118 116.055 29.8891C116.108 29.4859 116.353 29.2755 116.336 28.8022C116.651 28.1886 116.756 27.3471 117.054 26.7159C117.422 25.2433 117.913 23.8759 118.334 22.4559C118.737 20.9832 119.281 19.6509 119.596 18.1081C120.192 16.8634 120.333 15.1629 121.051 14.0409H122.857C123.506 15.2681 123.751 16.8985 124.312 18.2133C124.68 19.6859 125.189 21.0183 125.575 22.4734C126.469 25.2959 127.398 28.0834 128.204 30.9935C128.572 30.4501 128.572 29.5385 128.835 28.9073C128.993 28.1886 129.133 27.4522 129.379 26.8211C130.08 23.946 130.746 21.0534 131.553 18.301C131.851 16.8634 132.149 15.3908 132.64 14.1286C133.691 13.9708 135.304 13.9708 136.356 14.1286C136.444 15.198 135.953 16.355 135.637 17.3017C135.462 18.4588 135.041 19.3528 134.813 20.4748C134.165 22.526 133.674 24.6999 133.008 26.7335C132.499 28.9073 131.816 30.9059 131.29 33.0798C130.939 34.079 130.694 35.1835 130.378 36.2529C130.027 37.2347 129.905 38.4443 129.379 39.2507H126.837C126.188 38.1112 125.96 36.5685 125.382 35.3588C124.119 31.3617 122.717 27.5224 121.49 23.4902C121.069 23.9285 121.069 24.8226 120.771 25.3836C120.578 26.0673 120.385 26.751 120.14 27.3821C119.789 28.7671 119.263 29.9417 118.965 31.3617C118.457 32.6064 118.089 33.9914 117.703 35.3588C117.177 36.5509 116.984 38.0762 116.336 39.1631C115.669 39.3735 114.618 39.1981 113.794 39.2507C113.162 38.532 113.092 37.2347 112.707 36.2529C112.409 35.2361 112.198 34.1141 111.813 33.1674C111.322 30.9585 110.585 29.0125 110.094 26.8211C109.446 24.7875 108.885 22.6662 108.289 20.5625C107.956 19.5632 107.71 18.4938 107.377 17.477C107.219 16.3901 106.483 15.4083 106.746 14.2162C106.781 14.1286 106.886 14.076 106.991 14.0409ZM142.773 14.0409C144.193 14.0935 145.841 13.9182 147.12 14.1286C147.436 15.0752 147.296 16.092 147.296 17.1089V36.1302C147.296 37.1645 147.418 38.1638 147.12 39.128C146.139 39.2332 144.701 39.2858 143.491 39.2157C143.141 39.1981 142.72 39.3033 142.492 39.0404C142.177 38.0937 142.317 37.0944 142.317 36.0425V17.214C142.317 16.0745 142.212 14.97 142.492 14.2162C142.562 14.1286 142.667 14.076 142.773 14.0409Z" fill="#0269B3"/>
</svg>
