<svg width="182" height="48" viewBox="0 0 182 48" fill="none" xmlns="http://www.w3.org/2000/svg">
<path fill-rule="evenodd" clip-rule="evenodd" d="M23.7625 0C27.4932 0 31.0263 0.868924 34.1753 2.40929C34.6672 2.64627 35.1627 2.90479 35.6546 3.18486L33.4679 5.14532L30.1825 1.74862L24.6351 6.69646L21.3389 3.09868L11.0052 12.4127L17.6334 19.7124L15.0302 22.0032L21.5543 29.3172L18.9655 31.6008L28.2903 41.9776L33.8234 36.8826L38.6096 42.3439C37.6581 43.0835 36.6205 43.7801 35.4787 44.4228C32.0173 46.3976 28.0174 47.5251 23.7625 47.5251C10.6748 47.5251 0 36.8503 0 23.7625C0 10.6748 10.6748 0 23.7625 0Z" fill="#0761AF"/>
<path fill-rule="evenodd" clip-rule="evenodd" d="M19.4323 22.2616L25.0839 17.1702L30.1718 22.8218L24.5202 27.9132L19.4323 22.2616Z" fill="#0761AF"/>
<path fill-rule="evenodd" clip-rule="evenodd" d="M23.4502 32.0245L29.1018 26.9366L34.1896 32.5882L28.538 37.6761L23.4502 32.0245Z" fill="#0761AF"/>
<path fill-rule="evenodd" clip-rule="evenodd" d="M15.3893 12.6102L21.0409 7.52234L26.1252 13.1739L20.4772 18.2618L15.3893 12.6102Z" fill="#0761AF"/>
<path fill-rule="evenodd" clip-rule="evenodd" d="M25.7589 9.87417L29.9958 6.05737L33.8126 10.2943L29.5757 14.1111L25.7589 9.87417Z" fill="#0761AF"/>
<path fill-rule="evenodd" clip-rule="evenodd" d="M33.2884 27.3496L37.5289 23.5364L41.3421 27.7733L37.1052 31.5901L33.2884 27.3496Z" fill="#0761AF"/>
<path fill-rule="evenodd" clip-rule="evenodd" d="M37.0154 35.9095L41.2559 32.0963L45.0691 36.3332L40.8322 40.15L37.0154 35.9095Z" fill="#0761AF"/>
<path fill-rule="evenodd" clip-rule="evenodd" d="M38.7245 16.2906L41.5503 13.7484L44.0925 16.5742L41.2703 19.1164L38.7245 16.2906Z" fill="#0761AF"/>
<path fill-rule="evenodd" clip-rule="evenodd" d="M35.1124 7.89566L37.9382 5.35352L40.4839 8.17931L37.6581 10.7215L35.1124 7.89566Z" fill="#0761AF"/>
<path fill-rule="evenodd" clip-rule="evenodd" d="M42.3367 24.6854L45.1625 22.1396L47.7046 24.9654L44.8788 27.5112L42.3367 24.6854Z" fill="#0761AF"/>
<path fill-rule="evenodd" clip-rule="evenodd" d="M29.6655 18.3946L33.9024 14.5778L37.7192 18.8182L33.4823 22.6315L29.6655 18.3946Z" fill="#0761AF"/>
<path fill-rule="evenodd" clip-rule="evenodd" d="M112.985 14.6353L112.852 14.7215L112.719 14.6353C111.746 13.7484 110.68 13.3929 109.355 13.3929C106.296 13.3929 104.303 15.5222 104.303 18.8435C104.303 18.8435 104.303 34.0353 104.303 34.3907C104.616 34.3907 107.05 34.3907 107.359 34.3907C107.359 34.0353 107.359 18.8435 107.359 18.8435C107.359 16.6281 108.867 16.4521 109.355 16.4521C109.707 16.4521 110.238 16.5383 110.68 16.8938C111.125 17.3354 111.348 17.9566 111.348 18.8435C111.348 18.8435 111.348 34.0353 111.348 34.3907C111.657 34.3907 114.091 34.3907 114.403 34.3907C114.403 34.0353 114.403 18.8435 114.403 18.8435C114.403 16.6281 115.912 16.4521 116.396 16.4521C116.752 16.4521 117.283 16.5383 117.725 16.8938C118.17 17.3354 118.389 17.9566 118.389 18.8435C118.389 18.8435 118.389 34.0353 118.389 34.3907C118.701 34.3907 121.136 34.3907 121.445 34.3907C121.445 34.0353 121.445 18.8435 121.445 18.8435C121.445 17.1164 120.917 15.6981 119.94 14.7215C119.053 13.8813 117.815 13.3929 116.396 13.3929C115.025 13.3929 113.915 13.7915 112.985 14.6353Z" fill="#0761AF"/>
<path fill-rule="evenodd" clip-rule="evenodd" d="M135.268 20.5705C134.249 19.5077 132.565 18.5778 130.263 18.5778C128.048 18.5778 126.364 19.5077 125.344 20.5705C123.75 22.2976 123.437 24.7356 123.437 26.6386C123.437 28.4986 123.75 30.9366 125.344 32.6637C126.364 33.7265 128.048 34.6564 130.263 34.6564C132.565 34.6564 134.249 33.7265 135.268 32.6637C136.863 30.9366 137.171 28.4986 137.171 26.6386C137.171 24.7356 136.863 22.2976 135.268 20.5705ZM134.069 27.3029C134.069 28.7643 134.069 30.4052 132.963 31.6008C132.522 32.0425 131.678 32.6206 130.263 32.6206C128.931 32.6206 128.091 32.0425 127.646 31.6008C126.54 30.4052 126.54 28.7643 126.54 27.3029V25.9313C126.54 24.4699 126.54 22.829 127.646 21.6764C128.091 21.1917 128.931 20.6136 130.263 20.6136C131.678 20.6136 132.522 21.1917 132.963 21.6764C134.069 22.829 134.069 24.4699 134.069 25.9313V27.3029Z" fill="#0761AF"/>
<path fill-rule="evenodd" clip-rule="evenodd" d="M139.696 18.8435L142.266 18.8865V20.2617C143.021 19.7303 143.681 19.3318 144.439 19.0661C145.365 18.6639 146.029 18.5778 146.963 18.5778C148.291 18.5778 149.663 18.8435 150.769 20.0822C151.835 21.3246 152.054 22.7859 152.054 24.0247V34.3476H149.221V23.8021C149.221 21.2815 147.627 20.6136 146.295 20.6136C144.967 20.6136 143.595 21.1917 142.489 22.2078V34.3476H139.696V18.8435Z" fill="#0761AF"/>
<path fill-rule="evenodd" clip-rule="evenodd" d="M165.921 31.3351C165.39 31.6008 164.812 31.8235 164.104 32.0425C163.261 32.3082 162.6 32.441 161.713 32.441C160.252 32.441 158.923 31.9563 158.212 31.1556C157.681 30.6278 157.106 29.5614 157.106 27.7015V27.3029H166.672V26.5956C166.672 24.1145 166.586 22.075 165.034 20.4377C164.015 19.3318 162.464 18.5778 160.517 18.5778C158.345 18.5778 156.751 19.5077 155.778 20.6136C154.18 22.4305 154.004 24.8218 154.004 26.3729C154.004 28.1 154.27 30.6709 155.864 32.441C156.884 33.6367 158.701 34.6564 161.268 34.6564C162.421 34.6564 163.663 34.5236 164.902 34.0353C165.566 33.7696 166.32 33.4177 166.808 33.152L165.921 31.3351ZM157.106 24.9116C157.106 23.1378 157.681 22.1217 158.126 21.6334C158.568 21.145 159.275 20.6136 160.471 20.6136C161.268 20.6136 162.065 20.7932 162.643 21.3677C163.663 22.3407 163.663 23.54 163.663 24.6028V25.267H157.106V24.9116Z" fill="#0761AF"/>
<path fill-rule="evenodd" clip-rule="evenodd" d="M182 18.8865L175.932 37.1375C175.709 37.9346 175.135 39.2631 174.471 40.0171C173.673 40.904 172.611 41.3025 171.411 41.3025C170.571 41.3025 169.774 41.123 168.977 40.6814C168.492 40.3726 168 40.0602 167.691 39.7047L169.02 38.0243C169.243 38.247 169.551 38.466 169.817 38.6419C170.262 38.9076 170.794 39.0405 171.282 39.0405C172.122 39.0405 172.654 38.5988 172.919 38.247C173.228 37.8484 173.541 36.9148 173.76 36.3403L174.115 35.1016L167.605 18.8865H170.661L174.557 28.5883C174.959 29.5182 175.354 30.9365 175.444 31.3351H175.576C176.065 29.4751 176.287 28.854 176.686 27.7014L179.476 18.8865H182Z" fill="#0761AF"/>
<path fill-rule="evenodd" clip-rule="evenodd" d="M62.7959 33.4608L62.8857 33.3279L63.0185 33.4608C64.0382 34.3046 65.058 34.7031 66.4296 34.7031C69.4852 34.7031 71.4779 32.5308 71.4779 29.2526C71.4779 29.2526 71.4779 14.0141 71.4779 13.7053C71.1692 13.7053 68.6881 13.7053 68.3793 13.7053C68.3793 14.0141 68.3793 29.2526 68.3793 29.2526C68.3793 31.468 66.8712 31.6008 66.4296 31.6008C66.031 31.6008 65.4996 31.5542 65.1011 31.1556C64.6558 30.7571 64.4368 30.0964 64.4368 29.2526C64.4368 29.2526 64.4368 14.0141 64.4368 13.7053C64.1244 13.7053 61.6469 13.7053 61.3345 13.7053C61.3345 14.0141 61.3345 29.2526 61.3345 29.2526C61.3345 31.468 59.8301 31.6008 59.3417 31.6008C58.9863 31.6008 58.4549 31.5542 58.0563 31.1556C57.6147 30.7571 57.392 30.0964 57.392 29.2526C57.392 29.2526 57.392 14.0141 57.392 13.7053C57.0833 13.7053 54.6022 13.7053 54.2934 13.7053C54.2934 14.0141 54.2934 29.2526 54.2934 29.2526C54.2934 30.9366 54.8248 32.3513 55.7978 33.3279C56.6847 34.2148 57.9701 34.7031 59.3417 34.7031C60.7133 34.7031 61.8228 34.2579 62.7959 33.4608Z" fill="#0761AF"/>
<path fill-rule="evenodd" clip-rule="evenodd" d="M85.7003 31.3351C85.212 31.5542 84.6375 31.8235 83.9265 32.0425C83.0863 32.3082 82.4185 32.441 81.5352 32.441C80.0738 32.441 78.7417 31.9563 78.0344 31.1556C77.546 30.6278 76.9716 29.5614 76.9716 27.7015V27.3029H86.4507V26.5956C86.4507 24.1145 86.3645 22.075 84.8565 20.4377C83.8368 19.3749 82.2892 18.6208 80.2929 18.6208C78.2139 18.6208 76.6161 19.5508 75.643 20.6136C74.0057 22.4771 73.8693 24.8685 73.8693 26.3729C73.8693 28.1 74.0919 30.6709 75.6861 32.441C76.7489 33.5936 78.5227 34.6564 81.09 34.6564C82.2425 34.6564 83.4382 34.4805 84.7236 33.9922C85.3879 33.7696 86.0952 33.371 86.5836 33.1053L85.7003 31.3351ZM76.9716 24.9116C76.9716 23.1378 77.503 22.1648 77.9913 21.6334C78.3898 21.1917 79.0972 20.6136 80.2929 20.6136C81.09 20.6136 81.8907 20.8362 82.4652 21.4107C83.4849 22.3407 83.4849 23.54 83.4849 24.6459V25.267H76.9716V24.9116Z" fill="#0761AF"/>
<path fill-rule="evenodd" clip-rule="evenodd" d="M99.6066 20.172C98.5007 19.1953 96.9496 18.6208 95.3554 18.6208C94.648 18.6208 93.894 18.7537 93.3626 18.8435C92.921 18.9763 92.3429 19.1953 91.8546 19.3749V13.3068H89.0647V33.0191C90.7056 33.9922 92.6553 34.6564 94.8671 34.6564C96.5044 34.6564 98.7234 34.3046 100.318 32.222C101.599 30.4913 101.865 28.3226 101.865 26.5489C101.865 24.8685 101.736 21.9888 99.6066 20.172ZM94.824 20.6136C95.9299 20.6136 97.0825 20.9691 97.7934 21.7231C98.7664 22.7859 98.7664 24.3802 98.7664 25.7518V27.0803C98.7664 29.6978 98.3248 30.757 97.9227 31.3351C97.481 31.9096 96.5511 32.6206 94.9568 32.6206C94.3823 32.6206 93.6714 32.441 93.14 32.3082C92.7414 32.1753 92.2531 31.9096 91.8546 31.687V21.5436" fill="#0761AF"/>
</svg>
