<svg width="88" height="88" viewBox="0 0 88 88" fill="none" xmlns="http://www.w3.org/2000/svg">
<g style="mix-blend-mode:luminosity" opacity="0.6">
<path d="M45.0801 88L44.9562 83.1837H45.6442L45.8368 88H45.0801ZM42.1701 88L41.4409 87.9174L41.7161 83.1012L42.3627 83.1356L42.1701 88ZM48.7054 87.7867L48.1895 82.9705L48.8361 82.8948L49.4278 87.711L48.7054 87.7867ZM38.5447 87.7041L37.8568 87.6078L38.5447 82.8397L39.1845 82.9223L38.5447 87.7041ZM52.3033 87.25L51.4021 82.5163L52.035 82.3925L53.0119 87.1056L52.3033 87.25ZM34.9606 87.1056L34.2727 86.9473L35.339 82.2549L35.965 82.3925L34.9606 87.1056ZM55.8462 86.4175L54.5528 81.7251L55.1789 81.5462L56.5547 86.1629L55.8462 86.4175ZM31.4315 86.218L30.7436 86.0047L32.1882 81.4086L32.8074 81.6013L31.4315 86.218ZM59.3064 85.296L57.6348 80.7825L58.2402 80.5486L59.9875 85.0415L59.3064 85.296ZM27.9919 85.0415L27.3039 84.7662L29.127 80.3077L29.7255 80.5486L27.9919 85.0415ZM62.6704 83.8924L60.6066 79.5303L61.1982 79.2482L63.3102 83.5759L62.6704 83.8924ZM24.6623 83.5759L23.9744 83.2525L26.1964 78.973L26.7742 79.2551L24.6623 83.5759ZM65.8968 82.1999L63.5028 78.0235L64.06 77.6932L66.5297 81.8214L65.8968 82.1999ZM21.4634 81.8352L20.8443 81.4568L23.3759 77.3285L23.9262 77.6588L21.4634 81.8352ZM68.9719 80.2527L66.2201 76.2896L66.7498 75.9181L69.5566 79.833L68.9719 80.2527ZM18.4228 79.8468L17.8311 79.4133L20.6998 75.5328L21.2226 75.9112L18.4228 79.8468ZM71.8818 78.0579L68.8274 74.3425L69.3296 73.9228L72.4459 77.5969L71.8818 78.0579ZM15.5747 77.5969L15.0244 77.1221L18.1751 73.4687L18.6704 73.8952L15.5747 77.5969ZM74.6198 75.6222L71.2695 72.182C71.4278 72.0375 71.5791 71.8793 71.7305 71.7279L75.2183 75.058L75.1288 75.1475L74.6198 75.6222ZM12.8987 75.1337L12.4034 74.6383L15.843 71.2807C15.9875 71.4321 16.132 71.5834 16.2833 71.7279L12.8987 75.1337ZM77.1926 72.9182L73.5672 69.7533L73.9869 69.2579L77.6673 72.3678L77.1926 72.9182ZM10.4634 72.4572L9.99562 71.8999L13.7173 68.8382L14.1301 69.3404L10.4634 72.4572ZM79.4972 70.0835L75.6241 67.2213L76.0025 66.7052L79.9237 69.4918C79.738 69.6913 79.5935 69.884 79.449 70.0835H79.4972ZM8.22076 69.5881L7.80113 68.9895L11.7636 66.2374L12.1351 66.7672L8.22076 69.5881ZM81.5335 67.0699L77.4059 64.5448L77.743 63.9944L81.8705 66.4507L81.5335 67.0699ZM6.22577 66.5401L5.80613 65.9002L9.98186 63.499L10.3121 64.0563L6.22577 66.5401ZM83.2739 63.898L78.9812 61.717L79.2702 61.139L83.5973 63.2513C83.4803 63.4646 83.3702 63.6848 83.2602 63.898H83.2739ZM4.45091 63.3407L4.14134 62.6871L8.49593 60.623C8.59224 60.8156 8.68168 61.0152 8.77799 61.2078L4.45091 63.3407ZM84.7874 60.5886L80.3227 58.779C80.4053 58.5795 80.4809 58.38 80.5635 58.1736L85.0557 59.9143L84.7874 60.5886ZM2.99249 60.0106C2.90306 59.7836 2.81363 59.5565 2.73108 59.3226L7.23014 57.6438C7.30582 57.8433 7.38149 58.0429 7.46404 58.2493L2.99249 60.0106ZM86.0119 57.169L81.4165 55.731C81.4853 55.5246 81.5472 55.3182 81.6091 55.1118L86.2251 56.4879C86.1426 56.7081 86.0738 56.9557 85.9981 57.169H86.0119ZM1.81613 56.5636C1.74734 56.3296 1.67855 56.0957 1.61663 55.8755L6.25328 54.582C6.30832 54.7884 6.37023 54.9948 6.43214 55.2013L1.81613 56.5636ZM86.9612 53.6601L82.2627 52.6005C82.3108 52.3872 82.359 52.1808 82.4003 51.9675L87.1126 52.9445C87.0438 53.1853 86.9956 53.4192 86.9406 53.6601H86.9612ZM0.908067 53.0339C0.853033 52.8 0.804877 52.5592 0.763601 52.3459L5.48968 51.4308C5.53096 51.6441 5.57223 51.8574 5.62039 52.0707L0.908067 53.0339ZM87.5872 50.0754L82.8199 49.3873L82.9024 48.7406L87.6836 49.3323C87.656 49.5937 87.6216 49.8346 87.5872 50.0754ZM0.309568 49.4424C0.309568 49.2016 0.247655 48.9608 0.220137 48.7199L5.03565 48.2039C5.03565 48.4241 5.0838 48.6374 5.11132 48.8507L0.309568 49.4424ZM87.945 46.4563L83.1295 46.188C83.1295 45.9747 83.1295 45.7545 83.1295 45.5412L87.945 45.7339C87.9656 45.9472 87.9587 46.2155 87.945 46.4563ZM0.00687946 45.8164C0.00687946 45.5756 0.00687946 45.3348 0.00687946 45.1284L4.82239 45.0114V45.6582L0.00687946 45.8164ZM83.1845 42.9473C83.1845 42.734 83.1845 42.5138 83.1845 42.3005L88 42.0941C88 42.335 88 42.5758 88 42.8235L83.1845 42.9473ZM4.81551 42.3831L0 42.1836C0 41.9428 -5.25361e-07 41.702 0.034396 41.4543L4.84991 41.7295C4.83615 41.9497 4.82927 42.1629 4.81551 42.3831ZM82.9919 39.7135C82.9919 39.5002 82.9437 39.2869 82.9162 39.0668L87.7317 38.4682L87.8143 39.1906L82.9919 39.7135ZM5.11132 39.1493L0.330206 38.5576C0.330206 38.3168 0.392119 38.076 0.426516 37.8352L5.19387 38.5232L5.11132 39.1493ZM82.5103 36.5073C82.469 36.294 82.4278 36.0876 82.3796 35.8743L87.0919 34.8835C87.147 35.1174 87.1882 35.3582 87.2364 35.5715L82.5103 36.5073ZM5.64103 35.95L0.921826 34.9729C0.969981 34.7321 1.02502 34.4982 1.08005 34.2849L5.77173 35.3445C5.70294 35.5303 5.65478 35.7436 5.61351 35.95H5.64103ZM81.7605 33.3561C81.7055 33.1428 81.6435 32.9364 81.5816 32.7299L86.1976 31.3539L86.404 32.0419L81.7605 33.3561ZM6.42527 32.8125L1.80926 31.4364C1.87805 31.2025 1.95372 30.9755 2.02251 30.7484L6.61789 32.1933C6.52158 32.3997 6.45966 32.6061 6.39775 32.8125H6.42527ZM80.763 30.2737L80.5291 29.6682L85.0144 27.9137L85.2758 28.6017L80.763 30.2737ZM7.4778 29.7507L2.98562 28.0031L3.25391 27.3151L7.71169 29.1315C7.60851 29.3448 7.52595 29.5443 7.45028 29.7507H7.4778ZM79.5041 27.2876C79.4146 27.088 79.3183 26.8954 79.222 26.7027L83.5491 24.5767L83.8655 25.2647L79.5041 27.2876ZM8.77111 26.7853L4.44403 24.673C4.5541 24.4529 4.65729 24.2327 4.76735 23.985L9.06004 26.173L8.77111 26.7853ZM77.9769 24.4116L77.6467 23.8543L81.7742 21.3773L82.1457 22.0103L77.9769 24.4116ZM10.2846 23.9299L6.15697 21.4668C6.2808 21.2535 6.41151 21.0471 6.53534 20.8407L10.6285 23.3795L10.2846 23.9299ZM76.2433 21.6663L75.8718 21.1365L79.7792 18.3293L80.2058 18.9279L76.2433 21.6663ZM12.0525 21.2191L8.13133 18.4256L8.55785 17.8408L12.4309 20.7099L12.0525 21.2191ZM74.2896 19.1137L73.8699 18.6183L77.5366 15.4946L78.0044 16.0519L74.2896 19.1137ZM14.0407 18.7009L10.3671 15.5909L10.8418 15.0336L14.4672 18.2124C14.3227 18.3431 14.1989 18.5082 14.0407 18.6733V18.7009ZM72.1226 16.6987C71.985 16.5611 71.8543 16.4235 71.7098 16.2858L71.6617 16.2308L75.1013 12.7906L75.1495 12.8457C75.3077 12.997 75.459 13.1484 75.6104 13.3066L72.1226 16.6987ZM16.2627 16.2583L12.823 12.8801H12.8574C13.0156 12.7149 13.1739 12.5567 13.339 12.3984L16.6892 15.8386L16.2627 16.2583ZM69.763 14.435L69.2746 14.0153L72.384 10.3412L72.9343 10.8091L69.763 14.435ZM18.6154 14.0841L15.4922 10.4169L16.0494 9.94902L19.1107 13.6644L18.6154 14.0841ZM67.2383 12.4053L66.7154 12.0269L69.5153 8.10508L70.1001 8.53167L67.2383 12.4053ZM21.147 12.0888L18.3677 8.17388L18.9662 7.75418L21.7179 11.7104C21.5253 11.8342 21.3465 11.9581 21.1745 12.0888H21.147ZM64.5416 10.5958L63.9844 10.2586L66.4472 6.13041L67.0663 6.50883L64.5416 10.5958ZM23.8849 10.3068L21.4084 6.17857L22.0413 5.81392L24.4422 9.98343L23.8849 10.3068ZM61.7211 9.00641L61.1432 8.72432L63.2483 4.38968L63.9362 4.71306L61.7211 9.00641ZM26.733 8.79312L24.6141 4.47224L25.3021 4.15575L27.3659 8.51102L26.733 8.79312ZM58.8043 7.69914L58.2264 7.41704L59.96 2.93104C60.1847 3.01361 60.414 3.10305 60.6479 3.19938L58.8043 7.69914ZM29.6979 7.49273L27.9575 2.97232L28.6454 2.71087L30.3308 7.22439L29.6979 7.49273ZM55.7567 6.60516L55.1376 6.41251L56.5135 1.79578L57.2014 2.00907L55.7567 6.60516ZM32.773 6.40563L31.3971 1.7889L32.0851 1.58248L33.3715 6.22674L32.773 6.40563ZM52.6404 5.71759L52.0075 5.57999L52.9912 0.860047L53.6792 1.0183L52.6404 5.71759ZM35.9168 5.59374L34.9331 0.880687L35.621 0.7362L36.536 5.4699C36.3296 5.51806 36.1163 5.56623 35.9031 5.60751L35.9168 5.59374ZM49.4553 5.13276L48.8155 5.05019L49.4002 0.268334L50.0882 0.364659L49.4553 5.13276ZM39.1363 5.06396L38.5378 0.282095L39.2258 0.199529L39.7417 5.01579L39.1363 5.06396ZM46.2495 4.81626H45.6029L45.7955 0H46.5247L46.2495 4.81626ZM42.3627 4.81626L42.1632 0H42.8924L43.0094 4.81626H42.3627Z" fill="black"/>
</g>
</svg>
