<svg width="57" height="60" fill="none" xmlns="http://www.w3.org/2000/svg"><path d="M55.944 34.737H33.035c.996-1.593 1.798-3.286 1.798-4.62a6.58 6.58 0 00-2.119-4.853h.988c.459 0 .865-.296 1.005-.732a24.63 24.63 0 00.53-1.935l.53.186 1.567 2.063a1.057 1.057 0 001.89-.512l.88-7.41a1.052 1.052 0 00-.66-1.102l-3.68-1.454C35.226 8.805 32.912 3.77 29.226.288a1.057 1.057 0 00-1.452 0c-3.686 3.481-6 8.516-6.538 14.08l-3.68 1.454a1.052 1.052 0 00-.66 1.102l.88 7.41a1.053 1.053 0 001.048.93c.325 0 .639-.15.842-.418l1.567-2.063.53-.186c.151.652.326 1.298.53 1.935.14.436.546.732 1.006.732h.987a6.583 6.583 0 00-2.12 4.854c0 1.333.803 3.026 1.799 4.62H1.055c-.582 0-1.055.47-1.055 1.052v23.157C0 59.53.473 60 1.056 60h54.888c.583 0 1.056-.47 1.056-1.053V35.79c0-.582-.473-1.053-1.056-1.053zM28.5 26.317c.572 0 1.056.642 1.056 1.402 0 .444-.464 1.557-1.056 2.721-.592-1.164-1.056-2.277-1.056-2.72 0-.761.484-1.404 1.056-1.404zm9.412-8.836l-.477 4.012-.177-.233a1.058 1.058 0 00-.49-.358l-1.145-.401c.17-1.19.266-2.397.266-3.618 0-.07-.01-.136-.01-.205l2.033.803zm-17.68 3.421a1.06 1.06 0 00-.49.358l-.178.233-.476-4.012 2.033-.803c0 .069-.01.136-.01.205 0 1.22.095 2.428.266 3.618l-1.144.401zm2.99-4.02c0-5.581 1.912-10.743 5.278-14.335 3.366 3.591 5.278 8.754 5.278 14.336 0 2.148-.29 4.255-.861 6.275h-3.361V20c0-.581-.473-1.052-1.056-1.052-.583 0-1.056.47-1.056 1.052v3.158h-3.361a23.02 23.02 0 01-.86-6.275zM54.89 57.896H2.11V36.842h23.302a41.212 41.212 0 002.305 2.812 1.055 1.055 0 001.564 0 41.13 41.13 0 002.305-2.812h23.302v21.053zM15.833 38.948c0 .581-.472 1.052-1.055 1.052h-4.31a6.341 6.341 0 01-5.19 5.176v4.298c0 .582-.473 1.052-1.056 1.052-.583 0-1.055-.47-1.055-1.052V44.21c0-.582.472-1.053 1.055-1.053a4.22 4.22 0 004.222-4.21c0-.582.473-1.053 1.056-1.053h5.278c.583 0 1.055.47 1.055 1.053zm25.334 16.841c0-.581.472-1.052 1.055-1.052h4.31a6.34 6.34 0 015.19-5.176v-4.298c0-.581.473-1.052 1.056-1.052.583 0 1.055.47 1.055 1.052v5.263c0 .582-.472 1.053-1.055 1.053a4.22 4.22 0 00-4.222 4.21c0 .582-.473 1.053-1.056 1.053h-5.278c-.583 0-1.055-.47-1.055-1.053zM28.5 16.843a4.22 4.22 0 004.222-4.21A4.221 4.221 0 0028.5 8.421a4.221 4.221 0 00-4.222 4.21 4.22 4.22 0 004.222 4.21zm0-6.316a2.11 2.11 0 012.111 2.105 2.11 2.11 0 01-4.222 0 2.11 2.11 0 012.111-2.105zm1.056 32.631v-1.053c0-.581-.473-1.052-1.056-1.052-.583 0-1.056.47-1.056 1.053v1.052h-2.11c-.584 0-1.056.47-1.056 1.053v3.158c0 .581.472 1.052 1.055 1.052h2.111v1.053h-2.11a1.054 1.054 0 100 2.105h2.11v1.053c0 .582.473 1.052 1.056 1.052.583 0 1.056-.47 1.056-1.052v-1.053h2.11c.584 0 1.056-.47 1.056-1.053V47.37c0-.582-.472-1.053-1.055-1.053h-2.111v-1.053h2.11a1.054 1.054 0 100-2.105h-2.11zm1.055 5.263v1.053h-1.055V48.42h1.055zm-3.167-2.105H26.39v-1.053h1.055v1.053z" fill="url(#paint0_linear)"/><defs><linearGradient id="paint0_linear" x1="-2.984" y1="51.917" x2="48.068" y2=".6" gradientUnits="userSpaceOnUse"><stop stop-color="#66DBE1"/><stop offset="1" stop-color="#fff"/></linearGradient></defs></svg>