<svg width="100" height="50" fill="none" xmlns="http://www.w3.org/2000/svg"><path d="M3.01 48.301a2.99 2.99 0 01-1.546-.407A2.955 2.955 0 01.39 46.762 3.378 3.378 0 010 45.134c0-.601.13-1.14.39-1.619.26-.483.621-.86 1.083-1.132a2.941 2.941 0 011.545-.416c.445 0 .852.083 1.22.248.37.16.684.398.944.716l-.529.558a2.04 2.04 0 00-1.602-.734 2.168 2.168 0 00-1.953 1.167c-.19.36-.284.764-.284 1.212 0 .449.094.855.284 1.221a2.175 2.175 0 001.952 1.159c.635 0 1.17-.248 1.603-.743l.53.557c-.261.319-.578.56-.953.726a2.951 2.951 0 01-1.22.247zm4.78-3.971a1.39 1.39 0 01.603-.62c.266-.142.588-.212.968-.212v.822a1.404 1.404 0 00-.179-.008c-.423 0-.757.138-1 .415-.24.272-.359.66-.359 1.168v2.336h-.78v-4.69h.748v.788zm7.337-.788l-2.09 5.157c-.185.478-.402.814-.651 1.009-.244.195-.54.292-.887.292-.212 0-.418-.038-.618-.115a1.21 1.21 0 01-.488-.319l.333-.637c.222.23.48.345.773.345a.68.68 0 00.472-.168c.13-.106.247-.292.35-.557l.138-.327-1.904-4.68h.814l1.505 3.75 1.489-3.75h.764zm3.829-.044a2.055 2.055 0 011.895 1.141c.19.36.285.775.285 1.247 0 .472-.095.89-.285 1.256-.184.36-.442.64-.773.84-.33.201-.705.302-1.122.302a1.88 1.88 0 01-.854-.195 1.812 1.812 0 01-.651-.566v2.424h-.781v-6.405h.748v.743c.174-.26.393-.454.66-.584.265-.136.558-.203.878-.203zm-.065 4.043c.276 0 .523-.068.74-.204.222-.142.396-.336.52-.584a1.87 1.87 0 00.196-.867c0-.324-.065-.61-.195-.858a1.375 1.375 0 00-1.261-.787c-.271 0-.518.07-.74.212a1.455 1.455 0 00-.521.575 1.884 1.884 0 00-.187.858c0 .325.062.614.187.867.124.248.298.443.52.584.223.136.47.203.74.203zm6.562.415a1.187 1.187 0 01-.423.248c-.168.053-.342.08-.52.08-.435 0-.77-.127-1.01-.38-.238-.254-.358-.617-.358-1.089v-2.574h-.732v-.7h.732v-1.025h.782v1.026h1.236v.699h-1.236v2.539c0 .253.056.448.17.584.12.135.288.203.505.203a.893.893 0 00.61-.221l.244.61zm3.461.328a2.19 2.19 0 01-1.155-.31 2.196 2.196 0 01-.805-.85 2.648 2.648 0 01-.285-1.238c0-.46.095-.87.285-1.23a2.12 2.12 0 01.805-.849 2.19 2.19 0 011.155-.31c.429 0 .811.104 1.147.31.342.2.608.484.798.85.195.36.293.77.293 1.23 0 .46-.098.872-.293 1.238a2.148 2.148 0 01-1.944 1.159zm0-.743c.277 0 .524-.068.74-.204a1.44 1.44 0 00.521-.584 1.94 1.94 0 00.188-.867c0-.324-.063-.61-.188-.858a1.375 1.375 0 00-1.26-.787c-.277 0-.527.068-.749.203-.217.136-.39.33-.52.584a1.884 1.884 0 00-.188.858c0 .325.063.614.187.867.13.248.304.443.521.584.222.136.472.203.748.203zM39.99 45.02c.33.1.59.282.78.548.19.26.285.59.285.99 0 .537-.187.95-.561 1.24-.37.288-.909.433-1.62.433h-2.717v-6.193h2.555c.65 0 1.152.142 1.505.425.358.283.537.675.537 1.176 0 .325-.07.605-.212.84a1.37 1.37 0 01-.553.54zm-3.019-2.265v1.981h1.668c.417 0 .737-.082.96-.247.228-.171.341-.42.341-.744s-.113-.569-.341-.734c-.223-.17-.543-.256-.96-.256H36.97zm1.871 4.759c.461 0 .808-.083 1.041-.248.234-.165.35-.424.35-.778 0-.69-.463-1.035-1.39-1.035H36.97v2.061h1.871zm5.742-4.016c.597 0 1.052.159 1.367.477.32.319.48.794.48 1.425v2.83h-.74v-.619c-.13.219-.318.387-.562.505a1.994 1.994 0 01-.854.168c-.483 0-.87-.127-1.163-.38-.288-.254-.431-.588-.431-1 0-.413.138-.744.415-.991.276-.254.716-.38 1.318-.38h1.236v-.169c0-.365-.097-.645-.293-.84-.195-.195-.483-.292-.862-.292-.255 0-.505.047-.749.142-.244.088-.45.209-.618.362l-.325-.637c.222-.194.488-.342.797-.442.31-.106.637-.16.984-.16zm-.179 4.131c.299 0 .556-.07.773-.212.217-.148.375-.354.472-.62v-.654h-1.204c-.662 0-.992.242-.992.725 0 .236.084.422.252.557.168.136.401.204.7.204zm6.587-4.131c.548 0 .982.174 1.302.522.325.342.488.846.488 1.512v2.699h-.781V45.63c0-.454-.1-.797-.301-1.027-.2-.23-.488-.345-.862-.345-.423 0-.757.136-1.001.407-.244.266-.366.65-.366 1.15v2.416h-.781v-4.69h.748v.709c.158-.242.37-.428.635-.558.271-.13.578-.194.92-.194zm5.725 2.547l-.895.903v1.283h-.781v-6.565h.78v4.211l2.352-2.335h.944l-1.814 1.937 1.993 2.752h-.96l-1.62-2.186zm11.094-1.025c.331.1.592.282.781.548.19.26.285.59.285.99 0 .537-.187.95-.561 1.24-.369.288-.909.433-1.62.433H63.98v-6.193h2.554c.651 0 1.153.142 1.505.425.358.283.537.675.537 1.176 0 .325-.07.605-.211.84a1.37 1.37 0 01-.554.54zm-3.018-2.265v1.981h1.668c.418 0 .738-.082.96-.247.228-.171.342-.42.342-.744s-.114-.569-.342-.734c-.222-.17-.542-.256-.96-.256h-1.668zm1.871 4.759c.461 0 .808-.083 1.042-.248.233-.165.35-.424.35-.778 0-.69-.464-1.035-1.392-1.035h-1.87v2.061h1.87zm4.921-3.184c.136-.272.336-.478.602-.62.266-.142.588-.212.968-.212v.822a1.405 1.405 0 00-.179-.008c-.423 0-.757.138-1 .415-.24.272-.359.66-.359 1.168v2.336h-.78v-4.69h.748v.788zm7.203 1.583c0 .065-.005.15-.016.256h-3.498c.049.413.214.746.496 1 .287.248.643.372 1.066.372.515 0 .93-.19 1.244-.567l.432.549a1.91 1.91 0 01-.733.566c-.287.13-.61.195-.968.195-.455 0-.86-.1-1.212-.301a2.145 2.145 0 01-.822-.858 2.648 2.648 0 01-.284-1.239 2.7 2.7 0 01.276-1.23c.19-.365.448-.648.773-.849.331-.206.703-.31 1.115-.31.412 0 .778.104 1.098.31.325.2.578.484.757.85.184.365.276.784.276 1.256zm-2.131-1.699c-.374 0-.689.124-.944.372-.25.248-.396.572-.44.973h2.767c-.044-.395-.193-.717-.448-.964a1.259 1.259 0 00-.935-.38zm5.48-.716c.597 0 1.052.159 1.367.477.32.319.48.794.48 1.425v2.83h-.74v-.619c-.13.219-.318.387-.562.505a1.994 1.994 0 01-.854.168c-.483 0-.87-.127-1.163-.38-.288-.254-.431-.588-.431-1 0-.413.138-.744.414-.991.277-.254.716-.38 1.318-.38h1.237v-.169c0-.365-.098-.645-.293-.84-.195-.195-.483-.292-.862-.292-.255 0-.505.047-.749.142-.244.088-.45.209-.618.362l-.325-.637c.222-.194.488-.342.797-.442.309-.106.637-.16.984-.16zm-.179 4.131c.299 0 .556-.07.773-.212.217-.148.374-.354.472-.62v-.654h-1.204c-.662 0-.993.242-.993.725 0 .236.084.422.252.557.169.136.402.204.7.204zm5.961-1.584l-.895.903v1.283h-.781v-6.565h.78v4.211l2.352-2.335h.944l-1.815 1.937 1.993 2.752h-.96l-1.618-2.186zm7.864-.132c0 .065-.005.15-.016.256H92.27c.049.413.214.746.496 1 .288.248.643.372 1.066.372.515 0 .93-.19 1.245-.567l.43.549a1.897 1.897 0 01-.731.566c-.288.13-.61.195-.969.195-.455 0-.86-.1-1.212-.301a2.145 2.145 0 01-.821-.858 2.648 2.648 0 01-.285-1.239c0-.454.092-.864.277-1.23.19-.365.447-.648.772-.849.331-.206.703-.31 1.115-.31.412 0 .778.104 1.098.31.326.2.578.484.757.85.184.365.276.784.276 1.256zm-2.131-1.699c-.374 0-.689.124-.944.372-.25.248-.396.572-.439.973h2.766c-.043-.395-.193-.717-.447-.964a1.259 1.259 0 00-.936-.38zm4.778.116c.135-.272.336-.478.602-.62.266-.142.588-.212.968-.212v.822a1.405 1.405 0 00-.179-.008c-.423 0-.757.138-1 .415-.24.272-.359.66-.359 1.168v2.336h-.78v-4.69h.748v.788z" fill="#fff"/><path d="M39.389 11.26c0 .38-.191.674-.572.879a1.397 1.397 0 01-.396.088h-8.968c-.234 0-.468-.03-.703-.088-.352-.117-.615-.41-.791-.88h-6.594a5.533 5.533 0 00-.088.88h-7.65l-.043.44h7.913c-.03.205-.044.498-.044.88h-7.87v.22h1.627v.879h4.924v.44h3.56v.22H13.1v.44h1.759v.879h-.088v.66h-1.1v.88H11.43l.044.879h3.12v.22h2.55v.352c.03.117.045.293.045.528h-4.704v.22h3.78l.044.22h-2.77a.49.49 0 00.045.22h1.099c.03.146.102.366.22.659h4.66a1.73 1.73 0 00.263-.66.772.772 0 00.088-.22h3.21a.772.772 0 00.087-.22H22.2c0-.029.03-.102.088-.22h-4.22a.97.97 0 01.483-.483c.205-.088.498-.132.88-.132h8.967c.206 0 .381.058.528.176a.848.848 0 01.352.44h4.22a.75.75 0 01.088.22h1.055v.22h-3.253v.22c0 .293-.015.512-.044.659h.571a3.71 3.71 0 00-.088.66h1.1l-.089.44h4.484l-.175.88h-2.638l-.22.659h-1.978a3.417 3.417 0 00-.176.44c-.03.146-.088.293-.176.44h-2.55l-.22.44h4.309l-.132.22h-.703c-.235.41-.425.703-.572.879h.747l-.307.44h-.704l-.351.44h-1.231l-.44.44h.176l-.22.22h-.395c-.47.41-.836.703-1.1.879h2.33l-.703.44h-2.33c-.176.117-.44.264-.791.44h.264c-.44.234-1.129.527-2.067.88h.088c-1.084.38-2.388.674-3.912.879h.264a21.78 21.78 0 01-2.946.176 24.65 24.65 0 01-3.12-.176h-.265c-1.523-.206-2.842-.499-3.956-.88h-.088c-.85-.322-1.51-.616-1.978-.88h-.308c-.41-.234-.645-.38-.703-.44h2.33l-.616-.44H7.43a9.437 9.437 0 01-1.01-.879h.35l-.219-.22h-.176l-.395-.44h1.23l-.351-.44h.66l-.308-.44h-.748c-.146-.175-.337-.468-.571-.879h.747l-.132-.22H2.198l-.176-.44h2.506a9.13 9.13 0 01-.352-.88h1.978l-.22-.659h2.638a3.854 3.854 0 01-.22-.88H5.671a1.448 1.448 0 01-.088-.44h2.726a3.706 3.706 0 01-.088-.659H3.253l-.044-.66H2.066v-.22h2.77a.49.49 0 00-.044-.22H1.055a.49.49 0 01-.044-.22H5.76c0-.146-.015-.249-.044-.307v-.572h-2.55v-.22H.044L0 18.076h2.242v-.88h1.099v-.659h.088v-.88H1.67v-.44h10.594v-.22h-3.56v-.44H3.78v-.879H2.154v-.22h7.869c0-.38.015-.674.044-.88H2.154c0-.204.015-.351.044-.44h7.65v-.219c0-.293.014-.513.043-.66H1.055l.088-.88h2.77l.043-.44h-.22c.06-.351.118-.644.176-.879h-.131l.175-.66h-.79c.028-.146.102-.366.219-.66h.044c.117-.292.22-.512.308-.659h.703l.22-.44h-.088a4.37 4.37 0 01.483-.88h.088l.308-.44H3.693l.132-.22h.659c.234-.322.484-.615.747-.879h.396l.66-.66h-.968l1.1-.88h.747l.351-.219h.264a14.744 14.744 0 011.583-.88h.263a9.913 9.913 0 011.715-.66h.351c.118-.058.235-.102.352-.131.147-.03.279-.059.396-.088h-.132l.88-.22h.307A23.506 23.506 0 0118.288 0c1.582 0 3.18.161 4.791.484h-.308l.924.22h.131l.792.22h-.396c.674.205 1.26.425 1.759.66h-.264c.527.234 1.084.527 1.67.879h-.307l.176.088c.058.03.117.073.175.132h-.747c.176.088.572.381 1.187.88h.967l.66.66h-.396c-.03-.03.22.263.747.879h-.66l.133.22h1.758c.03.03.132.176.308.44H31.3c.117.176.205.337.264.483.087.147.16.279.22.396h.087l.22.44h-.747l.264.66h-.088l.22.66h.79l.177.66h-.66l.132.879h4.572c0 .205.015.352.044.44h-5.1l.044.88h7.65zm-14.376-.88a1.517 1.517 0 00-.22-.44h-4.571a3.42 3.42 0 00-.835-.88h.659c-.528-.322-1.187-.484-1.978-.484-.82 0-1.48.162-1.979.484h.132a2.85 2.85 0 00-.79.88h.263l-.22.44h-2.726c-.117.322-.19.615-.22.88h7.782l-.132-.309c-.147-.351-.22-.542-.22-.571h5.056zm-4.88 10.995h-.307l.132.308.176-.308zm-2.68.66l.395.44h2.462l.483-.44h-3.34zm5.23 1.055c.88 0 1.583-.205 2.11-.616H20.53c.528.411 1.246.616 2.155.616z" fill="#66DBE1"/><path d="M65.826 19.176h.264l.264.88H64.99l.132.88h-.352c0 .204.015.351.044.439h-3.253v.44h1.715v.22h.659l-.088.88h-.44l-.131.879h.747a3.91 3.91 0 01-.22.88h-.66c-.116.41-.22.703-.307.88H61.65c-.088.146-.19.366-.308.659h1.67l-.219.44h.703a8.006 8.006 0 01-.615.88h1.802l-.176.22h.66l-.22.22h1.1l-.177.22h-5.143l-.484.439h4.352l-.263.22h-1.275l-.967.66h-1.275a6.08 6.08 0 01-1.407.66h-.396c-.996.41-2.242.703-3.736.879h.088c-.85.117-1.876.176-3.078.176H37.252c-.264 0-.469-.059-.616-.176h-.087c-.323-.176-.513-.47-.572-.88h.44v-.66h1.23v-.66h1.276v-.22H34.57v-.439h5.1v-.22h-1.1v-.22h-.659v-.22H36.11v-.88h-.703v-.439H33.69v-.66h1.231v-.88h.66v-.879h-.748v-.88h1.539v-.88h1.626v-.22h-5.1v-.439h1.056v-.44h2.462v-.88h1.494v-.88h-.263v-.439h2.066v-.44h-3.21v-.66h-.57v-.88h.79v-.439h-2.769v-.66h2.462v-.66h-1.715v-.659h-3.78v-.88h3.516v-.66H38v-.22h-.66V11.7h-.922v-.66h.088v-.66h.879v-.22h-.967v-.44h.088V9.5h.879v-.88h-.967V8.4h-.748v-.66h3.869v-.879h-2.11v-.66h1.45v-.66h-1.89v-.44h-.879v-.439h.484v-1.54h.703v-.44h-.88v-.879h-.043v-.176c0-.264.073-.498.22-.703h.043a1.13 1.13 0 01.968-.484H52.2c1.846 0 3.531.161 5.055.484h-.044c.938.205 1.802.498 2.594.88h.088c.468.234.952.527 1.45.879h.924l.527.44h-.747c.205.176.483.469.835.88.117.146.264.366.44.659h-.44l.132.22h-.044l.132.22h.879l.22.44h1.89l.264.66h-1.45l.175.66h2.11c.059.175.117.468.176.879h-3.869l.044.66h3.078a.49.49 0 00.044.22h-2.418a6.1 6.1 0 01.044.879h1.714v.22h-.176c0 .205-.014.352-.044.44H62.97v.22h-.748c0 .146-.029.366-.087.66H60.64c-.03.146-.103.366-.22.66h4.484c-.03.146-.161.439-.396.879h.66l-.132.22H61.43a7.076 7.076 0 01-.483.66h-3.473c-.293.322-.586.615-.88.879h3.781c-.293.264-.6.484-.923.66h1.758l-.351.176c.205.088.513.249.923.483H59.32c.235.118.528.338.88.66h2.725l.483.44h-.79c.175.176.41.47.703.88h.527c.117.146.264.366.44.66h3.209l.22.44H65.65l.176.439zm-18.331-8.137h-.088v.66h.923v.308h3.693c.41 0 .762-.103 1.055-.308H48.55c.234-.176.425-.396.571-.66h1.451c.088-.146.161-.366.22-.66h.703v-.22h2.858v-.131c0-.147-.015-.25-.044-.308h.175a.49.49 0 00-.044-.22h-1.67a2.994 2.994 0 00-.396-.88h2.374l-.22-.22h-3.077a1.688 1.688 0 00-1.099-.395H46.66V8.4h.747v.22h.967v.88h-.88v.22h-.087v.44h.967v.22h-.88v.66zm6.066 9.896a2.074 2.074 0 00-.44-.88h1.363c-.322-.469-.82-.703-1.494-.703H48.9v.704h-1.494v.88h-2.462v.439H43.89v.44h5.1v.22h-1.627v.88h-1.539v.747h4.089c.703 0 1.23-.25 1.582-.748h.484c.176-.264.307-.557.395-.88h-.659a.49.49 0 00.044-.22H50c.029-.058.044-.16.044-.307v-.132h3.252l-.087-.44h.351z" fill="#66DBE1"/><path d="M98.11 19.176h.264l.263.88h-1.362l.131.88h-.351c0 .204.014.351.044.439h-3.254v.44h1.715v.22h.66l-.088.88h-.44l-.132.879h.747a3.805 3.805 0 01-.22.88h-.659c-.117.41-.22.703-.308.88h-1.187c-.088.146-.19.366-.307.659h1.67l-.22.44h.704a8.005 8.005 0 01-.616.88h1.803l-.176.22h.66l-.22.22h1.099l-.176.22H93.01l-.483.439h4.352l-.264.22H95.34l-.967.66h-1.275a6.082 6.082 0 01-1.406.66h-.396c-.997.41-2.242.703-3.737.879h.088c-.85.117-1.876.176-3.077.176H69.535c-.263 0-.468-.059-.615-.176h-.088c-.322-.176-.513-.47-.571-.88h.44v-.66h1.23v-.66h1.275v-.22h-4.352v-.439h5.1v-.22h-1.1v-.22h-.66v-.22h-1.802v-.88h-.703v-.439h-1.714v-.66h1.23v-.88h.66v-.879h-.747v-.88h1.538v-.88h1.627v-.22h-5.1v-.439h1.055v-.44H68.7v-.88h1.495v-.88h-.264v-.439h2.066v-.44h-3.209v-.66h-.571v-.88h.79v-.439h-2.769v-.66H68.7v-.66h-1.714v-.659h-3.78v-.88h3.516v-.66h3.56v-.22h-.659V11.7H68.7v-.66h.088v-.66h.88v-.22H68.7v-.44h.088V9.5h.88v-.88H68.7V8.4h-.747v-.66h3.868v-.879h-2.11v-.66h1.451v-.66h-1.89v-.44h-.88v-.439h.484v-1.54h.703v-.44H68.7v-.879h-.044v-.176c0-.264.073-.498.22-.703h.044a1.13 1.13 0 01.967-.484h14.595c1.846 0 3.531.161 5.055.484h-.044c.938.205 1.803.498 2.594.88h.088c.469.234.953.527 1.45.879h.924l.527.44h-.747c.205.176.484.469.835.88.118.146.264.366.44.659h-.44l.132.22h-.044l.132.22h.88l.22.44h1.89l.263.66h-1.45l.175.66h2.11c.06.175.118.468.176.879H95.78l.044.66H98.9a.49.49 0 00.044.22h-2.418c.03.175.044.469.044.879h1.715v.22h-.176c0 .205-.015.352-.044.44h-2.814v.22h-.747c0 .146-.03.366-.088.66h-1.495a4.153 4.153 0 01-.22.66h4.484c-.029.146-.16.439-.395.879h.66l-.133.22h-3.604a6.84 6.84 0 01-.484.66h-3.473a12.56 12.56 0 01-.879.879h3.78c-.293.264-.6.484-.923.66h1.759l-.352.176c.205.088.513.249.923.483h-2.461c.234.118.527.338.879.66h2.725l.484.44H94.9c.175.176.41.47.703.88h.528c.117.146.263.366.44.66h3.208l.22.44h-2.066l.176.439zm-18.332-8.137h-.088v.66h.924v.308h3.692c.41 0 .762-.103 1.055-.308h-4.528c.235-.176.425-.396.572-.66h1.45c.088-.146.162-.366.22-.66h.704v-.22h2.857v-.131c0-.147-.015-.25-.044-.308h.176a.49.49 0 00-.044-.22h-1.67a2.995 2.995 0 00-.396-.88h2.374l-.22-.22h-3.077a1.688 1.688 0 00-1.1-.395h-3.692V8.4h.747v.22h.967v.88h-.879v.22h-.088v.44h.967v.22h-.879v.66zm6.067 9.896a2.074 2.074 0 00-.44-.88h1.363c-.323-.469-.82-.703-1.495-.703h-4.088v.704H79.69v.88h-2.462v.439h-1.054v.44h5.099v.22h-1.627v.88h-1.538v.747h4.088c.703 0 1.23-.25 1.583-.748h.483a2.99 2.99 0 00.396-.88h-.66a.49.49 0 00.044-.22h-1.758c.03-.058.044-.16.044-.307v-.132h3.253l-.088-.44h.352z" fill="#66DBE1"/></svg>