<svg width="48" height="60" fill="none" xmlns="http://www.w3.org/2000/svg"><path d="M1.989 4.486c0-.586.469-1.06 1.047-1.06s1.047.475 1.047 1.06c0 .585-.469 1.06-1.047 1.06a1.054 1.054 0 01-1.047-1.06zm26.517 48.526c-.579 0-1.048.475-1.048 1.06 0 .585.469 1.06 1.048 1.06.578 0 1.047-.475 1.047-1.06 0-.585-.47-1.06-1.047-1.06zm13.848 3.4c.604 1.223.112 2.715-1.095 3.326a2.434 2.434 0 01-3.286-1.109l-6.628-13.42a21.198 21.198 0 01-9.794 2.394c-3.526 0-6.853-.867-9.794-2.393L5.129 58.629a2.434 2.434 0 01-3.284 1.11c-1.21-.612-1.7-2.104-1.097-3.328l6.9-13.973A21.884 21.884 0 010 25.785C0 13.755 9.668 3.967 21.551 3.967c5.59 0 10.689 2.167 14.523 5.713l3.105-3.144-.029-2.557a.998.998 0 01.287-.713L42.376.29a.97.97 0 011.062-.218c.365.15.605.508.61.907l.022 1.973 1.949.022a.98.98 0 01.895.618 1 1 0 01-.214 1.075l-2.939 2.975a.975.975 0 01-.692.29h-.012l-2.46-.027-3.138 3.176a21.883 21.883 0 015.643 14.703c0 6.67-2.975 12.647-7.649 16.653l6.901 13.973zM21.551 45.618c10.803 0 19.592-8.898 19.592-19.834 0-5.112-1.937-9.763-5.085-13.284l-1.385 1.402a17.88 17.88 0 014.51 11.882c0 9.843-7.91 17.85-17.632 17.85-9.722 0-17.633-8.007-17.633-17.85 0-9.843 7.91-17.851 17.633-17.851 4.51 0 8.615 1.737 11.737 4.567l1.385-1.402C31.194 7.91 26.6 5.95 21.55 5.95c-10.802 0-19.59 8.898-19.59 19.835 0 10.936 8.789 19.834 19.592 19.834zm2.875-20.42l-1.585.535a.972.972 0 01-1.003-.24 1 1 0 01-.236-1.014l.529-1.607a2.907 2.907 0 00-.58-.063c-1.62 0-2.939 1.335-2.939 2.975 0 1.64 1.319 2.975 2.94 2.975 1.62 0 2.938-1.334 2.938-2.975 0-.2-.026-.394-.064-.586zm.716-4.453l1.206-1.22a7.73 7.73 0 00-4.797-1.675c-4.321 0-7.837 3.56-7.837 7.934 0 4.375 3.516 7.934 7.837 7.934s7.837-3.56 7.837-7.934a7.95 7.95 0 00-1.654-4.857l-1.206 1.22.614.622a1 1 0 01.26.929.988.988 0 01-.643.713l-.464.157c.099.395.154.8.154 1.216 0 2.734-2.198 4.959-4.898 4.959-2.7 0-4.898-2.225-4.898-4.959 0-2.734 2.197-4.959 4.898-4.959.411 0 .812.057 1.202.157l.154-.47a.973.973 0 011.622-.388l.613.621zm3.992-4.04a11.611 11.611 0 00-7.583-2.822c-6.482 0-11.755 5.339-11.755 11.9 0 6.563 5.273 11.901 11.755 11.901 6.482 0 11.755-5.338 11.755-11.9 0-2.925-1.052-5.602-2.787-7.677l-1.388 1.405a9.943 9.943 0 012.216 6.272c0 5.469-4.395 9.917-9.796 9.917s-9.796-4.448-9.796-9.917c0-5.468 4.395-9.917 9.796-9.917a9.67 9.67 0 016.195 2.243l1.388-1.405zm2.769-2.804c-2.764-2.471-6.383-3.985-10.352-3.985-8.642 0-15.673 7.119-15.673 15.868 0 8.75 7.03 15.867 15.673 15.867 8.642 0 15.674-7.118 15.674-15.867 0-4.019-1.495-7.682-3.937-10.48l-1.385 1.401a13.911 13.911 0 013.362 9.079c0 7.656-6.152 13.884-13.714 13.884S7.837 33.441 7.837 25.785c0-7.656 6.152-13.884 13.714-13.884 3.43 0 6.56 1.29 8.967 3.403l1.385-1.402zm15.033 30.23l.777-.787a1 1 0 000-1.402.97.97 0 00-1.385 0l-.777.786-.777-.786a.97.97 0 00-1.385 0 1 1 0 000 1.402l.777.787-.777.786a1 1 0 000 1.402.97.97 0 001.385 0l.777-.786.777.786a.97.97 0 001.385 0 1 1 0 000-1.402l-.777-.786z" fill="url(#paint0_linear)"/><defs><linearGradient id="paint0_linear" x1="-2.513" y1="51.917" x2="47.839" y2="9.295" gradientUnits="userSpaceOnUse"><stop stop-color="#66DBE1"/><stop offset="1" stop-color="#fff"/></linearGradient></defs></svg>