<svg width="56" height="60" fill="none" xmlns="http://www.w3.org/2000/svg"><path d="M12.616 56.157c0 .686-.55 1.243-1.228 1.243a1.236 1.236 0 01-1.229-1.243c0-.687.55-1.244 1.229-1.244.678 0 1.228.557 1.228 1.244zm29.14-53.67c.679 0 1.229-.557 1.229-1.243 0-.687-.55-1.244-1.228-1.244-.679 0-1.229.557-1.229 1.244 0 .686.55 1.243 1.229 1.243zm13.016 13.987c-.678 0-1.229.557-1.229 1.244 0 .686.55 1.243 1.229 1.243.678 0 1.228-.557 1.228-1.243 0-.687-.55-1.244-1.228-1.244zM4.919 50.548a1.075 1.075 0 00-1.534 0l-.767.776-.767-.776a1.075 1.075 0 00-1.533 0 1.108 1.108 0 000 1.553l.766.776-.766.777a1.108 1.108 0 000 1.553 1.075 1.075 0 001.533 0l.767-.777.767.777a1.075 1.075 0 001.534 0 1.108 1.108 0 000-1.553l-.767-.777.767-.776a1.108 1.108 0 000-1.553zM50.827 4.76L48.99 41.045a4.766 4.766 0 01-1.902 3.6l-20.35 15.142a1.072 1.072 0 01-1.282.002L4.985 44.646a4.764 4.764 0 01-1.914-3.608L1.233 4.76c-.018-.367.146-.72.437-.938.292-.22.673-.275 1.012-.152 2.513.914 5.796 1.417 9.248 1.417 6.805 0 11.882-1.936 12.857-3.807.189-.36.557-.586.96-.586h.565c.403 0 .772.226.96.586.976 1.871 6.052 3.807 12.857 3.807 3.452 0 6.736-.503 9.248-1.417.34-.123.721-.067 1.012.151.292.22.456.572.438.939zm-10.5 34.518c.375-.28.604-.716.628-1.2l1.267-24.996c-1.75.444-3.78.682-5.873.682-3.914 0-8.316-.879-10.32-2.815-2.002 1.936-6.404 2.815-10.318 2.815-2.093 0-4.123-.238-5.873-.682l1.267 24.992c.024.485.254.923.631 1.202l14.34 10.606 14.252-10.604zM6.265 42.874l18.681 13.818v-4.925L10.457 41.05a3.784 3.784 0 01-1.52-2.863L7.62 12.16 3.572 8.062l1.666 32.865c.04.783.413 1.493 1.026 1.947zM48.488 8.06l-4.048 4.1-1.319 26.03a3.783 3.783 0 01-1.51 2.858L27.115 51.835v4.945l18.688-13.905a2.568 2.568 0 001.019-1.943l1.666-32.87z" fill="url(#paint0_linear)"/><defs><linearGradient id="paint0_linear" x1="-2.931" y1="51.917" x2="48.117" y2="1.504" gradientUnits="userSpaceOnUse"><stop stop-color="#66DBE1"/><stop offset=".292" stop-color="#6CDCE2"/><stop offset="1" stop-color="#fff"/></linearGradient></defs></svg>