<svg width="100" height="50" viewBox="0 0 100 50" fill="none" xmlns="http://www.w3.org/2000/svg">
<path d="M3.01007 48.3013C2.4406 48.3013 1.92536 48.1657 1.46436 47.8944C1.00878 47.6172 0.650827 47.2398 0.390496 46.762C0.130165 46.2784 0 45.7359 0 45.1343C0 44.5327 0.130165 43.9931 0.390496 43.5154C0.650827 43.0318 1.01149 42.6544 1.4725 42.3831C1.9335 42.1059 2.44873 41.9673 3.01821 41.9673C3.46294 41.9673 3.86971 42.0498 4.23851 42.215C4.60731 42.3742 4.92188 42.6131 5.18221 42.9315L4.65341 43.4889C4.22495 42.9994 3.69073 42.7546 3.05075 42.7546C2.62771 42.7546 2.24535 42.8578 1.90367 43.0642C1.56198 43.2707 1.29352 43.5567 1.09827 43.9223C0.908445 44.2821 0.813533 44.6861 0.813533 45.1343C0.813533 45.5825 0.908445 45.9895 1.09827 46.3551C1.29352 46.7149 1.56198 46.998 1.90367 47.2044C2.24535 47.4108 2.62771 47.514 3.05075 47.514C3.68531 47.514 4.21953 47.2663 4.65341 46.7709L5.18221 47.3282C4.92188 47.6467 4.6046 47.8885 4.23037 48.0536C3.86157 48.2188 3.4548 48.3013 3.01007 48.3013Z" fill="white"/>
<path d="M7.79085 44.3293C7.92644 44.058 8.12711 43.8516 8.39287 43.71C8.65862 43.5685 8.98132 43.4977 9.36097 43.4977V44.3204C9.31758 44.3145 9.25792 44.3116 9.18199 44.3116C8.75896 44.3116 8.42541 44.4502 8.18135 44.7274C7.94271 44.9987 7.82339 45.3879 7.82339 45.8951V48.2306H7.0424V43.5419H7.79085V44.3293Z" fill="white"/>
<path d="M15.1273 43.5419L13.0365 48.6994C12.8521 49.1771 12.6352 49.5133 12.3857 49.7079C12.1417 49.9025 11.8461 49.9998 11.499 49.9998C11.2875 49.9998 11.0814 49.9615 10.8807 49.8848C10.6854 49.8141 10.5227 49.7079 10.3926 49.5664L10.7261 48.9294C10.9485 49.1594 11.2061 49.2744 11.499 49.2744C11.6888 49.2744 11.8461 49.2184 11.9708 49.1063C12.101 49.0002 12.2176 48.8144 12.3206 48.549L12.4589 48.2217L10.5553 43.5419H11.3688L12.8738 47.2928L14.3626 43.5419H15.1273Z" fill="white"/>
<path d="M18.9558 43.4977C19.3734 43.4977 19.7476 43.598 20.0784 43.7985C20.4093 43.999 20.6669 44.2791 20.8513 44.6389C21.0411 44.9987 21.136 45.4144 21.136 45.8863C21.136 46.3581 21.0411 46.7768 20.8513 47.1424C20.6669 47.5022 20.4093 47.7823 20.0784 47.9829C19.7476 48.1834 19.3734 48.2836 18.9558 48.2836C18.6466 48.2836 18.3619 48.2188 18.1016 48.089C17.8467 47.9593 17.6297 47.7705 17.4507 47.5228V49.9468H16.6697V43.5419H17.4182V44.285C17.5917 44.0256 17.8114 43.8309 18.0772 43.7012C18.3429 43.5655 18.6358 43.4977 18.9558 43.4977ZM18.8907 47.5405C19.1673 47.5405 19.4141 47.4727 19.631 47.3371C19.8534 47.1955 20.0269 47.0009 20.1517 46.7532C20.2818 46.4996 20.3469 46.2106 20.3469 45.8863C20.3469 45.5619 20.2818 45.2758 20.1517 45.0281C20.0269 44.7745 19.8534 44.5799 19.631 44.4443C19.4141 44.3086 19.1673 44.2408 18.8907 44.2408C18.6195 44.2408 18.3727 44.3116 18.1504 44.4531C17.9334 44.5888 17.7599 44.7804 17.6297 45.0281C17.505 45.2758 17.4426 45.5619 17.4426 45.8863C17.4426 46.2106 17.505 46.4996 17.6297 46.7532C17.7544 47.0009 17.928 47.1955 18.1504 47.3371C18.3727 47.4727 18.6195 47.5405 18.8907 47.5405Z" fill="white"/>
<path d="M25.453 47.9563C25.3391 48.0625 25.1981 48.145 25.0299 48.204C24.8618 48.2571 24.6883 48.2836 24.5093 48.2836C24.0754 48.2836 23.7391 48.1568 23.5005 47.9032C23.2619 47.6496 23.1425 47.2869 23.1425 46.8151V44.2408H22.4104V43.5419H23.1425V42.5158H23.9235V43.5419H25.1601V44.2408H23.9235V46.7797C23.9235 47.0333 23.9805 47.228 24.0944 47.3636C24.2137 47.4992 24.3818 47.5671 24.5988 47.5671C24.8374 47.5671 25.0408 47.4934 25.2089 47.3459L25.453 47.9563Z" fill="white"/>
<path d="M28.9144 48.2836C28.486 48.2836 28.1009 48.1804 27.7592 47.974C27.4175 47.7676 27.1491 47.4845 26.9538 47.1247C26.764 46.7591 26.6691 46.3463 26.6691 45.8863C26.6691 45.4262 26.764 45.0164 26.9538 44.6566C27.1491 44.2909 27.4175 44.0079 27.7592 43.8073C28.1009 43.6009 28.486 43.4977 28.9144 43.4977C29.3429 43.4977 29.7253 43.6009 30.0615 43.8073C30.4032 44.0079 30.6689 44.2909 30.8588 44.6566C31.054 45.0164 31.1516 45.4262 31.1516 45.8863C31.1516 46.3463 31.054 46.7591 30.8588 47.1247C30.6689 47.4845 30.4032 47.7676 30.0615 47.974C29.7253 48.1804 29.3429 48.2836 28.9144 48.2836ZM28.9144 47.5405C29.191 47.5405 29.4378 47.4727 29.6547 47.3371C29.8771 47.1955 30.0507 47.0009 30.1754 46.7532C30.3001 46.4996 30.3625 46.2106 30.3625 45.8863C30.3625 45.5619 30.3001 45.2758 30.1754 45.0281C30.0507 44.7745 29.8771 44.5799 29.6547 44.4443C29.4378 44.3086 29.191 44.2408 28.9144 44.2408C28.6378 44.2408 28.3883 44.3086 28.166 44.4443C27.949 44.5799 27.7755 44.7745 27.6453 45.0281C27.5206 45.2758 27.4582 45.5619 27.4582 45.8863C27.4582 46.2106 27.5206 46.4996 27.6453 46.7532C27.7755 47.0009 27.949 47.1955 28.166 47.3371C28.3883 47.4727 28.6378 47.5405 28.9144 47.5405Z" fill="white"/>
<path d="M39.9892 45.0193C40.3201 45.1196 40.5804 45.3024 40.7702 45.5678C40.96 45.8273 41.055 46.1575 41.055 46.5586C41.055 47.0953 40.8678 47.5081 40.4936 47.7971C40.1248 48.0861 39.5852 48.2306 38.8747 48.2306H36.1575V42.0381H38.712C39.3628 42.0381 39.8645 42.1796 40.217 42.4627C40.575 42.7458 40.7539 43.138 40.7539 43.6393C40.7539 43.9636 40.6834 44.2438 40.5424 44.4797C40.4068 44.7156 40.2224 44.8955 39.9892 45.0193ZM36.971 42.7546V44.7362H38.6388C39.0564 44.7362 39.3764 44.6536 39.5987 44.4885C39.8265 44.3175 39.9404 44.0698 39.9404 43.7454C39.9404 43.421 39.8265 43.1763 39.5987 43.0112C39.3764 42.8401 39.0564 42.7546 38.6388 42.7546H36.971ZM38.8421 47.514C39.3031 47.514 39.6502 47.4314 39.8835 47.2663C40.1167 47.1012 40.2333 46.8417 40.2333 46.4878C40.2333 45.7978 39.7696 45.4528 38.8421 45.4528H36.971V47.514H38.8421Z" fill="white"/>
<path d="M44.5844 43.4977C45.1809 43.4977 45.6365 43.657 45.9511 43.9754C46.2711 44.2939 46.4311 44.7687 46.4311 45.3997V48.2306H45.6908V47.6113C45.5606 47.8295 45.3735 47.9976 45.1294 48.1155C44.8908 48.2276 44.606 48.2836 44.2752 48.2836C43.7925 48.2836 43.4047 48.1568 43.1119 47.9032C42.8244 47.6496 42.6807 47.3164 42.6807 46.9036C42.6807 46.4908 42.819 46.1605 43.0956 45.9128C43.3722 45.6592 43.8115 45.5324 44.4135 45.5324H45.6501V45.3643C45.6501 44.9987 45.5525 44.7185 45.3572 44.5239C45.162 44.3293 44.8745 44.232 44.4949 44.232C44.24 44.232 43.9905 44.2791 43.7464 44.3735C43.5023 44.462 43.2963 44.5829 43.1281 44.7362L42.8027 44.0993C43.0251 43.9047 43.2908 43.7572 43.6 43.657C43.9091 43.5508 44.2372 43.4977 44.5844 43.4977ZM44.4054 47.629C44.7037 47.629 44.9613 47.5582 45.1782 47.4167C45.3952 47.2692 45.5525 47.0628 45.6501 46.7974V46.1428H44.446C43.7844 46.1428 43.4535 46.3846 43.4535 46.8682C43.4535 47.1041 43.5376 47.2899 43.7057 47.4255C43.8739 47.5612 44.1071 47.629 44.4054 47.629Z" fill="white"/>
<path d="M50.9922 43.4977C51.54 43.4977 51.9739 43.6717 52.2938 44.0197C52.6193 44.3617 52.782 44.866 52.782 45.5324V48.2306H52.001V45.6297C52.001 45.1756 51.9006 44.8335 51.7 44.6035C51.4993 44.3735 51.2118 44.2585 50.8376 44.2585C50.4146 44.2585 50.081 44.3942 49.837 44.6654C49.5929 44.9308 49.4709 45.3142 49.4709 45.8155V48.2306H48.6899V43.5419H49.4383V44.2497C49.5956 44.0079 49.8071 43.8221 50.0729 43.6923C50.3441 43.5626 50.6505 43.4977 50.9922 43.4977Z" fill="white"/>
<path d="M56.7167 46.0455L55.8218 46.9478V48.2306H55.0409V41.6665H55.8218V45.8774L58.173 43.5419H59.1167L57.3025 45.4793L59.2956 48.2306H58.3357L56.7167 46.0455Z" fill="white"/>
<path d="M67.8114 45.0193C68.1423 45.1196 68.4026 45.3024 68.5924 45.5678C68.7822 45.8273 68.8772 46.1575 68.8772 46.5586C68.8772 47.0953 68.69 47.5081 68.3158 47.7971C67.947 48.0861 67.4074 48.2306 66.6969 48.2306H63.9797V42.0381H66.5342C67.185 42.0381 67.6867 42.1796 68.0392 42.4627C68.3972 42.7458 68.5761 43.138 68.5761 43.6393C68.5761 43.9636 68.5056 44.2438 68.3646 44.4797C68.229 44.7156 68.0446 44.8955 67.8114 45.0193ZM64.7932 42.7546V44.7362H66.461C66.8786 44.7362 67.1986 44.6536 67.4209 44.4885C67.6487 44.3175 67.7626 44.0698 67.7626 43.7454C67.7626 43.421 67.6487 43.1763 67.4209 43.0112C67.1986 42.8401 66.8786 42.7546 66.461 42.7546H64.7932ZM66.6643 47.514C67.1253 47.514 67.4725 47.4314 67.7057 47.2663C67.9389 47.1012 68.0555 46.8417 68.0555 46.4878C68.0555 45.7978 67.5918 45.4528 66.6643 45.4528H64.7932V47.514H66.6643Z" fill="white"/>
<path d="M71.5849 44.3293C71.7205 44.058 71.9211 43.8516 72.1869 43.71C72.4526 43.5685 72.7753 43.4977 73.155 43.4977V44.3204C73.1116 44.3145 73.0519 44.3116 72.976 44.3116C72.553 44.3116 72.2194 44.4502 71.9754 44.7274C71.7367 44.9987 71.6174 45.3879 71.6174 45.8951V48.2306H70.8364V43.5419H71.5849V44.3293Z" fill="white"/>
<path d="M78.7882 45.9128C78.7882 45.9777 78.7828 46.0632 78.7719 46.1693H75.2737C75.3226 46.5822 75.488 46.9154 75.77 47.169C76.0574 47.4167 76.4127 47.5405 76.8357 47.5405C77.351 47.5405 77.7659 47.3518 78.0804 46.9744L78.5116 47.5228C78.3164 47.7705 78.0723 47.9593 77.7794 48.089C77.492 48.2188 77.1693 48.2836 76.8113 48.2836C76.3557 48.2836 75.9517 48.1834 75.5992 47.9829C75.2466 47.7764 74.9727 47.4904 74.7775 47.1247C74.5877 46.7591 74.4928 46.3463 74.4928 45.8863C74.4928 45.4321 74.5849 45.0222 74.7693 44.6566C74.9592 44.2909 75.2168 44.0079 75.5422 43.8073C75.873 43.6009 76.2446 43.4977 76.6567 43.4977C77.0689 43.4977 77.435 43.6009 77.755 43.8073C78.0804 44.0079 78.3326 44.2909 78.5116 44.6566C78.696 45.0222 78.7882 45.441 78.7882 45.9128ZM76.6567 44.2143C76.2825 44.2143 75.968 44.3381 75.7131 44.5858C75.4636 44.8335 75.3171 45.1579 75.2737 45.5589H78.0398C77.9964 45.1638 77.8472 44.8424 77.5923 44.5947C77.3428 44.3411 77.031 44.2143 76.6567 44.2143Z" fill="white"/>
<path d="M82.1372 43.4977C82.7338 43.4977 83.1893 43.657 83.5039 43.9754C83.8239 44.2939 83.9839 44.7687 83.9839 45.3997V48.2306H83.2436V47.6113C83.1134 47.8295 82.9263 47.9976 82.6822 48.1155C82.4436 48.2276 82.1589 48.2836 81.828 48.2836C81.3453 48.2836 80.9575 48.1568 80.6647 47.9032C80.3772 47.6496 80.2335 47.3164 80.2335 46.9036C80.2335 46.4908 80.3718 46.1605 80.6484 45.9128C80.925 45.6592 81.3643 45.5324 81.9663 45.5324H83.2029V45.3643C83.2029 44.9987 83.1053 44.7185 82.91 44.5239C82.7148 44.3293 82.4273 44.232 82.0477 44.232C81.7928 44.232 81.5433 44.2791 81.2992 44.3735C81.0552 44.462 80.8491 44.5829 80.6809 44.7362L80.3555 44.0993C80.5779 43.9047 80.8437 43.7572 81.1528 43.657C81.4619 43.5508 81.7901 43.4977 82.1372 43.4977ZM81.9582 47.629C82.2565 47.629 82.5141 47.5582 82.731 47.4167C82.948 47.2692 83.1053 47.0628 83.2029 46.7974V46.1428H81.9989C81.3372 46.1428 81.0064 46.3846 81.0064 46.8682C81.0064 47.1041 81.0904 47.2899 81.2585 47.4255C81.4267 47.5612 81.6599 47.629 81.9582 47.629Z" fill="white"/>
<path d="M87.9186 46.0455L87.0237 46.9478V48.2306H86.2427V41.6665H87.0237V45.8774L89.3748 43.5419H90.3185L88.5043 45.4793L90.4975 48.2306H89.5375L87.9186 46.0455Z" fill="white"/>
<path d="M95.7834 45.9128C95.7834 45.9777 95.778 46.0632 95.7671 46.1693H92.269C92.3178 46.5822 92.4832 46.9154 92.7652 47.169C93.0527 47.4167 93.4079 47.5405 93.8309 47.5405C94.3462 47.5405 94.7611 47.3518 95.0756 46.9744L95.5068 47.5228C95.3116 47.7705 95.0675 47.9593 94.7746 48.089C94.4872 48.2188 94.1645 48.2836 93.8065 48.2836C93.351 48.2836 92.9469 48.1834 92.5944 47.9829C92.2418 47.7764 91.9679 47.4904 91.7727 47.1247C91.5829 46.7591 91.488 46.3463 91.488 45.8863C91.488 45.4321 91.5802 45.0222 91.7646 44.6566C91.9544 44.2909 92.212 44.0079 92.5374 43.8073C92.8683 43.6009 93.2398 43.4977 93.652 43.4977C94.0642 43.4977 94.4302 43.6009 94.7502 43.8073C95.0756 44.0079 95.3278 44.2909 95.5068 44.6566C95.6912 45.0222 95.7834 45.441 95.7834 45.9128ZM93.652 44.2143C93.2777 44.2143 92.9632 44.3381 92.7083 44.5858C92.4588 44.8335 92.3123 45.1579 92.269 45.5589H95.035C94.9916 45.1638 94.8424 44.8424 94.5875 44.5947C94.338 44.3411 94.0262 44.2143 93.652 44.2143Z" fill="white"/>
<path d="M98.4299 44.3293C98.5655 44.058 98.7661 43.8516 99.0319 43.71C99.2976 43.5685 99.6204 43.4977 100 43.4977V44.3204C99.9566 44.3145 99.8969 44.3116 99.821 44.3116C99.398 44.3116 99.0644 44.4502 98.8204 44.7274C98.5817 44.9987 98.4624 45.3879 98.4624 45.8951V48.2306H97.6814V43.5419H98.4299V44.3293Z" fill="white"/>
<path d="M39.3885 11.2593C39.3885 11.6404 39.198 11.9336 38.8171 12.1389C38.6412 12.1975 38.5093 12.2269 38.4214 12.2269H29.4535C29.219 12.2269 28.9846 12.1975 28.7501 12.1389C28.3984 12.0216 28.1347 11.7284 27.9588 11.2593H21.3648C21.3062 11.6111 21.2768 11.9043 21.2768 12.1389H13.6277L13.5838 12.5787H21.4966C21.4673 12.7839 21.4527 13.0772 21.4527 13.4583H13.5838V13.6782H15.2103V14.5579H20.1339V14.9977H23.6947V15.2176H13.1002V15.6574H14.8586V16.537H14.7707V17.1968H13.6717V18.0764H11.4297L11.4737 18.956H14.5949V19.1759H17.1446V19.5278C17.1739 19.6451 17.1885 19.821 17.1885 20.0556H12.4848V20.2755H16.2654L16.3093 20.4954H13.5398C13.5398 20.5833 13.5545 20.6566 13.5838 20.7153H14.6828C14.7121 20.8619 14.7854 21.0818 14.9026 21.375H19.5624C19.7089 21.1404 19.7968 20.9205 19.8262 20.7153C19.8848 20.598 19.9141 20.5247 19.9141 20.4954H23.1232C23.1818 20.3781 23.2111 20.3048 23.2111 20.2755H22.2C22.2 20.2461 22.2293 20.1728 22.2879 20.0556H18.0677C18.185 19.821 18.3462 19.6597 18.5513 19.5718C18.7564 19.4838 19.0495 19.4398 19.4305 19.4398H28.3984C28.6036 19.4398 28.7794 19.4985 28.926 19.6157C29.1018 19.733 29.219 19.8796 29.2776 20.0556H33.4978C33.5565 20.1728 33.5858 20.2461 33.5858 20.2755H34.6408V20.4954H31.3877V20.7153C31.3877 21.0085 31.3731 21.2284 31.3438 21.375H31.9153C31.8567 21.6682 31.8273 21.8881 31.8273 22.0347H32.9264L32.8384 22.4745H37.3224L37.1466 23.3542H34.5089L34.2891 24.0139H32.3109C32.2523 24.1312 32.1937 24.2778 32.1351 24.4537C32.1058 24.6003 32.0471 24.7469 31.9592 24.8935H29.4095L29.1897 25.3333H33.4978L33.366 25.5532H32.6626C32.4281 25.9637 32.2376 26.2569 32.0911 26.4329H32.8384L32.5307 26.8727H31.8273L31.4757 27.3125H30.2448L29.8052 27.7523H29.981C29.8345 27.8989 29.7612 27.9722 29.7612 27.9722H29.3656C28.8967 28.3827 28.5303 28.6759 28.2666 28.8519H30.5965L29.8931 29.2917H27.5632C27.3873 29.4089 27.1236 29.5556 26.7719 29.7315H27.0357C26.5961 29.966 25.9073 30.2593 24.9695 30.6111H25.0574C23.9731 30.9923 22.6689 31.2855 21.145 31.4907H21.4087C20.5588 31.608 19.577 31.6667 18.4634 31.6667C17.2911 31.6667 16.2507 31.608 15.3422 31.4907H15.0784C13.5545 31.2855 12.2357 30.9923 11.122 30.6111H11.0341C10.1842 30.2886 9.52476 29.9954 9.05585 29.7315H8.74813C8.33783 29.4969 8.10337 29.3503 8.04476 29.2917H10.3747L9.75921 28.8519H7.42931C7.07763 28.588 6.7406 28.2948 6.41822 27.9722H6.76991L6.5501 27.7523H6.37426L5.97862 27.3125H7.20951L6.85783 26.8727H7.51723L7.20951 26.4329H6.46218C6.31565 26.2569 6.12515 25.9637 5.8907 25.5532H6.63802L6.50614 25.3333H2.19802L2.02218 24.8935H4.52792C4.38139 24.571 4.26416 24.2778 4.17624 24.0139H6.15446L5.93466 23.3542H8.57228C8.45506 23.0316 8.38179 22.7384 8.35248 22.4745H5.67089C5.61228 22.2986 5.58297 22.152 5.58297 22.0347H8.30852C8.24991 21.7415 8.2206 21.5216 8.2206 21.375H3.25307L3.20911 20.7153H2.06614V20.4954H4.83565C4.83565 20.4074 4.82099 20.3341 4.79169 20.2755H1.05505C1.02574 20.2168 1.01109 20.1435 1.01109 20.0556H5.75882C5.75882 19.9089 5.74416 19.8063 5.71486 19.7477V19.1759H3.16515V18.956H0.0439605L0 18.0764H2.24198V17.1968H3.34099V16.537H3.42891V15.6574H1.6705V15.2176H12.265V14.9977H8.70416V14.5579H3.7806V13.6782H2.15406V13.4583H10.023C10.023 13.0772 10.0376 12.7839 10.0669 12.5787H2.15406C2.15406 12.3735 2.16871 12.2269 2.19802 12.1389H9.84713V11.919C9.84713 11.6258 9.86179 11.4059 9.8911 11.2593H1.05505L1.14297 10.3796H3.91248L3.95644 9.93981H3.73664C3.79525 9.58796 3.85386 9.29475 3.91248 9.06019H3.7806L3.95644 8.40046H3.16515C3.19446 8.25386 3.26772 8.03395 3.38495 7.74074H3.42891C3.54614 7.44753 3.64872 7.22762 3.73664 7.08102H4.44L4.6598 6.6412H4.57188C4.68911 6.34799 4.8503 6.05478 5.05545 5.76157H5.14337L5.45109 5.32176H3.69268L3.82456 5.10185H4.48396C4.71842 4.77932 4.96753 4.48611 5.23129 4.22222H5.62693L6.28634 3.5625H5.31921L6.41822 2.68287H7.16555L7.51723 2.46296H7.781C8.33783 2.11111 8.86535 1.8179 9.36357 1.58333H9.62733C10.1549 1.31944 10.7263 1.09954 11.3418 0.923612H11.6935C11.8107 0.864969 11.9279 0.820987 12.0452 0.791667C12.1917 0.762346 12.3236 0.733026 12.4408 0.703705H12.3089L13.1881 0.483795H13.4959C15.0491 0.161265 16.6463 0 18.2875 0C19.8701 0 21.4673 0.161265 23.0792 0.483795H22.7715L23.6947 0.703705H23.8265L24.6178 0.923612H24.2222C24.8963 1.12886 25.4824 1.34877 25.9806 1.58333H25.7168C26.2444 1.8179 26.8012 2.11111 27.3873 2.46296H27.0796C27.1382 2.49228 27.1968 2.5216 27.2555 2.55093C27.3141 2.58025 27.3727 2.62423 27.4313 2.68287H26.684C26.8598 2.77083 27.2555 3.06404 27.8709 3.5625H28.838L29.4974 4.22222H29.1018C29.0725 4.1929 29.3216 4.48611 29.8491 5.10185H29.1897L29.3216 5.32176H31.08C31.1093 5.35108 31.2119 5.49769 31.3877 5.76157H31.2998C31.417 5.9375 31.505 6.09877 31.5636 6.24537C31.6515 6.39198 31.7248 6.52392 31.7834 6.6412H31.8713L32.0911 7.08102H31.3438L31.6075 7.74074H31.5196L31.7394 8.40046H32.5307L32.7066 9.06019H32.0471L32.179 9.93981H36.7509C36.7509 10.1451 36.7656 10.2917 36.7949 10.3796H31.6955L31.7394 11.2593H39.3885ZM25.0135 10.3796C24.9842 10.2623 24.9109 10.1157 24.7937 9.93981H20.2218C19.9873 9.58796 19.7089 9.29475 19.3865 9.06019H20.046C19.5184 8.73765 18.859 8.57639 18.0677 8.57639C17.2471 8.57639 16.5877 8.73765 16.0895 9.06019H16.2214C15.899 9.29475 15.6353 9.58796 15.4301 9.93981H15.6939L15.4741 10.3796H12.7485C12.6313 10.7022 12.558 10.9954 12.5287 11.2593H20.3097L20.1778 10.9514C20.0313 10.5995 19.958 10.4089 19.958 10.3796H25.0135ZM20.1339 21.375H19.8262L19.958 21.6829L20.1339 21.375ZM17.4523 22.0347L17.8479 22.4745H20.3097L20.7933 22.0347H17.4523ZM22.6836 23.0903C23.5628 23.0903 24.2662 22.885 24.7937 22.4745H20.5295C21.057 22.885 21.7751 23.0903 22.6836 23.0903Z" fill="#66DBE1"/>
<path d="M65.8263 19.1759H66.09L66.3538 20.0556H64.991L65.1229 20.9352H64.7712C64.7712 21.1404 64.7859 21.287 64.8152 21.375H61.5621V21.8148H63.2766V22.0347H63.936L63.848 22.9144H63.4084L63.2766 23.794H64.0239C63.9946 24.0579 63.9213 24.3511 63.8041 24.6736H63.1447C63.0275 25.0841 62.9249 25.3773 62.837 25.5532H61.65C61.5621 25.6998 61.4595 25.9198 61.3423 26.213H63.0128L62.793 26.6528H63.4964C63.3205 26.946 63.1154 27.2392 62.8809 27.5324H64.6833L64.5075 27.7523H65.1669L64.9471 27.9722H66.0461L65.8702 28.1921H60.7269L60.2433 28.6319H64.5954L64.3316 28.8519H63.0568L62.0896 29.5116H60.8148C60.3459 29.8048 59.877 30.0247 59.408 30.1713H59.0124C58.016 30.5818 56.7704 30.875 55.2758 31.0509H55.3637C54.5138 31.1682 53.488 31.2269 52.2865 31.2269H37.252C36.9882 31.2269 36.7831 31.1682 36.6365 31.0509H36.5486C36.2262 30.875 36.0358 30.5818 35.9771 30.1713H36.4167V29.5116H37.6476V28.8519H38.9225V28.6319H34.5704V28.1921H39.6698V27.9722H38.5708V27.7523H37.9114V27.5324H36.109V26.6528H35.4057V26.213H33.6912V25.5532H34.9221V24.6736H35.5815V23.794H34.8342V22.9144H36.3728V22.0347H37.9993V21.8148H32.8999V21.375H33.955V20.9352H36.4167V20.0556H37.9114V19.1759H37.6476V18.7361H39.7138V18.2963H36.5047V17.6366H35.9332V16.7569H36.7245V16.3171H33.955V15.6574H36.4167V14.9977H34.7023V14.338H30.9217V13.4583H34.4385V12.7986H37.9993V12.5787H37.3399V11.6991H36.4167V11.0394H36.5047V10.3796H37.3839V10.1597H36.4167V9.71991H36.5047V9.5H37.3839V8.62037H36.4167V8.40046H35.6694V7.74074H39.5379V6.86111H37.4278V6.20139H38.8785V5.54167H36.9882V5.10185H36.109V4.66204H36.5926V3.12268H37.296V2.68287H36.4167V1.80324H36.3728V1.62731C36.3728 1.36343 36.4461 1.12886 36.5926 0.923612H36.6365C36.871 0.60108 37.1934 0.439814 37.6037 0.439814H52.1985C54.0449 0.439814 55.73 0.60108 57.254 0.923612H57.21C58.1478 1.12886 59.0124 1.42207 59.8037 1.80324H59.8916C60.3605 2.03781 60.8441 2.33102 61.3423 2.68287H62.2655L62.793 3.12268H62.0457C62.2508 3.29861 62.5292 3.59182 62.8809 4.00232C62.9981 4.14892 63.1447 4.36883 63.3205 4.66204H62.8809L63.0128 4.88194H62.9688L63.1007 5.10185H63.9799L64.1997 5.54167H66.09L66.3538 6.20139H64.9031L65.0789 6.86111H67.189C67.2477 7.03704 67.3063 7.33025 67.3649 7.74074H63.4964L63.5403 8.40046H66.6176C66.6176 8.48843 66.6322 8.56173 66.6615 8.62037H64.2437C64.273 8.7963 64.2877 9.08951 64.2877 9.5H66.0021V9.71991H65.8263C65.8263 9.92515 65.8116 10.0718 65.7823 10.1597H62.9688V10.3796H62.2215C62.2215 10.5262 62.1922 10.7461 62.1336 11.0394H60.6389C60.6096 11.186 60.5364 11.4059 60.4191 11.6991H64.9031C64.8738 11.8457 64.7419 12.1389 64.5075 12.5787H65.1669L65.035 12.7986H61.4302C61.3423 12.9452 61.1811 13.1651 60.9467 13.4583H57.4738C57.1807 13.7809 56.8876 14.0741 56.5946 14.338H60.3752C60.0821 14.6019 59.7744 14.8218 59.452 14.9977H61.2104L60.8587 15.1736C61.0639 15.2616 61.3716 15.4228 61.7819 15.6574H59.3201C59.5546 15.7747 59.8476 15.9946 60.1993 16.3171H62.9249L63.4084 16.7569H62.6172C62.793 16.9329 63.0275 17.2261 63.3205 17.6366H63.848C63.9653 17.7832 64.1118 18.0031 64.2877 18.2963H67.4968L67.7166 18.7361H65.6504L65.8263 19.1759ZM47.4948 11.0394H47.4068V11.6991H48.33V12.0069H52.0227C52.433 12.0069 52.7847 11.9043 53.0777 11.6991H48.5498C48.7843 11.5231 48.9748 11.3032 49.1213 11.0394H50.572C50.6599 10.8927 50.7332 10.6728 50.7918 10.3796H51.4952V10.1597H54.3526V10.0278C54.3526 9.88117 54.3379 9.77855 54.3086 9.71991H54.4845C54.4845 9.63194 54.4698 9.55864 54.4405 9.5H52.77C52.6821 9.17747 52.5502 8.88426 52.3744 8.62037H54.7482L54.5284 8.40046H51.4512C51.1288 8.13657 50.7625 8.00463 50.3522 8.00463H46.6595V8.40046H47.4068V8.62037H48.374V9.5H47.4948V9.71991H47.4068V10.1597H48.374V10.3796H47.4948V11.0394ZM53.5613 20.9352C53.4734 20.5833 53.3269 20.2901 53.1217 20.0556H54.4845C54.1621 19.5864 53.6639 19.3519 52.9898 19.3519H48.9015V20.0556H47.4068V20.9352H44.9451V21.375H43.89V21.8148H48.9894V22.0347H47.3629V22.9144H45.8243V23.662H49.9126C50.616 23.662 51.1435 23.4128 51.4952 22.9144H51.9787C52.1546 22.6505 52.2865 22.3573 52.3744 22.0347H51.715C51.7443 21.9761 51.7589 21.9028 51.7589 21.8148H50.0005C50.0298 21.7562 50.0445 21.6535 50.0445 21.5069V21.375H53.2975L53.2096 20.9352H53.5613Z" fill="#66DBE1"/>
<path d="M98.1097 19.1759H98.3735L98.6372 20.0556H97.2745L97.4063 20.9352H97.0547C97.0547 21.1404 97.0693 21.287 97.0986 21.375H93.8455V21.8148H95.56V22.0347H96.2194L96.1315 22.9144H95.6919L95.56 23.794H96.3073C96.278 24.0579 96.2048 24.3511 96.0875 24.6736H95.4281C95.3109 25.0841 95.2083 25.3773 95.1204 25.5532H93.9335C93.8455 25.6998 93.743 25.9198 93.6257 26.213H95.2962L95.0764 26.6528H95.7798C95.604 26.946 95.3988 27.2392 95.1644 27.5324H96.9667L96.7909 27.7523H97.4503L97.2305 27.9722H98.3295L98.1537 28.1921H93.0103L92.5267 28.6319H96.8788L96.6151 28.8519H95.3402L94.3731 29.5116H93.0982C92.6293 29.8048 92.1604 30.0247 91.6915 30.1713H91.2958C90.2994 30.5818 89.0539 30.875 87.5592 31.0509H87.6471C86.7972 31.1682 85.7715 31.2269 84.5699 31.2269H69.5354C69.2717 31.2269 69.0665 31.1682 68.92 31.0509H68.8321C68.5097 30.875 68.3192 30.5818 68.2606 30.1713H68.7002V29.5116H69.9311V28.8519H71.2059V28.6319H66.8538V28.1921H71.9532V27.9722H70.8542V27.7523H70.1948V27.5324H68.3925V26.6528H67.6891V26.213H65.9746V25.5532H67.2055V24.6736H67.8649V23.794H67.1176V22.9144H68.6562V22.0347H70.2828V21.8148H65.1833V21.375H66.2384V20.9352H68.7002V20.0556H70.1948V19.1759H69.9311V18.7361H71.9972V18.2963H68.7881V17.6366H68.2166V16.7569H69.0079V16.3171H66.2384V15.6574H68.7002V14.9977H66.9857V14.338H63.2051V13.4583H66.722V12.7986H70.2828V12.5787H69.6234V11.6991H68.7002V11.0394H68.7881V10.3796H69.6673V10.1597H68.7002V9.71991H68.7881V9.5H69.6673V8.62037H68.7002V8.40046H67.9529V7.74074H71.8214V6.86111H69.7113V6.20139H71.162V5.54167H69.2717V5.10185H68.3925V4.66204H68.876V3.12268H69.5794V2.68287H68.7002V1.80324H68.6562V1.62731C68.6562 1.36343 68.7295 1.12886 68.876 0.923612H68.92C69.1544 0.60108 69.4768 0.439814 69.8871 0.439814H84.482C86.3283 0.439814 88.0135 0.60108 89.5374 0.923612H89.4935C90.4313 1.12886 91.2958 1.42207 92.0871 1.80324H92.175C92.644 2.03781 93.1275 2.33102 93.6257 2.68287H94.5489L95.0764 3.12268H94.3291C94.5343 3.29861 94.8127 3.59182 95.1644 4.00232C95.2816 4.14892 95.4281 4.36883 95.604 4.66204H95.1644L95.2962 4.88194H95.2523L95.3842 5.10185H96.2634L96.4832 5.54167H98.3735L98.6372 6.20139H97.1865L97.3624 6.86111H99.4725C99.5311 7.03704 99.5897 7.33025 99.6483 7.74074H95.7798L95.8238 8.40046H98.901C98.901 8.48843 98.9156 8.56173 98.9449 8.62037H96.5271C96.5564 8.7963 96.5711 9.08951 96.5711 9.5H98.2855V9.71991H98.1097C98.1097 9.92515 98.0951 10.0718 98.0657 10.1597H95.2523V10.3796H94.505C94.505 10.5262 94.4756 10.7461 94.417 11.0394H92.9224C92.8931 11.186 92.8198 11.4059 92.7026 11.6991H97.1865C97.1572 11.8457 97.0254 12.1389 96.7909 12.5787H97.4503L97.3184 12.7986H93.7137C93.6257 12.9452 93.4646 13.1651 93.2301 13.4583H89.7572C89.4642 13.7809 89.1711 14.0741 88.878 14.338H92.6586C92.3655 14.6019 92.0578 14.8218 91.7354 14.9977H93.4939L93.1422 15.1736C93.3473 15.2616 93.6551 15.4228 94.0653 15.6574H91.6036C91.838 15.7747 92.1311 15.9946 92.4828 16.3171H95.2083L95.6919 16.7569H94.9006C95.0764 16.9329 95.3109 17.2261 95.604 17.6366H96.1315C96.2487 17.7832 96.3952 18.0031 96.5711 18.2963H99.7802L100 18.7361H97.9339L98.1097 19.1759ZM79.7782 11.0394H79.6903V11.6991H80.6135V12.0069H84.3061C84.7164 12.0069 85.0681 11.9043 85.3612 11.6991H80.8333C81.0677 11.5231 81.2582 11.3032 81.4047 11.0394H82.8554C82.9434 10.8927 83.0166 10.6728 83.0752 10.3796H83.7786V10.1597H86.636V10.0278C86.636 9.88117 86.6214 9.77855 86.5921 9.71991H86.7679C86.7679 9.63194 86.7533 9.55864 86.724 9.5H85.0535C84.9655 9.17747 84.8337 8.88426 84.6578 8.62037H87.0317L86.8119 8.40046H83.7346C83.4123 8.13657 83.0459 8.00463 82.6356 8.00463H78.943V8.40046H79.6903V8.62037H80.6574V9.5H79.7782V9.71991H79.6903V10.1597H80.6574V10.3796H79.7782V11.0394ZM85.8447 20.9352C85.7568 20.5833 85.6103 20.2901 85.4051 20.0556H86.7679C86.4455 19.5864 85.9473 19.3519 85.2733 19.3519H81.1849V20.0556H79.6903V20.9352H77.2285V21.375H76.1735V21.8148H81.2729V22.0347H79.6463V22.9144H78.1077V23.662H82.196C82.8994 23.662 83.4269 23.4128 83.7786 22.9144H84.2622C84.438 22.6505 84.5699 22.3573 84.6578 22.0347H83.9984C84.0277 21.9761 84.0424 21.9028 84.0424 21.8148H82.284C82.3133 21.7562 82.3279 21.6535 82.3279 21.5069V21.375H85.581L85.4931 20.9352H85.8447Z" fill="#66DBE1"/>
</svg>
