<svg width="678" height="344" viewBox="0 0 678 344" fill="none" xmlns="http://www.w3.org/2000/svg">
<g style="mix-blend-mode:luminosity" opacity="0.6">
<path d="M402.325 311.329H400.936V309.372C402.227 309.372 403.518 309.372 404.849 309.372V311.329H402.325ZM396.016 311.182C394.712 311.123 393.408 311.045 392.104 310.947L392.251 308.991C393.542 309.079 394.833 309.157 396.163 309.216L396.016 311.182ZM409.798 311.123L409.7 309.167C411.004 309.095 412.308 309.007 413.612 308.903L413.769 310.859C412.419 310.97 411.082 311.058 409.758 311.123H409.798ZM387.184 310.497C385.874 310.36 384.573 310.194 383.272 310.018L383.536 308.062C384.827 308.238 386.108 308.394 387.448 308.541L387.184 310.497ZM418.63 310.37L418.405 308.414C419.686 308.267 420.977 308.091 422.258 307.905L422.542 309.861C421.202 310.047 419.931 310.204 418.591 310.37H418.63ZM378.372 309.226C377.081 309.001 375.79 308.756 374.459 308.502L374.851 306.545C376.122 306.8 377.394 307.044 378.665 307.259L378.372 309.226ZM427.364 309.02L427.012 307.064C428.283 306.829 429.555 306.575 430.826 306.311L431.227 308.218C429.946 308.56 428.655 308.815 427.364 309.049V309.02ZM369.657 307.435C368.376 307.122 367.104 306.8 365.843 306.457L366.351 304.569C367.603 304.912 368.855 305.225 370.117 305.548L369.657 307.435ZM435.991 307.152L435.58 305.313C436.838 305 438.09 304.674 439.336 304.335L439.864 306.223C438.573 306.526 437.301 306.868 436.03 307.181L435.991 307.152ZM361.148 305.117C359.896 304.726 358.654 304.325 357.402 303.894L358.037 302.046C359.26 302.466 360.492 302.867 361.725 303.249L361.148 305.117ZM444.559 304.755L443.962 302.897C445.194 302.496 446.427 302.095 447.649 301.664L448.295 303.503C447.053 303.943 445.811 304.335 444.559 304.755ZM352.775 302.231C351.553 301.762 350.33 301.253 349.117 300.774L349.87 298.964C351.064 299.463 352.267 299.943 353.47 300.402L352.775 302.231ZM452.921 301.791L452.207 299.972C453.41 299.502 454.613 298.994 455.807 298.505L456.57 300.304C455.357 300.823 454.163 301.312 452.921 301.791V301.791ZM344.608 298.857C343.415 298.309 342.232 297.751 341.048 297.174L341.909 295.414C343.073 295.991 344.246 296.538 345.42 297.076L344.608 298.857ZM461.069 298.348L460.237 296.578C461.411 296.03 462.575 295.462 463.739 294.876L464.619 296.626C463.446 297.174 462.262 297.742 461.069 298.299V298.348ZM336.676 294.924C335.522 294.298 334.368 293.663 333.233 292.968L334.211 291.276C335.326 291.921 336.461 292.547 337.595 293.154L336.676 294.924ZM468.981 294.338L468.003 292.616C469.138 292 470.263 291.354 471.388 290.66L472.366 292.352C471.28 293.007 470.136 293.653 468.981 294.289V294.338ZM328.969 290.435C327.863 289.74 326.758 289.036 325.663 288.302L326.748 286.678C327.824 287.392 328.91 288.087 330.005 288.772L328.969 290.435ZM476.659 289.769L475.603 288.116C476.699 287.422 477.784 286.717 478.86 285.984L479.956 287.608C478.831 288.351 477.726 289.065 476.659 289.769ZM321.692 285.514C320.626 284.751 319.569 283.978 318.523 283.186L319.706 281.621C320.743 282.404 321.78 283.176 322.826 283.93L321.692 285.514ZM483.956 284.771L482.802 283.186C483.848 282.433 484.885 281.65 485.912 280.858L487.105 282.404C486.069 283.206 485.012 283.998 483.956 284.771ZM314.62 280.134C313.642 279.313 312.605 278.461 311.608 277.601L312.889 276.124C313.867 276.975 314.845 277.806 315.823 278.628L314.62 280.134ZM490.949 279.312L489.697 277.806C490.675 276.984 491.653 276.133 492.632 275.273L493.923 276.74C492.964 277.62 491.957 278.471 490.949 279.312ZM307.94 274.314C306.962 273.424 305.984 272.524 305.094 271.604L306.463 270.206C307.441 271.115 308.331 272.005 309.27 272.886L307.94 274.314ZM497.59 273.424L496.221 272.054C497.199 271.164 498.089 270.264 499.009 269.345C499.772 268.575 500.525 267.802 501.268 267.026L502.686 268.376C501.933 269.169 501.17 269.951 500.388 270.724C499.478 271.604 498.539 272.524 497.59 273.424ZM301.641 268.142C300.731 267.163 299.841 266.185 298.971 265.207L300.428 263.896C301.289 264.874 302.169 265.853 303.059 266.753L301.641 268.142ZM506.061 264.757L504.603 263.456C505.464 262.478 506.315 261.5 507.146 260.521L508.643 261.774C507.782 262.732 506.921 263.72 506.002 264.708L506.061 264.757ZM295.773 261.519C294.922 260.541 294.09 259.485 293.278 258.457L294.814 257.245C295.616 258.223 296.438 259.26 297.269 260.267L295.773 261.519ZM511.743 257.959L510.208 256.755C511 255.777 511.782 254.701 512.555 253.664L514.12 254.828C513.318 255.826 512.526 256.873 511.714 257.91L511.743 257.959ZM290.266 254.447C289.483 253.381 288.721 252.305 287.977 251.229L289.581 250.114C290.325 251.18 291.068 252.236 291.841 253.283L290.266 254.447ZM516.947 250.73L515.333 249.624C516.057 248.548 516.771 247.472 517.475 246.387L519.118 247.443C518.414 248.578 517.69 249.686 516.947 250.769V250.73ZM285.248 247.159C284.544 246.044 283.85 244.929 283.175 243.804L284.847 242.826C285.512 243.931 286.197 245.037 286.901 246.132L285.248 247.159ZM521.7 243.305L520.018 242.327C520.683 241.212 521.329 240.087 521.974 238.962L523.686 239.94C523.03 241.036 522.375 242.171 521.7 243.305V243.305ZM280.72 239.529C280.084 238.375 279.458 237.211 278.861 236.047L280.602 235.157C281.189 236.301 281.805 237.446 282.431 238.59L280.72 239.529ZM525.974 235.548L524.233 234.658C524.82 233.504 525.388 232.34 525.945 231.176L527.706 232.017C527.148 233.191 526.542 234.374 525.974 235.548V235.548ZM276.68 231.635C276.123 230.442 275.585 229.249 275.057 228.046L276.847 227.263C277.365 228.447 277.903 229.63 278.451 230.804L276.68 231.635ZM529.74 227.537L527.94 226.764C528.459 225.571 528.918 224.377 529.427 223.174L531.246 223.898C530.757 225.101 530.258 226.324 529.74 227.527V227.537ZM273.218 223.477C272.739 222.255 272.24 221.022 271.829 219.79L273.668 219.124C274.108 220.347 274.568 221.56 275.037 222.763L273.218 223.477ZM533.026 219.281L531.188 218.626C531.628 217.403 532.039 216.18 532.44 214.957L534.298 215.554C533.848 216.806 533.388 218.048 532.978 219.281H533.026ZM270.186 215.124C269.785 213.872 269.403 212.619 269.032 211.358L270.91 210.81C271.272 212.052 271.653 213.294 272.044 214.527L270.186 215.124ZM535.687 210.849L533.809 210.311C534.161 209.069 534.503 207.817 534.787 206.564L536.684 207.044C536.391 208.315 536.049 209.587 535.687 210.849V210.849ZM267.692 206.604C267.379 205.332 267.066 204.05 266.782 202.769L268.738 202.339C269.012 203.61 269.315 204.872 269.628 206.124L267.692 206.604ZM537.809 202.26L535.853 201.84C536.127 200.578 536.391 199.306 536.626 198.035L538.582 198.397C538.396 199.668 538.132 200.969 537.858 202.26H537.809ZM265.804 197.937C265.56 196.646 265.344 195.354 265.139 194.024L267.095 193.721C267.291 195.002 267.506 196.284 267.75 197.555L265.804 197.937ZM539.413 193.545L537.457 193.251C537.653 191.97 537.829 190.688 537.985 189.397L539.941 189.642C539.844 190.943 539.668 192.244 539.462 193.545H539.413ZM264.513 189.172C264.356 187.871 264.22 186.56 264.102 185.259L266.058 185.083C266.176 186.375 266.313 187.666 266.469 188.947L264.513 189.172ZM540.519 184.741L538.562 184.575C538.68 183.284 538.768 181.992 538.846 180.662L540.802 180.779C540.734 182.129 540.636 183.44 540.519 184.741ZM263.721 180.349C263.652 179.038 263.594 177.718 263.554 176.436L265.511 176.387C265.511 177.679 265.599 178.97 265.677 180.3L263.721 180.349ZM541.017 175.898L539.061 175.849C539.061 174.744 539.061 173.648 539.061 172.543V171.966H541.017V172.553C541.056 173.658 541.037 174.773 541.017 175.898ZM265.481 171.496H263.525C263.525 170.176 263.525 168.865 263.613 167.584L265.569 167.652C265.52 168.904 265.491 170.205 265.481 171.496V171.496ZM538.993 167.104C538.934 165.813 538.866 164.522 538.778 163.191L540.734 163.055C540.822 164.365 540.89 165.676 540.949 166.967L538.993 167.104ZM265.824 162.761L263.867 162.624C263.955 161.313 264.073 160.012 264.2 158.711L266.156 158.907C266.029 160.179 265.921 161.519 265.824 162.761V162.761ZM538.367 158.389C538.24 157.097 538.083 155.816 537.917 154.534L539.873 154.27C540.049 155.581 540.196 156.882 540.333 158.183L538.367 158.389ZM266.723 154.075L264.767 153.811C264.943 152.51 265.139 151.209 265.354 149.898L267.31 150.211C267.085 151.512 266.899 152.793 266.723 154.075V154.075ZM537.193 149.78C536.978 148.499 536.743 147.227 536.499 145.956L538.455 145.574C538.709 146.866 538.944 148.157 539.159 149.487L537.193 149.78ZM268.22 145.506L266.264 145.115C266.518 143.833 266.802 142.552 267.095 141.27L269.002 141.71C268.699 142.933 268.425 144.185 268.171 145.457L268.22 145.506ZM535.521 141.212C535.227 139.95 534.904 138.688 534.542 137.436L536.43 136.937C536.763 138.208 537.085 139.48 537.408 140.762L535.521 141.212ZM270.215 136.996L268.328 136.497C268.66 135.225 269.022 133.963 269.394 132.701L271.272 133.269C270.851 134.452 270.499 135.704 270.166 136.947L270.215 136.996ZM533.251 132.76C532.88 131.527 532.479 130.295 532.068 129.062L533.926 128.436C534.347 129.688 534.738 130.941 535.12 132.193L533.251 132.76ZM272.748 128.642L270.89 128.016C271.311 126.773 271.751 125.531 272.21 124.299L274.04 124.983C273.541 126.147 273.11 127.37 272.7 128.593L272.748 128.642ZM530.444 124.485C529.994 123.272 529.525 122.068 529.036 120.865L530.845 120.122C531.344 121.344 531.823 122.567 532.283 123.8L530.444 124.485ZM275.761 120.435L273.951 119.691C274.45 118.478 274.93 117.265 275.497 116.072L277.287 116.864C276.759 118.028 276.25 119.222 275.761 120.435ZM527.07 116.366C526.532 115.182 525.984 114.008 525.417 112.844L527.177 111.993C527.755 113.177 528.312 114.37 528.85 115.563L527.07 116.366ZM279.341 112.453L277.58 111.592C278.157 110.408 278.754 109.244 279.36 108.08L281.091 108.99C280.485 110.134 279.908 111.289 279.341 112.453ZM523.226 108.54C522.62 107.395 521.994 106.261 521.358 105.136L523.06 104.158C523.705 105.302 524.341 106.456 524.957 107.62L523.226 108.54ZM283.419 104.784L281.727 103.806C282.373 102.661 283.038 101.536 283.683 100.411L285.356 101.389C284.72 102.495 284.065 103.61 283.419 104.784ZM518.883 100.871C518.199 99.7656 517.504 98.6701 516.79 97.5843L518.433 96.518C519.157 97.6136 519.861 98.7287 520.546 99.8439L518.883 100.871ZM287.997 97.2712L286.363 96.1952C287.077 95.0996 287.821 94.0139 288.574 92.9379L290.168 94.0628C289.435 95.1486 288.701 96.2246 287.997 97.3006V97.2712ZM514.052 93.5737C513.308 92.5172 512.545 91.4706 511.763 90.4239L513.328 89.2501C514.12 90.3065 514.893 91.363 515.656 92.439L514.052 93.5737ZM293.005 90.1402L291.449 88.9664C292.232 87.9197 293.044 86.8828 293.865 85.8557L295.391 87.0785C294.599 88.1545 293.807 89.1327 293.024 90.1696L293.005 90.1402ZM508.75 86.5894C507.939 85.6112 507.107 84.5841 506.266 83.5961L507.753 82.3245C508.604 83.3027 509.445 84.3396 510.276 85.3569L508.75 86.5894ZM298.462 83.3516L296.985 82.0799C297.836 81.1017 298.707 80.1236 299.597 79.1454L301.044 80.4659C300.19 81.4311 299.343 82.4027 298.501 83.3809L298.462 83.3516ZM503.068 79.9964C502.194 79.0443 501.304 78.1052 500.398 77.1792L501.806 75.8097C502.725 76.7879 503.625 77.7074 504.505 78.6758L503.068 79.9964ZM304.419 76.9444L303.02 75.575L304.174 74.4109C304.722 73.8631 305.27 73.3251 305.817 72.7969L307.177 74.2055C306.629 74.7239 306.091 75.2619 305.553 75.7901L304.419 76.9444ZM496.955 73.7555C495.977 72.8556 495.067 71.9752 494.118 71.1046L495.429 69.6569C496.407 70.5373 497.385 71.4274 498.363 72.3371L496.955 73.7555ZM310.727 70.8894L309.407 69.4319C310.385 68.5515 311.363 67.681 312.341 66.8397L313.613 68.3266C312.654 69.158 311.676 70.0188 310.718 70.8894H310.727ZM490.45 67.9059C489.472 67.0745 488.494 66.2528 487.457 65.4507L488.67 63.9149C489.697 64.7366 490.705 65.5681 491.712 66.4093L490.45 67.9059ZM317.388 65.2355L316.175 63.6997C317.202 62.878 318.249 62.0759 319.305 61.2934L320.469 62.8585C319.432 63.6345 318.405 64.4269 317.388 65.2355V65.2355ZM483.662 62.4965C482.616 61.7238 481.569 60.9706 480.513 60.2272L481.628 58.6229C482.704 59.3761 483.77 60.1391 484.826 60.9217L483.662 62.4965ZM324.46 60.0217L323.345 58.4077C324.43 57.6643 325.526 56.9306 326.621 56.2068L327.687 57.8501C326.585 58.5544 325.493 59.2783 324.411 60.0217H324.46ZM476.483 57.5273C475.398 56.823 474.302 56.1383 473.197 55.4633L474.175 53.7906C475.29 54.4754 476.405 55.1699 477.51 55.884L476.483 57.5273ZM331.805 55.2677L330.827 53.5852C331.952 52.9103 333.096 52.2451 334.241 51.6289L335.219 53.3309C333.986 53.9178 332.881 54.5928 331.756 55.2677H331.805ZM469.011 53.0277C467.876 52.3918 466.742 51.7756 465.597 51.1789L466.497 49.4475C467.661 50.054 468.815 50.68 469.96 51.3158L469.011 53.0277ZM339.395 50.9832L338.495 49.2421C339.659 48.6454 340.843 48.0487 342.016 47.4813L342.867 49.2421C341.684 49.8192 340.549 50.3963 339.395 50.9832ZM461.206 49.0269C460.042 48.4693 458.858 47.9313 457.685 47.4031L458.477 45.613C459.67 46.1412 460.863 46.6988 462.047 47.2563L461.206 49.0269ZM347.288 47.2368L346.496 45.4467C347.699 44.9087 348.912 44.4 350.134 43.9109L350.868 45.7206C349.665 46.1999 348.472 46.6988 347.288 47.227V47.2368ZM453.185 45.5152C451.982 45.0261 450.77 44.537 449.557 44.1164L450.232 42.2871C451.464 42.7371 452.687 43.2066 453.909 43.6957L453.185 45.5152ZM355.377 43.9696L354.712 42.1306C355.944 41.6807 357.186 41.2503 358.438 40.8394L359.055 42.698C357.842 43.099 356.619 43.5294 355.377 43.9696V43.9696ZM444.979 42.5317C443.757 42.1208 442.515 41.7394 441.282 41.3676L441.83 39.4993C443.092 39.871 444.344 40.2623 445.595 40.6731L444.979 42.5317ZM363.691 41.2502L363.133 39.3721C364.395 39.0004 365.666 38.6483 366.938 38.3157L367.437 40.2036C366.195 40.5362 364.952 40.8785 363.71 41.2502H363.691ZM436.597 40.0764C435.345 39.7536 434.093 39.4406 432.831 39.1569L433.262 37.2005C434.543 37.494 435.815 37.807 437.086 38.1787L436.597 40.0764ZM372.151 39.0982L371.721 37.1908C373.002 36.8973 374.293 36.6332 375.574 36.3789L375.956 38.3352C374.704 38.5113 373.432 38.7754 372.171 39.0591L372.151 39.0982ZM428.078 38.1983C426.806 37.9537 425.535 37.7288 424.254 37.5233L424.567 35.567C425.858 35.7724 427.159 36.0072 428.479 36.2517L428.078 38.1983ZM380.739 37.4549L380.426 35.4985C381.73 35.2963 383.034 35.1105 384.338 34.9409L384.592 36.8973C383.321 37.0245 382.03 37.2103 380.807 37.4157L380.739 37.4549ZM419.451 36.8386C418.16 36.6723 416.879 36.5256 415.588 36.4082L415.774 34.4518C417.084 34.579 418.395 34.7159 419.686 34.8822L419.451 36.8386ZM389.424 36.3104L389.248 34.354C390.549 34.2268 391.86 34.129 393.16 34.041L393.288 35.9974C392.006 36.0952 390.715 36.2028 389.424 36.3104ZM410.766 35.968C409.475 35.8898 408.184 35.8311 406.854 35.7822L406.912 33.8258C408.223 33.8258 409.543 33.9236 410.825 34.0116L410.766 35.968ZM398.149 35.7724L398.09 33.816C399.401 33.816 400.721 33.7573 402.002 33.7573V35.7137C400.741 35.7235 399.44 35.743 398.149 35.7822V35.7724Z" fill="#7B7B7B" fill-opacity="0.7"/>
</g>
<g style="mix-blend-mode:luminosity" opacity="0.6">
<path d="M399.078 266.498C397.777 266.498 396.456 266.381 395.165 266.283L395.312 264.327C396.603 264.424 397.904 264.493 399.224 264.532L399.078 266.498ZM407.969 266.381L407.851 264.425C409.132 264.346 410.433 264.239 411.705 264.111L411.9 266.068C410.609 266.185 409.279 266.303 407.969 266.381ZM386.314 265.207C385.032 264.982 383.722 264.728 382.401 264.454L382.812 262.497C384.074 262.762 385.345 263.016 386.607 263.231L386.314 265.207ZM420.693 264.757L420.312 262.801C421.564 262.546 422.835 262.263 424.087 261.959L424.547 263.867C423.266 264.229 421.965 264.493 420.693 264.747V264.757ZM373.853 262.175C372.601 261.783 371.339 261.353 370.107 260.903L370.782 259.064C371.985 259.504 373.217 259.925 374.44 260.316L373.853 262.175ZM433.076 261.402L432.44 259.553C433.643 259.132 434.866 258.682 436.069 258.213L436.783 260.032C435.58 260.502 434.308 260.962 433.076 261.392V261.402ZM361.911 257.489C360.717 256.922 359.534 256.325 358.38 255.719L359.299 253.987C360.424 254.584 361.588 255.171 362.752 255.719L361.911 257.489ZM444.881 256.403L444.001 254.662C445.145 254.075 446.29 253.459 447.405 252.833L448.383 254.545C447.229 255.151 446.055 255.777 444.881 256.403ZM350.741 251.209C349.636 250.485 348.54 249.732 347.484 248.969L348.628 247.384C349.665 248.128 350.741 248.871 351.807 249.576L350.741 251.209ZM455.895 249.82L454.78 248.216C455.836 247.472 456.892 246.709 457.91 245.937L459.093 247.492C458.076 248.255 456.98 249.038 455.895 249.791V249.82ZM340.53 243.452C339.552 242.582 338.573 241.682 337.595 240.791L338.945 239.373C339.865 240.244 340.833 241.124 341.801 241.975L340.53 243.452ZM465.9 241.73L464.57 240.293C465.548 239.412 466.468 238.512 467.368 237.612L468.815 238.933L468.747 239.001C467.857 239.931 466.879 240.85 465.9 241.73ZM331.443 234.335C330.583 233.357 329.722 232.32 328.9 231.303L330.426 230.07C331.238 231.049 332.069 232.027 332.91 233.005L331.443 234.335ZM474.791 232.379L473.285 231.127C474.107 230.149 474.909 229.171 475.681 228.104L477.246 229.278C476.464 230.325 475.681 231.362 474.801 232.379H474.791ZM323.687 224.123C322.953 223.018 322.249 221.893 321.584 220.778L323.257 219.799C323.912 220.895 324.606 222 325.32 223.076L323.687 224.123ZM482.283 221.951L480.621 220.915C481.295 219.829 481.951 218.704 482.577 217.589L484.288 218.567C483.643 219.702 482.968 220.846 482.283 221.961V221.951ZM317.388 212.942C316.821 211.769 316.283 210.556 315.765 209.343L317.564 208.57C318.073 209.763 318.601 210.947 319.149 212.101L317.388 212.942ZM488.269 210.604L486.479 209.812C486.988 208.638 487.457 207.445 487.966 206.242L489.785 206.956C489.306 208.188 488.797 209.45 488.269 210.614V210.604ZM312.684 200.999C312.292 199.766 311.911 198.494 311.569 197.213L313.456 196.695C313.799 197.956 314.16 199.199 314.542 200.412L312.684 200.999ZM492.651 198.543L490.773 197.996C491.115 196.773 491.448 195.511 491.751 194.259L493.707 194.719C493.336 196.01 493.003 197.301 492.641 198.553L492.651 198.543ZM309.651 188.546C309.427 187.245 309.231 185.925 309.065 184.633L311.021 184.389C311.187 185.651 311.383 186.942 311.598 188.214L309.651 188.546ZM495.321 185.974L493.365 185.7C493.551 184.428 493.707 183.137 493.844 181.855L495.8 182.051C495.673 183.391 495.517 184.702 495.321 185.974ZM308.341 175.781C308.341 174.695 308.341 173.619 308.341 172.543V171.829H310.297V172.533C310.297 173.59 310.297 174.646 310.297 175.703L308.341 175.781ZM496.29 173.257H494.333V172.602C494.333 171.526 494.333 170.46 494.275 169.384L496.231 169.315C496.27 170.411 496.29 171.506 496.29 172.602V173.257ZM310.718 163.152L308.761 162.957C308.898 161.656 309.065 160.335 309.25 159.044L311.207 159.328C311.011 160.59 310.855 161.881 310.718 163.152ZM493.57 160.658C493.404 159.386 493.209 158.105 492.993 156.833L494.95 156.501C495.175 157.792 495.37 159.112 495.536 160.413L493.57 160.658ZM312.84 150.759L310.943 150.299C311.246 149.027 311.588 147.736 311.921 146.484L313.799 147.022C313.476 148.264 313.143 149.526 312.84 150.759ZM491.106 148.323C490.773 147.081 490.401 145.829 490.02 144.616L491.878 144.019C492.279 145.261 492.651 146.543 492.993 147.814L491.106 148.323ZM316.625 138.786L314.806 138.062C315.285 136.839 315.784 135.616 316.332 134.423L318.122 135.215C317.603 136.399 317.104 137.592 316.625 138.795V138.786ZM486.998 136.448C486.489 135.274 485.961 134.09 485.403 132.926L487.174 132.085C487.731 133.269 488.279 134.482 488.797 135.685L486.998 136.448ZM322.014 127.439L320.313 126.46C320.958 125.316 321.633 124.172 322.318 123.056L323.98 124.093C323.306 125.208 322.65 126.304 322.014 127.448V127.439ZM481.295 125.257C480.63 124.152 479.936 123.047 479.232 121.98L480.865 120.904C481.589 121.99 482.293 123.115 482.968 124.25L481.295 125.257ZM328.91 116.943L327.355 115.759C328.147 114.712 328.969 113.676 329.81 112.668L331.316 113.91C330.494 114.908 329.683 115.925 328.91 116.952V116.943ZM474.107 114.986C473.295 114.008 472.463 113.03 471.622 112.052L473.089 110.761C473.95 111.739 474.811 112.766 475.632 113.793L474.107 114.986ZM337.175 107.484L335.815 106.104C336.735 105.195 337.683 104.285 338.632 103.405L339.962 104.842C339.023 105.664 338.104 106.554 337.204 107.454L337.175 107.484ZM465.587 105.762C464.658 104.872 463.69 104.001 462.731 103.16L464.013 101.683C464.991 102.544 465.969 103.434 466.947 104.344L465.587 105.762ZM346.633 99.2081L345.449 97.6528C346.486 96.8604 347.562 96.0779 348.638 95.3247L349.753 96.9289C348.706 97.6626 347.65 98.4353 346.633 99.2081ZM455.914 97.7115C454.868 96.9583 453.802 96.2246 452.726 95.5203L453.802 93.8867C454.897 94.6008 455.992 95.354 457.049 96.117L455.914 97.7115ZM357.128 92.3021L356.15 90.6C357.284 89.9544 358.458 89.3284 359.632 88.7317L360.512 90.4729C359.387 91.0891 358.243 91.676 357.128 92.3021V92.3021ZM445.234 91.0891C444.099 90.4924 442.945 89.9055 441.781 89.3577L442.622 87.5872C443.806 88.1546 444.989 88.7513 446.153 89.3577L445.234 91.0891ZM368.464 86.8927L367.75 85.0733C368.982 84.5939 370.224 84.0951 371.457 83.7038L372.092 85.5526C370.889 85.9732 369.667 86.4329 368.464 86.9025V86.8927ZM433.751 86.0025C432.558 85.5623 431.325 85.1515 430.093 84.7602L430.68 82.8919C431.941 83.2929 433.193 83.7136 434.416 84.1635L433.751 86.0025ZM380.445 83.0679L379.985 81.1605C381.267 80.8572 382.568 80.5638 383.839 80.3095L384.221 82.2658C382.969 82.5202 381.707 82.7941 380.445 83.1071V83.0679ZM421.681 82.5006C420.429 82.2365 419.148 81.992 417.877 81.7768L418.209 79.8204C419.51 80.0356 420.811 80.2899 422.121 80.5638L421.681 82.5006ZM392.828 80.9355L392.622 78.9791C393.933 78.8422 395.253 78.7346 396.535 78.6563L396.652 80.6127C395.4 80.7399 394.099 80.8475 392.828 80.9746V80.9355ZM409.25 80.7105C407.969 80.6127 406.668 80.5442 405.337 80.5051L405.406 78.5487C406.717 78.5487 408.047 78.6661 409.318 78.7639L409.25 80.7105Z" fill="#7B7B7B" fill-opacity="0.7"/>
</g>
<g style="mix-blend-mode:luminosity" opacity="0.6">
<path d="M402.325 253.919C383.498 253.922 365.252 247.395 350.697 235.452C336.141 223.509 326.177 206.887 322.502 188.42C318.826 169.953 321.668 150.783 330.541 134.176C339.415 117.569 353.771 104.553 371.165 97.3455C388.558 90.1383 407.913 89.1859 425.93 94.6505C443.947 100.115 459.512 111.659 469.973 127.314C480.433 142.97 485.143 161.769 483.298 180.507C481.453 199.246 473.169 216.766 459.856 230.08C452.319 237.66 443.353 243.67 433.478 247.762C423.603 251.854 413.014 253.947 402.325 253.919ZM402.325 93.1335C389.265 93.1318 376.406 96.3518 364.887 102.508C353.369 108.664 343.546 117.567 336.29 128.427C329.034 139.287 324.567 151.769 323.287 164.767C322.007 177.766 323.952 190.88 328.95 202.947C333.948 215.014 341.845 225.662 351.942 233.948C362.038 242.233 374.021 247.901 386.831 250.448C399.64 252.995 412.88 252.343 425.377 248.549C437.875 244.756 449.244 237.939 458.477 228.701V228.701C469.584 217.595 477.149 203.445 480.213 188.039C483.278 172.633 481.706 156.664 475.695 142.152C469.684 127.641 459.505 115.237 446.445 106.512C433.385 97.7865 418.031 93.1307 402.325 93.1335V93.1335Z" fill="#7B7B7B" fill-opacity="0.7"/>
</g>
<g style="mix-blend-mode:luminosity" opacity="0.6">
<path d="M401.885 276.319H401.396C388.884 276.224 376.494 273.861 364.825 269.345L364.365 269.169L364.541 268.709L381.247 225.493L381.707 225.669C388.116 228.153 394.923 229.453 401.797 229.503H402.286L401.885 276.319ZM365.627 268.601C376.901 272.909 388.848 275.188 400.916 275.331L401.298 230.471C394.634 230.365 388.04 229.107 381.805 226.754L365.627 268.601ZM496.837 215.368L454.095 196.254L454.29 195.814C457.11 189.546 458.767 182.818 459.181 175.957V175.468L505.914 178.246V178.735C505.191 191.232 502.208 203.495 497.111 214.928L496.837 215.368ZM455.386 195.804L496.338 214.116C501.222 203.047 504.11 191.201 504.867 179.126L460.081 176.466C459.645 183.119 458.057 189.646 455.386 195.756V195.804ZM345.342 171.565L298.54 170.371V169.882C298.853 157.371 301.427 145.019 306.14 133.425L306.326 132.975L349.694 150.583L349.508 151.033C346.923 157.401 345.511 164.185 345.342 171.056V171.565ZM299.548 169.423L344.393 170.567C344.61 163.907 345.976 157.335 348.432 151.14L306.874 134.247C302.377 145.449 299.897 157.357 299.548 169.423V169.423ZM455.513 152.206L455.327 151.747C452.827 145.355 449.181 139.474 444.568 134.394L444.245 134.032L478.967 102.632L479.3 102.994C487.715 112.279 494.364 123.023 498.92 134.697L499.096 135.157L455.513 152.206ZM445.634 134.129C450.056 139.097 453.584 144.792 456.061 150.964L497.844 134.628C493.393 123.391 486.982 113.034 478.909 104.04L445.634 134.129ZM363.064 131.273L331.091 97.0365L331.443 96.7039C340.585 88.1335 351.211 81.2987 362.8 76.5336L363.25 76.3576L363.446 76.8075L381.051 119.662L380.601 119.848C374.249 122.451 368.428 126.198 363.426 130.901L363.064 131.273ZM332.47 97.1148L363.113 129.884C367.995 125.367 373.62 121.727 379.741 119.124L362.683 77.6292C351.545 82.2846 341.317 88.8712 332.47 97.0854V97.1148ZM425.114 120.337L424.664 120.141C418.346 117.451 411.592 115.926 404.731 115.642H404.242V115.153L406.198 68.8646H406.687C419.19 69.3883 431.495 72.1756 443.003 77.0912L443.453 77.2771L425.114 120.337ZM405.259 114.683C411.909 115.014 418.451 116.493 424.596 119.056L442.201 77.7857C431.078 73.098 419.214 70.4123 407.156 69.8526L405.259 114.683Z" fill="#7B7B7B" fill-opacity="0.7"/>
</g>
<g style="mix-blend-mode:luminosity" opacity="0.6">
<path d="M503.185 71.6329C491.684 60.1099 478.292 50.6442 463.592 43.6469L463.133 43.4317L467.837 34.227C451.547 25.9567 433.914 20.6568 415.764 18.5759L414.434 30.3631H413.964C391.081 28.512 368.088 32.168 346.907 41.0254L346.604 41.1526L314.875 9.42008H252.336L204.938 56.8232H0V55.845H204.537L251.935 8.44189H315.276L346.829 39.9983C367.924 31.2292 390.797 27.5821 413.573 29.3556L414.903 17.5293L415.383 17.5879C433.984 19.6601 452.056 25.0924 468.717 33.6205L469.158 33.8357L464.463 43.0209C479.09 50.0446 492.418 59.5012 503.88 70.9874L503.185 71.6329Z" fill="#7B7B7B" fill-opacity="0.7"/>
</g>
<g style="mix-blend-mode:luminosity" opacity="0.6">
<path d="M464.043 279.695L463.064 278.003C481.607 267.274 497.01 251.866 507.734 233.319L509.435 234.297C498.529 253.135 482.878 268.787 464.043 279.695Z" fill="#7B7B7B" fill-opacity="0.7"/>
</g>
<g style="mix-blend-mode:luminosity" opacity="0.6">
<path d="M362.39 289.603C344.472 283.53 328.206 273.389 314.865 259.974C300.555 245.662 289.978 228.057 284.06 208.702C278.143 189.348 277.066 168.836 280.925 148.969C284.784 129.101 293.461 110.485 306.193 94.7534C318.926 79.0224 335.325 66.6577 353.951 58.7449C372.577 50.8321 392.861 47.6131 413.021 49.3705C433.182 51.1278 452.602 57.8078 469.579 68.8241C486.555 79.8403 500.568 94.856 510.387 112.553C520.207 130.25 525.532 150.087 525.896 170.323H523.94C523.519 148.064 517 126.348 505.092 107.539C493.184 88.7306 476.344 73.5502 456.406 63.6515C436.467 53.7528 414.195 49.5154 392.016 51.4007C369.836 53.2861 348.599 61.2219 330.617 74.3439C312.635 87.4658 298.598 105.271 290.035 125.82C281.471 146.369 278.71 168.874 282.051 190.884C285.393 212.894 294.709 233.565 308.985 250.645C323.261 267.726 341.95 280.562 363.016 287.754L362.39 289.603Z" fill="#7B7B7B" fill-opacity="0.7"/>
</g>
<g style="mix-blend-mode:luminosity" opacity="0.6">
<path d="M422.483 303.053L413.27 244.665L413.759 244.587C428.962 242.2 443.009 235.028 453.86 224.113L454.457 223.517L496.221 265.285L495.624 265.882C475.956 285.652 450.495 298.632 422.943 302.936L422.483 303.053ZM414.395 245.516L423.295 301.938C450.419 297.593 475.473 284.777 494.871 265.324L454.486 224.935C443.613 235.832 429.587 243.033 414.395 245.516V245.516ZM309.329 266.332L308.986 265.98C289.21 246.329 276.214 220.883 271.888 193.339L271.809 192.86L304.458 187.676L304.536 188.155L304.458 187.676L330.142 183.587L330.221 184.076C332.608 199.279 339.775 213.326 350.682 224.182L351.034 224.524L309.329 266.332ZM272.924 193.672C277.273 220.663 290.01 245.6 309.329 264.943L349.655 224.495C338.91 213.669 331.805 199.763 329.33 184.712L272.924 193.672ZM474.41 161.392L474.332 160.912C471.923 145.763 464.765 131.77 453.89 120.953L453.352 120.425L494.774 78.9987L494.822 79.0476L495.165 78.7052L495.605 79.1356C515.315 98.726 528.29 124.075 532.655 151.522L532.733 152.001L532.244 152.079L474.41 161.392ZM454.741 120.435C465.551 131.257 472.712 145.186 475.222 160.277L531.608 151.228C527.225 124.28 514.475 99.3937 495.165 80.0942L474.928 100.245L454.741 120.435ZM350.213 121.413L308.429 79.6345L308.898 79.1649C328.528 59.4621 353.912 46.51 381.384 42.1796L381.863 42.1111L391.175 100.441L390.695 100.519C375.527 102.923 361.515 110.086 350.682 120.973L350.213 121.413ZM309.827 79.6442L350.213 120.034C361.045 109.241 374.975 102.098 390.06 99.5994L381.052 43.1578C354.07 47.5362 329.151 60.2983 309.827 79.6345V79.6442Z" fill="#7B7B7B" fill-opacity="0.7"/>
</g>
<g style="mix-blend-mode:luminosity" opacity="0.6">
<path d="M403.372 343.316C401.679 343.316 399.997 343.316 398.354 343.237H397.865L398.207 331.157H398.696C400.486 331.206 402.305 331.225 404.095 331.215H404.584L404.633 343.296H403.372V343.316ZM398.872 342.279C400.447 342.279 402.032 342.328 403.655 342.337L403.606 332.213C402.129 332.213 400.672 332.213 399.166 332.154L398.872 342.279ZM415.246 342.905L414.375 330.853H414.864C416.595 330.736 418.405 330.57 420.234 330.374L420.723 330.325L421.994 342.337L421.515 342.386C419.618 342.592 417.671 342.768 415.735 342.905H415.246ZM415.422 331.753L416.145 341.858C417.749 341.731 419.353 341.594 420.918 341.428L419.852 331.362C418.346 331.519 416.859 331.646 415.422 331.724V331.753ZM387.272 342.562L386.783 342.514C384.827 342.328 382.871 342.112 381.022 341.868L380.543 341.799L382.108 329.817L382.597 329.885C384.358 330.11 386.157 330.315 387.937 330.492H388.426L387.272 342.562ZM381.639 340.958C383.194 341.154 384.788 341.34 386.392 341.496L387.37 331.421C385.893 331.274 384.436 331.098 382.959 330.912L381.639 340.958ZM432.499 340.821L430.416 328.926L430.895 328.838C432.636 328.535 434.426 328.193 436.196 327.86L436.675 327.762L439.169 339.55L438.7 339.657C436.832 340.048 434.915 340.42 432.998 340.753L432.499 340.821ZM431.521 329.719L433.272 339.696C434.846 339.413 436.431 339.109 437.976 338.787L435.903 328.878C434.475 329.181 433.008 329.464 431.56 329.768L431.521 329.719ZM449.459 337.006L446.173 325.385L446.642 325.248C448.363 324.769 450.104 324.27 451.826 323.693L452.286 323.546L455.953 335.06L455.494 335.206C453.645 335.793 451.767 336.361 449.928 336.879L449.459 337.006ZM447.385 326.06L450.134 335.842C451.66 335.402 453.205 334.942 454.731 334.463L451.65 324.818C450.251 325.219 448.843 325.65 447.424 326.06H447.385ZM465.969 331.48L461.519 320.25L461.978 320.074C463.592 319.428 465.265 318.734 466.967 317.99L467.416 317.795L472.248 328.878L471.798 329.073C470.048 329.836 468.238 330.58 466.429 331.303L465.969 331.48ZM462.79 320.798L466.517 330.208C468.013 329.611 469.5 328.995 470.957 328.369L466.908 319.086C465.548 319.692 464.169 320.269 462.829 320.798H462.79ZM481.824 324.3L476.258 313.539L476.689 313.314C478.263 312.503 479.858 311.632 481.432 310.752L481.853 310.507L487.79 321.032L487.36 321.277C485.668 322.255 483.956 323.155 482.264 324.035L481.824 324.3ZM477.637 313.999L482.303 322.979C483.702 322.245 485.12 321.482 486.509 320.7L481.54 311.896C480.22 312.61 478.909 313.315 477.637 313.999ZM496.906 315.555L490.274 305.46L490.685 305.186C492.182 304.208 493.678 303.229 495.145 302.153L495.546 301.87L502.51 311.74L502.109 312.023C500.564 313.109 498.96 314.205 497.317 315.29L496.906 315.555ZM491.634 305.773L497.189 314.234C498.539 313.341 499.843 312.444 501.102 311.544L495.233 303.268C494.079 304.08 492.837 304.922 491.614 305.734L491.634 305.773ZM510.961 305.381L503.351 295.991L503.733 295.687C505.092 294.582 506.442 293.457 507.733 292.332L508.242 291.892L516.145 301.028L515.636 301.469C514.228 302.691 512.78 303.904 511.342 305.068L510.961 305.381ZM504.73 296.137L511.107 303.963C512.33 302.985 513.563 301.928 514.766 300.891L508.144 293.232C506.98 294.191 505.865 295.15 504.711 296.098L504.73 296.137ZM279.908 291.031L279.575 290.679C278.216 289.261 276.895 287.833 275.663 286.424L275.331 286.062L284.27 277.924L284.603 278.285C285.796 279.626 287.028 280.956 288.271 282.198L288.603 282.55L279.908 291.031ZM276.69 286.14C277.737 287.295 278.822 288.478 279.937 289.642L287.244 282.629C286.266 281.562 285.209 280.477 284.221 279.371L276.69 286.14ZM268.464 277.924L268.161 277.532C266.988 276.045 265.814 274.49 264.66 272.925L264.376 272.524L274.157 265.383L274.441 265.784C275.497 267.212 276.592 268.66 277.707 270.078L278.001 270.46L268.464 277.924ZM265.736 272.739C266.714 274.03 267.692 275.312 268.67 276.544L276.631 270.294C275.722 269.12 274.812 267.936 273.942 266.753L265.736 272.739ZM258.4 263.759L258.136 263.339C257.109 261.725 256.101 260.062 255.114 258.389L254.869 257.968L265.286 251.855L265.53 252.275C266.45 253.841 267.398 255.386 268.337 256.873L268.601 257.293L258.4 263.759ZM256.209 258.321C257.021 259.7 257.862 261.069 258.703 262.409L267.252 256.99C266.479 255.748 265.696 254.476 264.943 253.195L256.209 258.321ZM554.955 252.109L544.265 246.475L544.49 246.044C545.321 244.479 546.133 242.865 546.915 241.251L547.13 240.811L558.007 246.074L557.791 246.514C556.96 248.235 556.08 249.977 555.18 251.679L554.955 252.109ZM545.585 246.074L554.544 250.789C555.278 249.38 556.002 247.952 556.696 246.524L547.58 242.122C546.935 243.439 546.27 244.75 545.585 246.054V246.074ZM249.812 248.578L249.597 248.138C248.717 246.387 247.876 244.626 247.093 242.904L246.888 242.464L257.882 237.446L258.077 237.886C258.821 239.52 259.603 241.153 260.405 242.777L260.62 243.208L249.812 248.578ZM248.189 242.943C248.844 244.372 249.539 245.819 250.253 247.267L259.31 242.748C258.654 241.427 258.019 240.077 257.353 238.737L248.189 242.943ZM562.291 236.321L551.092 231.802L551.268 231.352C551.933 229.709 552.578 228.016 553.224 226.324L553.39 225.864L564.736 230.002L564.57 230.462C563.914 232.262 563.22 234.081 562.506 235.861L562.291 236.321ZM552.363 231.264L561.753 235.049C562.34 233.572 562.907 232.115 563.455 230.589L553.928 227.165C553.439 228.554 552.95 229.992 552.363 231.303V231.264ZM242.809 232.663L242.633 232.203C241.958 230.393 241.293 228.554 240.677 226.725L240.521 226.265L251.964 222.353L252.121 222.812C252.698 224.514 253.314 226.236 253.94 227.899L254.116 228.359L242.809 232.663ZM241.763 226.882C242.281 228.388 242.819 229.904 243.377 231.401L252.854 227.83C252.336 226.441 251.876 225.033 251.348 223.624L241.763 226.882ZM237.459 216.121L237.332 215.652C236.843 213.793 236.354 211.896 235.943 210.018L235.836 209.538L247.573 206.848L247.68 207.328C248.071 209.039 248.502 210.8 248.971 212.561L249.098 213.04L237.459 216.121ZM237.009 210.252C237.371 211.808 237.753 213.373 238.154 214.909L247.934 212.326C247.553 210.869 247.191 209.392 246.868 208.003L237.009 210.252ZM233.821 199.081L233.742 198.592C233.439 196.685 233.175 194.748 232.94 192.85L232.872 192.371L244.853 190.865L244.912 191.344C245.137 193.134 245.391 194.934 245.665 196.695L245.743 197.174L233.821 199.081ZM233.967 193.212C234.163 194.787 234.388 196.382 234.632 197.956L244.638 196.382C244.413 194.924 244.198 193.447 244.012 191.97L233.967 193.212ZM231.933 181.787V181.298C231.825 179.39 231.747 177.444 231.708 175.507V175.018L243.778 174.754V175.243C243.778 177.043 243.885 178.852 243.983 180.633V181.122L231.933 181.787ZM232.667 175.977C232.667 177.571 232.764 179.175 232.852 180.76L242.956 180.193C242.888 178.725 242.829 177.258 242.79 175.752L232.667 175.977ZM562.809 168.689V168.2C562.809 166.41 562.711 164.6 562.613 162.81V162.331L574.673 161.666V162.155C574.771 164.033 574.849 165.989 574.888 167.946V168.435L562.809 168.689ZM563.601 163.25C563.68 164.727 563.738 166.185 563.768 167.691L573.891 167.486C573.891 165.862 573.793 164.258 573.715 162.693L563.601 163.25ZM243.875 164.972L231.786 164.453V163.964C231.865 162.008 231.992 160.052 232.138 158.183V157.694L244.179 158.672V159.161C244.042 160.952 243.924 162.761 243.846 164.541L243.875 164.972ZM232.813 163.475L242.927 163.935C242.995 162.468 243.083 161 243.2 159.504L233.116 158.711C232.989 160.296 232.882 161.9 232.813 163.475ZM561.753 152.578L561.694 152.089C561.479 150.319 561.234 148.519 560.951 146.748L560.872 146.269L572.805 144.391L572.883 144.87C573.187 146.826 573.451 148.724 573.685 150.622L573.744 151.111L561.753 152.578ZM561.987 147.081C562.212 148.548 562.428 150.015 562.604 151.483L572.658 150.26C572.463 148.685 572.238 147.091 571.993 145.506L561.987 147.081ZM245.343 148.871L233.4 147.12L233.469 146.631C233.742 144.743 234.055 142.816 234.447 140.918L234.535 140.439L246.418 142.591L246.33 143.07C246.008 144.86 245.714 146.65 245.46 148.392L245.343 148.871ZM234.505 146.288L244.521 147.765C244.736 146.328 244.981 144.831 245.245 143.383L235.278 141.574C235.004 143.148 234.74 144.723 234.505 146.288ZM558.975 136.624L558.867 136.154C558.476 134.423 558.046 132.662 557.586 130.911L557.459 130.442L569.147 127.36L569.264 127.84C569.763 129.718 570.242 131.616 570.653 133.484L570.761 133.963L558.975 136.624ZM558.652 131.136C559.034 132.584 559.386 134.071 559.718 135.46L569.577 133.22C569.225 131.674 568.844 130.109 568.433 128.564L558.652 131.136ZM248.453 133.014L236.716 130.08L236.833 129.61C237.312 127.742 237.811 125.864 238.349 124.015L238.476 123.545L250.086 126.891L249.949 127.36C249.45 129.092 248.971 130.843 248.551 132.564L248.453 133.014ZM237.929 129.356L247.709 131.831C248.071 130.412 248.463 128.974 248.864 127.546L239.141 124.739C238.74 126.304 238.32 127.81 237.929 129.356ZM554.642 121.041L554.486 120.572C553.928 118.909 553.312 117.197 552.676 115.495L552.5 115.035L563.807 110.78L563.983 111.24C564.667 113.079 565.333 114.928 565.939 116.727L566.095 117.187L554.642 121.041ZM553.762 115.612C554.28 117.011 554.74 118.42 555.258 119.799L564.853 116.571C564.345 115.084 563.797 113.558 563.239 112.042L553.762 115.612ZM253.128 117.569L241.772 113.451L241.939 112.991C242.604 111.181 243.298 109.362 244.012 107.581L244.188 107.131L255.397 111.631L255.221 112.081C254.556 113.734 253.91 115.427 253.265 117.099L253.128 117.569ZM243.024 112.864L252.551 116.317C253.05 114.937 253.588 113.548 254.126 112.179L244.736 108.403C244.149 109.861 243.572 111.367 243.024 112.854V112.864ZM548.744 106.016L548.539 105.566C547.805 103.943 547.023 102.299 546.231 100.675L546.006 100.235L556.862 94.8649L557.087 95.2953C557.958 97.0659 558.799 98.8266 559.581 100.538L559.777 100.979L548.744 106.016ZM547.316 100.705C547.972 102.035 548.617 103.375 549.272 104.715L558.486 100.529C557.831 99.1103 557.146 97.6626 556.422 96.2051L547.316 100.705ZM259.349 102.661L248.463 97.418L248.678 96.9778C249.519 95.2269 250.399 93.4857 251.279 91.8032L251.514 91.3728L262.205 96.9974L261.97 97.4278C261.139 99.0125 260.327 100.626 259.564 102.221L259.349 102.661ZM249.744 96.9583L258.86 101.36C259.505 100.04 260.17 98.7092 260.816 97.4474L251.857 92.7325C251.191 94.1019 250.477 95.5301 249.744 96.9583ZM541.321 91.6174L541.076 91.1967C540.147 89.612 539.208 88.0665 538.279 86.5894L538.015 86.1688L548.226 79.7225L548.49 80.1334C549.527 81.7865 550.544 83.4592 551.502 85.0928L551.747 85.5134L541.321 91.6174ZM539.364 86.4819C540.137 87.7046 540.91 88.9762 541.673 90.2772L550.407 85.1613C549.615 83.8114 548.774 82.4419 547.923 81.0725L539.364 86.4819ZM267.017 88.4382L256.727 82.1093L256.982 81.6887C257.96 80.0551 259.045 78.4118 260.112 76.7978L260.376 76.3869L270.44 83.0679L270.176 83.4788C269.198 84.9461 268.22 86.4721 267.242 88.0078L267.017 88.4382ZM258.077 81.7865L266.694 87.0883C267.486 85.8265 268.279 84.5744 269.09 83.3516L260.65 77.7564C259.808 79.1356 258.938 80.4855 258.106 81.8354L258.077 81.7865ZM276.152 75.1446L266.557 67.8082L266.851 67.4169C268.024 65.8909 269.227 64.365 270.46 62.8781L270.763 62.4966L280.104 70.1558L279.791 70.5373C278.656 71.9264 277.531 73.3447 276.446 74.7631L276.152 75.1446ZM267.936 67.6125L275.976 73.7654C276.876 72.5981 277.795 71.4373 278.734 70.283L270.91 63.8661C269.902 65.1084 268.905 66.3702 267.936 67.6125ZM286.579 62.7901L277.776 54.5146L278.108 54.1624C279.409 52.7734 280.769 51.3844 282.148 50.0051L282.5 49.6627L291.009 58.2317L290.667 58.5741C289.386 59.8457 288.124 61.1467 286.911 62.4868L286.579 62.7901ZM279.165 54.4754L286.539 61.4108C287.517 60.3446 288.593 59.2784 289.64 58.2219L282.5 51.042C281.365 52.1865 280.25 53.3407 279.165 54.4852V54.4754ZM298.198 51.5409L290.285 42.4046L290.902 41.8763C292.388 40.5851 293.836 39.3526 295.372 38.1201L295.753 37.8169L303.353 47.2075L302.971 47.5205C301.582 48.6356 300.193 49.8095 298.844 50.9833L298.198 51.5409ZM291.665 42.5024L298.296 50.1616C299.499 49.115 300.741 48.0683 301.983 47.0607L295.606 39.2352C294.276 40.3112 292.985 41.397 291.665 42.5317V42.5024ZM498.627 43.6273L498.226 43.3338C496.769 42.248 495.292 41.2014 493.844 40.1939L493.443 39.92L500.29 29.9815L500.701 30.2554C502.256 31.3314 503.84 32.4662 505.415 33.6302L505.806 33.9236L498.627 43.6273ZM494.803 39.7146C495.996 40.546 497.209 41.4068 498.422 42.297L504.447 34.1584C503.146 33.1802 501.845 32.2705 500.534 31.3803L494.803 39.7146ZM485.208 34.6768L484.787 34.4225C483.213 33.4933 481.628 32.5933 480.102 31.7521L479.672 31.5173L485.462 20.9137L485.893 21.1485C487.545 22.0582 489.238 23.0266 490.92 24.0244L491.34 24.2689L485.208 34.6768ZM481.002 31.126C482.274 31.8303 483.565 32.5737 484.866 33.3367L490.02 24.621C488.631 23.8091 487.242 23.007 485.873 22.2538L481.002 31.126ZM470.947 27.1057L470.507 26.9002C468.874 26.1373 467.211 25.4036 465.617 24.7189L465.167 24.5233L469.813 13.3914L470.263 13.5871C472.014 14.3305 473.794 15.113 475.535 15.9249L475.985 16.1304L470.947 27.1057ZM466.419 24.0048C467.759 24.5819 469.118 25.1884 470.468 25.8047L474.723 16.6195C473.275 15.9543 471.789 15.3087 470.37 14.6631L466.419 24.0048ZM456.002 21.0213L455.543 20.8648C453.86 20.2779 452.139 19.7203 450.427 19.1921L449.958 19.0454L453.518 7.50271L453.987 7.64946C455.787 8.19725 457.636 8.80371 459.484 9.43954L459.944 9.59605L456.002 21.0213ZM451.229 18.39C452.638 18.8302 454.056 19.2899 455.445 19.7692L458.751 10.1927C457.225 9.67429 455.699 9.21456 454.212 8.71568L451.229 18.39ZM440.558 16.4336L440.079 16.3162C438.309 15.8956 436.538 15.5141 434.817 15.1717L434.338 15.0739L436.714 3.22802L437.194 3.32584C439.15 3.70734 441.018 4.12797 442.847 4.55837L443.326 4.66596L440.558 16.4336ZM435.492 14.3109C436.91 14.5946 438.367 14.9174 439.825 15.2891L442.153 5.43874C440.627 5.08659 439.062 4.74422 437.477 4.46055L435.492 14.3109ZM370.048 15.5532L367.583 3.71711L368.063 3.61929C369.921 3.23779 371.838 2.8661 373.765 2.53351L374.244 2.44548L376.308 14.35L375.829 14.4381C374.088 14.7316 372.308 15.0739 370.527 15.4163L370.048 15.5532ZM368.738 4.4801L370.811 14.3892C372.269 14.0859 373.745 13.812 375.183 13.5577L373.442 3.58018C371.838 3.86386 370.263 4.16708 368.718 4.4801H368.738ZM424.645 13.5088L424.166 13.4403C422.386 13.2153 420.586 13.0099 418.806 12.8339L418.317 12.785L419.49 0.762988H419.979C421.867 0.948844 423.804 1.16403 425.731 1.41836L426.22 1.47708L424.645 13.5088ZM419.383 11.9046C420.86 12.0513 422.317 12.2274 423.804 12.4132L425.114 2.377C423.53 2.17158 421.936 1.98572 420.371 1.82921L419.383 11.9046ZM386.02 13.0002L384.719 0.987982L385.199 0.929263C387.155 0.723843 389.111 0.557562 390.979 0.420615H391.468L392.319 12.4719H391.84C390.04 12.5991 388.231 12.7654 386.461 12.9512L386.02 13.0002ZM385.835 1.85856L386.891 11.9241C388.358 11.7774 389.825 11.6503 391.331 11.5329L390.588 1.43794C389.023 1.55532 387.429 1.69226 385.815 1.85856H385.835ZM408.546 12.1589H408.057C406.237 12.1002 404.418 12.0709 402.658 12.0807H402.169V0H402.658C404.536 0 406.492 7.16419e-06 408.448 0.0684805H408.937L408.546 12.1589ZM403.225 11.0927C404.666 11.0927 406.123 11.1122 407.597 11.1514L407.89 1.03688C406.276 0.98797 404.643 0.978191 403.107 0.978191V11.0927H403.225Z" fill="#7B7B7B" fill-opacity="0.7"/>
</g>
<g style="mix-blend-mode:luminosity" opacity="0.6">
<path d="M401.112 288.733H400.623C398.227 288.733 395.791 288.586 393.395 288.41H392.906L393.151 285.172C391.556 285.035 389.923 284.869 388.26 284.673L387.849 287.891L387.36 287.833C384.974 287.529 382.577 287.138 380.22 286.688L379.741 286.6L380.347 283.411C378.763 283.098 377.159 282.756 375.584 282.374L374.811 285.514L374.332 285.397C372.004 284.82 369.657 284.164 367.368 283.441L366.909 283.294L367.887 280.203C366.155 279.655 364.444 279.068 362.81 278.462L362.605 278.383L360.091 271.966L361.148 272.397C386.438 282.804 414.735 283.224 440.323 273.571C465.911 263.919 486.882 244.913 499 220.394C511.118 195.875 513.479 167.67 505.607 141.478C497.735 115.285 480.216 93.0561 456.589 79.2823L456.169 79.0476L458.379 75.0761L460.247 71.8677L460.677 72.1122C462.741 73.3154 464.805 74.6066 466.81 75.9467L467.221 76.2206L465.431 78.8911C466.761 79.791 468.101 80.7399 469.422 81.7083L471.378 79.1454L471.769 79.4389C473.725 80.867 475.593 82.3734 477.432 83.9483L477.804 84.2613L475.73 86.7068C476.963 87.7633 478.185 88.8491 479.369 89.9642L481.569 87.6263L481.922 87.9687C482.772 88.7708 483.614 89.5827 484.455 90.424C485.296 91.2652 486.186 92.1945 487.027 93.0846L487.369 93.4466L485.032 95.6377C486.147 96.8311 487.233 98.0538 488.279 99.2766L490.724 97.2126L491.047 97.5843C492.592 99.4135 494.108 101.321 495.546 103.248L495.84 103.639L493.267 105.596C494.245 106.926 495.223 108.266 496.084 109.587L498.754 107.806L499.018 108.217C500.349 110.174 501.64 112.277 502.853 114.36L503.097 114.781L500.309 116.395C501.121 117.803 501.904 119.241 502.647 120.689L505.513 119.222L505.738 119.652C506.833 121.804 507.88 124.005 508.838 126.216L509.034 126.656L506.1 127.947C506.726 129.415 507.342 130.882 507.929 132.486L510.951 131.351L511.127 131.811C511.968 134.061 512.751 136.37 513.455 138.659L513.592 139.128L510.491 140.106C510.971 141.691 511.411 143.276 511.802 144.821L514.942 144.048L515.059 144.518C515.636 146.846 516.154 149.223 516.585 151.6L516.673 152.079L513.484 152.666C513.768 154.261 514.012 155.875 514.237 157.498L517.455 157.078L517.524 157.557C517.827 159.934 518.072 162.36 518.228 164.766V165.246L514.981 165.471C515.079 167.065 515.147 168.709 515.186 170.362L518.433 170.313V170.802C518.433 173.208 518.433 175.644 518.326 178.031V178.52L515.088 178.373C515.01 179.977 514.893 181.611 514.736 183.264L517.964 183.577V184.066C517.719 186.463 517.416 188.879 517.035 191.236L516.956 191.725L513.748 191.207C513.484 192.821 513.181 194.435 512.849 196L516.018 196.685L515.92 197.164C515.421 199.492 514.834 201.859 514.179 204.178L514.052 204.657L510.931 203.777C510.491 205.322 510.012 206.887 509.494 208.443L512.565 209.48L512.408 209.939C511.636 212.218 510.785 214.498 509.875 216.708L509.689 217.158L506.706 215.945C506.1 217.422 505.444 218.88 504.75 220.406L507.684 221.775L507.479 222.216C506.452 224.397 505.347 226.559 504.183 228.672L503.948 229.092L501.112 227.42C500.309 228.857 499.488 230.276 498.657 231.636L501.376 233.328L501.121 233.748C499.86 235.783 498.51 237.808 497.111 239.774L496.828 240.175L494.216 238.317C493.238 239.627 492.26 240.938 491.282 242.229L493.795 244.186L493.492 244.567C492.006 246.445 490.441 248.304 488.827 250.094L488.504 250.466L486.117 248.323C485.032 249.527 483.907 250.71 482.763 251.874L485.032 254.124L484.494 254.672C482.782 256.384 481.002 258.047 479.222 259.631L478.85 259.954L476.659 257.587C475.437 258.653 474.175 259.7 472.913 260.727L474.869 263.231L474.488 263.534C472.6 265.041 470.654 266.469 468.688 267.868L468.287 268.142L466.448 265.52C465.108 266.449 463.739 267.349 462.37 268.21L464.071 270.929L463.651 271.194C461.616 272.465 459.514 273.688 457.401 274.832L456.971 275.057L455.435 272.23C453.997 272.993 452.501 273.737 451.082 274.431L452.462 277.366L452.012 277.571C449.84 278.608 447.601 279.586 445.37 280.506L444.921 280.682L443.718 277.689C442.221 278.276 440.685 278.843 439.13 279.371L440.167 282.443L439.707 282.599C437.419 283.372 435.091 284.086 432.773 284.712L432.303 284.839L431.452 281.719C429.897 282.13 428.303 282.521 426.699 282.873L427.393 286.043L426.914 286.14C424.557 286.649 422.161 287.119 419.794 287.451L419.305 287.529L418.815 284.321C417.192 284.556 415.558 284.761 413.925 284.927L414.248 288.155L413.769 288.204C411.372 288.449 408.947 288.615 406.541 288.703H406.051L405.934 285.446C404.32 285.505 402.677 285.524 401.044 285.505L401.112 288.733ZM393.962 287.461C396.016 287.608 398.09 287.696 400.144 287.735L400.193 284.487H400.682C402.638 284.487 404.594 284.487 406.492 284.419H406.981L407.108 287.666C409.162 287.578 411.235 287.441 413.289 287.246L412.967 284.008H413.456C415.343 283.812 417.28 283.568 419.226 283.274L419.706 283.206L420.195 286.414C422.229 286.091 424.273 285.72 426.298 285.289L425.603 282.13L426.083 282.022C428.039 281.611 429.897 281.152 431.736 280.653L432.215 280.516L433.056 283.636C435.013 283.088 437.037 282.482 438.993 281.827L437.957 278.765L438.416 278.608C440.275 277.982 442.113 277.307 443.884 276.593L444.334 276.417L445.527 279.41C447.483 278.638 449.351 277.806 451.219 276.926L449.84 273.991L450.29 273.776C452.012 272.964 453.762 272.074 455.474 271.154L455.904 270.92L457.43 273.756C459.24 272.778 461.039 271.722 462.79 270.636L461.088 267.917L461.509 267.662C463.142 266.684 464.776 265.569 466.399 264.454L466.8 264.18L468.639 266.802C470.312 265.618 471.984 264.376 473.598 263.094L471.642 260.59L472.023 260.287C473.539 259.074 475.036 257.822 476.483 256.55L476.845 256.217L478.968 258.624C480.562 257.196 482.146 255.689 483.672 254.183L481.413 251.933L481.755 251.581C483.125 250.202 484.464 248.783 485.746 247.355L486.078 246.993L488.455 249.126C489.824 247.59 491.174 245.995 492.455 244.391L489.942 242.435L490.245 242.053C491.448 240.527 492.622 238.962 493.727 237.397L494.011 236.996L496.632 238.855C497.815 237.172 498.97 235.441 500.065 233.7L497.258 231.949L497.512 231.528C498.49 229.924 499.468 228.231 500.446 226.51L500.681 226.079L503.498 227.635C504.476 225.825 505.454 223.967 506.315 222.108L503.381 220.738L503.586 220.289C504.417 218.518 505.21 216.738 505.924 214.987L506.11 214.527L509.044 215.75C509.807 213.793 510.54 211.896 511.205 209.949L508.144 208.912L508.3 208.452C508.917 206.604 509.494 204.735 510.002 202.906L510.139 202.437L513.259 203.307C513.807 201.351 514.306 199.297 514.746 197.301L511.577 196.616L511.675 196.137C512.076 194.278 512.438 192.361 512.741 190.434L512.819 189.945L516.027 190.464C516.34 188.439 516.614 186.375 516.82 184.32L513.592 184.007V183.518C513.778 181.562 513.915 179.606 514.003 177.727V177.238L517.24 177.385C517.328 175.331 517.358 173.247 517.338 171.183L514.081 171.242V170.753C514.081 168.797 513.964 166.84 513.836 164.943V164.453L517.074 164.238C516.927 162.174 516.722 160.1 516.467 158.066L513.24 158.486L513.181 157.997C512.927 156.041 512.633 154.143 512.281 152.255L512.193 151.766L515.392 151.189C515.01 149.155 514.57 147.12 514.081 145.124L510.941 145.897L510.824 145.428C510.364 143.589 509.846 141.701 509.269 139.813L509.132 139.343L512.223 138.365C511.616 136.409 510.951 134.452 510.266 132.496L507.244 133.631L507.068 133.171C506.374 131.312 505.64 129.493 504.897 127.771L504.701 127.321L507.635 126.04C506.804 124.142 505.914 122.264 504.985 120.425L502.119 121.892L501.894 121.452C501.014 119.731 500.075 118.009 499.116 116.346L498.872 115.925L501.649 114.311C500.603 112.531 499.507 110.77 498.373 109.049L495.703 110.829L495.429 110.418C494.382 108.853 493.258 107.249 492.084 105.674L491.79 105.273L494.363 103.316C493.121 101.663 491.829 100.04 490.45 98.4255L488.015 100.49L487.692 100.118C486.46 98.6603 485.159 97.1833 483.829 95.7747L483.496 95.4225L485.824 93.2314C485.1 92.4684 484.347 91.6956 483.604 90.9522C482.86 90.2087 482.176 89.5338 481.452 88.8491L479.261 91.1771L478.899 90.8446C477.491 89.5142 476.033 88.2132 474.566 86.9318L474.195 86.6188L476.268 84.1831C474.684 82.8528 473.06 81.5518 471.378 80.2703L469.422 82.8332L469.03 82.5397C467.465 81.3757 465.871 80.241 464.287 79.1845L463.876 78.9106L465.9 76.4163C464.179 75.2718 462.409 74.1664 460.638 73.1296L459.269 75.4772L457.528 78.6074C481.184 92.5407 498.707 114.893 506.591 141.193C514.474 167.493 512.138 195.801 500.049 220.451C487.96 245.102 467.009 264.279 441.389 274.144C415.769 284.01 387.369 283.836 361.871 273.659L363.397 277.571C365.099 278.197 366.879 278.804 368.679 279.371L369.148 279.518L368.17 282.599C370.126 283.206 372.083 283.773 374.137 284.272L374.909 281.132L375.379 281.249C377.257 281.709 379.164 282.12 381.052 282.482L381.531 282.58L380.924 285.759C382.949 286.14 384.993 286.473 387.038 286.737L387.448 283.519L387.937 283.578C389.894 283.832 391.85 284.027 393.718 284.174H394.207L393.962 287.461Z" fill="#7B7B7B" fill-opacity="0.7"/>
</g>
<g style="mix-blend-mode:luminosity" opacity="0.6">
<path d="M594.03 218.802C574.81 218.802 560.354 218.646 559.875 218.166L559.777 217.941C559.063 216.484 538.387 196.196 524.664 182.903L525.339 182.198C540.489 196.871 558.359 214.371 560.55 217.413C564.032 218.235 645.761 217.628 677.147 217.325V218.303C656.754 218.489 620.751 218.802 594.03 218.802Z" fill="#7B7B7B" fill-opacity="0.7"/>
</g>
</svg>
