<svg  fill="url(#paint0_linear)" aria-hidden="true" style="position: absolute; width: 0; height: 0; overflow: hidden;" version="1.1" xmlns="http://www.w3.org/2000/svg" xmlns:xlink="http://www.w3.org/1999/xlink">
<defs>
<symbol id="icon-icon-1" viewBox="0 0 30 32">
<path d="M6.729 29.95c0 0.366-0.293 0.663-0.655 0.663-0.362-0.002-0.655-0.296-0.655-0.659 0-0.001 0-0.003 0-0.004v0c0-0.366 0.293-0.663 0.655-0.663s0.655 0.297 0.655 0.663zM22.27 1.326c0.362 0 0.655-0.297 0.655-0.663s-0.293-0.663-0.655-0.663c-0.362 0-0.655 0.297-0.655 0.663s0.293 0.663 0.655 0.663zM29.212 8.786c-0.362 0-0.655 0.297-0.655 0.663s0.293 0.663 0.655 0.663c0.362 0 0.655-0.297 0.655-0.663s-0.293-0.663-0.655-0.663zM2.623 26.959c-0.104-0.106-0.249-0.172-0.409-0.172s-0.305 0.066-0.409 0.172l-0 0-0.409 0.414-0.409-0.414c-0.104-0.106-0.249-0.171-0.409-0.171s-0.305 0.066-0.409 0.171l-0 0c-0.105 0.107-0.169 0.253-0.169 0.414s0.065 0.308 0.169 0.414l-0-0 0.409 0.414-0.409 0.414c-0.105 0.107-0.169 0.253-0.169 0.414s0.065 0.308 0.169 0.414l-0-0c0.104 0.106 0.249 0.171 0.409 0.171s0.305-0.066 0.409-0.171l0-0 0.409-0.414 0.409 0.414c0.104 0.106 0.249 0.172 0.409 0.172s0.305-0.066 0.409-0.172l0-0c0.105-0.107 0.169-0.253 0.169-0.414s-0.065-0.308-0.169-0.414l0 0-0.409-0.414 0.409-0.414c0.105-0.107 0.169-0.253 0.169-0.414s-0.065-0.308-0.169-0.414l0 0zM27.108 2.539l-0.98 19.352c-0.036 0.786-0.424 1.474-1.008 1.915l-0.006 0.005-10.853 8.076c-0.094 0.071-0.213 0.114-0.343 0.114s-0.247-0.042-0.343-0.114l0.001 0.001-10.918-8.076c-0.594-0.446-0.984-1.136-1.021-1.919l-0-0.006-0.98-19.348c-0.010-0.196 0.078-0.384 0.233-0.5 0.156-0.117 0.359-0.147 0.54-0.081 1.34 0.487 3.091 0.756 4.932 0.756 3.629 0 6.337-1.033 6.857-2.030 0.101-0.192 0.297-0.313 0.512-0.313h0.301c0.215 0 0.412 0.121 0.512 0.313 0.521 0.998 3.228 2.030 6.857 2.030 1.841 0 3.593-0.268 4.932-0.756 0.181-0.066 0.385-0.036 0.54 0.081 0.156 0.117 0.243 0.305 0.234 0.501zM21.508 20.948c0.2-0.149 0.322-0.382 0.335-0.64l0.676-13.331c-0.933 0.237-2.016 0.364-3.132 0.364-2.087 0-4.435-0.469-5.504-1.501-1.068 1.033-3.415 1.501-5.503 1.501-1.116 0-2.199-0.127-3.132-0.364l0.676 13.329c0.013 0.259 0.135 0.492 0.337 0.641l7.648 5.657 7.601-5.655zM3.341 22.866l9.963 7.37v-2.627l-7.727-5.716c-0.472-0.354-0.781-0.901-0.811-1.522l-0-0.005-0.702-13.881-2.159-2.186 0.889 17.528c0.021 0.418 0.22 0.796 0.547 1.038zM25.86 4.299l-2.159 2.187-0.703 13.883c-0.029 0.624-0.336 1.17-0.8 1.521l-0.005 0.004-7.731 5.753v2.637l9.967-7.416c0.317-0.241 0.525-0.613 0.543-1.033l0-0.003 0.889-17.531z"></path>
</symbol>
<symbol id="icon-icon-2" viewBox="0 0 26 32">
<path d="M1.061 2.393c0-0.313 0.25-0.565 0.558-0.565s0.558 0.253 0.558 0.565c0 0.312-0.25 0.565-0.558 0.565-0.309-0.002-0.558-0.253-0.558-0.562 0-0.001 0-0.002 0-0.003v0zM15.203 28.273c-0.309 0-0.559 0.253-0.559 0.565s0.25 0.565 0.559 0.565c0.308 0 0.558-0.253 0.558-0.565s-0.251-0.565-0.558-0.565zM22.589 30.086c0.322 0.652 0.060 1.448-0.584 1.774-0.17 0.088-0.372 0.139-0.585 0.139-0.51 0-0.952-0.295-1.164-0.723l-0.003-0.008-3.535-7.157c-1.515 0.804-3.312 1.277-5.219 1.277-0.002 0-0.003 0-0.005 0h0c-1.881 0-3.655-0.462-5.223-1.276l-3.535 7.157c-0.215 0.436-0.657 0.731-1.168 0.731-0.213 0-0.414-0.051-0.591-0.142l0.007 0.003c-0.645-0.326-0.907-1.122-0.585-1.775l3.68-7.452c-2.503-2.153-4.079-5.325-4.079-8.864 0-0.006 0-0.012 0-0.018v0.001c0-6.416 5.156-11.636 11.494-11.636 2.981 0 5.701 1.156 7.746 3.047l1.656-1.677-0.015-1.364c-0-0.002-0-0.004-0-0.007 0-0.146 0.058-0.278 0.153-0.374l-0 0 1.567-1.587c0.094-0.096 0.225-0.155 0.369-0.155 0.071 0 0.139 0.014 0.2 0.040l-0.003-0.001c0.195 0.080 0.323 0.271 0.325 0.484l0.012 1.052 1.039 0.012c0.216 0.004 0.399 0.137 0.476 0.326l0.001 0.004c0.024 0.059 0.039 0.128 0.039 0.2 0 0.146-0.058 0.278-0.153 0.374l0-0-1.567 1.587c-0.094 0.095-0.225 0.154-0.369 0.155h-0.006l-1.312-0.014-1.674 1.694c1.867 2.061 3.010 4.808 3.010 7.823 0 0.007 0 0.013-0 0.020v-0.001c0 3.557-1.587 6.745-4.079 8.882l3.681 7.452zM11.494 24.33c5.762 0 10.449-4.746 10.449-10.578 0-2.726-1.033-5.207-2.712-7.085l-0.739 0.748c1.493 1.676 2.405 3.897 2.405 6.332 0 0.002 0 0.004 0 0.006v-0c0 5.25-4.219 9.52-9.404 9.52s-9.404-4.27-9.404-9.52c0-5.25 4.219-9.521 9.404-9.521 2.405 0 4.595 0.926 6.26 2.436l0.739-0.748c-1.855-1.7-4.306-2.746-6.999-2.746-5.761 0-10.448 4.746-10.448 10.579s4.687 10.578 10.449 10.578zM13.027 13.439l-0.845 0.285c-0.049 0.017-0.106 0.027-0.165 0.027-0.145 0-0.276-0.059-0.37-0.155l-0-0c-0.094-0.096-0.153-0.228-0.153-0.374 0-0.060 0.010-0.117 0.028-0.171l-0.001 0.004 0.282-0.857c-0.093-0.021-0.199-0.033-0.309-0.034h-0.001c-0.864 0-1.567 0.712-1.567 1.587s0.703 1.587 1.568 1.587c0.864 0 1.567-0.711 1.567-1.587 0-0.107-0.014-0.21-0.034-0.313zM13.409 11.064l0.643-0.651c-0.696-0.556-1.588-0.892-2.558-0.893h-0c-2.305 0-4.18 1.899-4.18 4.231s1.875 4.231 4.18 4.231 4.18-1.899 4.18-4.231c0-0.976-0.332-1.874-0.882-2.59l-0.643 0.651 0.327 0.332c0.094 0.096 0.153 0.228 0.153 0.374 0 0.043-0.005 0.085-0.015 0.125l0.001-0.004c-0.042 0.179-0.171 0.32-0.339 0.379l-0.004 0.001-0.247 0.084c0.053 0.211 0.082 0.427 0.082 0.649 0 1.458-1.172 2.645-2.612 2.645s-2.612-1.187-2.612-2.645c0-1.458 1.172-2.645 2.612-2.645 0.219 0 0.433 0.030 0.641 0.084l0.082-0.251c0.069-0.212 0.264-0.362 0.495-0.362 0.145 0 0.276 0.059 0.37 0.155l0 0 0.327 0.331zM15.538 8.909c-1.078-0.935-2.495-1.504-4.044-1.505h-0c-3.457 0-6.269 2.847-6.269 6.347 0 3.5 2.812 6.347 6.269 6.347s6.269-2.847 6.269-6.347c0-1.56-0.561-2.988-1.486-4.094l-0.74 0.749c0.736 0.903 1.182 2.068 1.182 3.337 0 0.003 0 0.005 0 0.008v-0c0 2.917-2.344 5.289-5.225 5.289s-5.225-2.372-5.225-5.289c0-2.916 2.344-5.289 5.225-5.289 1.253 0 2.403 0.449 3.304 1.196l0.74-0.749zM17.015 7.414c-1.474-1.318-3.404-2.125-5.521-2.125-4.609 0-8.359 3.797-8.359 8.463s3.749 8.462 8.359 8.462c4.609 0 8.359-3.796 8.359-8.462 0-2.143-0.797-4.097-2.1-5.589l-0.739 0.747c1.114 1.29 1.793 2.984 1.793 4.836 0 0.002 0 0.004 0 0.006v-0c0 4.083-3.281 7.405-7.314 7.405s-7.314-3.321-7.314-7.404c0-4.083 3.281-7.405 7.314-7.405 1.829 0 3.499 0.688 4.782 1.815l0.739-0.748zM25.033 23.537l0.414-0.42c0.095-0.096 0.153-0.228 0.153-0.374s-0.058-0.278-0.153-0.374l0 0c-0.094-0.096-0.225-0.155-0.369-0.155s-0.275 0.059-0.369 0.155l-0 0-0.414 0.419-0.414-0.419c-0.094-0.096-0.225-0.155-0.369-0.155s-0.275 0.059-0.369 0.155l-0 0c-0.095 0.096-0.153 0.228-0.153 0.374s0.058 0.278 0.153 0.374l-0-0 0.414 0.42-0.414 0.419c-0.095 0.096-0.153 0.228-0.153 0.374s0.058 0.278 0.153 0.374l-0-0c0.094 0.096 0.225 0.155 0.369 0.155s0.275-0.059 0.369-0.155l0-0 0.414-0.419 0.414 0.419c0.094 0.096 0.225 0.155 0.369 0.155s0.275-0.059 0.369-0.155l0-0c0.095-0.096 0.153-0.228 0.153-0.374s-0.058-0.278-0.153-0.374l0 0-0.414-0.419z"></path>
</symbol>
<symbol id="icon-icon-3" viewBox="0 0 30 32">
<path d="M29.837 18.526h-12.218c0.531-0.85 0.959-1.753 0.959-2.464 0-1.028-0.438-1.951-1.13-2.588h0.527c0.245 0 0.461-0.158 0.536-0.39 0.084-0.246 0.182-0.592 0.265-0.943l0.018-0.089 0.283 0.099 0.836 1.1c0.104 0.136 0.266 0.222 0.448 0.222 0.287 0 0.524-0.215 0.559-0.492l0-0.003 0.469-3.952c0.002-0.020 0.004-0.042 0.004-0.066 0-0.236-0.146-0.438-0.352-0.521l-0.004-0.001-1.963-0.775c-0.287-2.967-1.521-5.652-3.487-7.509-0.101-0.095-0.237-0.154-0.387-0.154s-0.286 0.059-0.387 0.154l0-0c-1.966 1.857-3.2 4.542-3.487 7.509l-1.963 0.775c-0.21 0.084-0.356 0.286-0.356 0.522 0 0.023 0.001 0.046 0.004 0.068l-0-0.003 0.469 3.952c0.034 0.281 0.271 0.496 0.558 0.496 0 0 0.001 0 0.001 0h-0c0.173 0 0.341-0.080 0.449-0.223l0.836-1.1 0.283-0.099c0.081 0.348 0.174 0.692 0.283 1.032 0.075 0.233 0.291 0.39 0.537 0.39h0.526c-0.696 0.644-1.131 1.561-1.131 2.581 0 0.003 0 0.006 0 0.008v-0c0 0.711 0.428 1.614 0.959 2.464h-12.219c-0.31 0-0.563 0.251-0.563 0.561v12.35c0 0.311 0.252 0.562 0.563 0.562h29.274c0.311 0 0.563-0.251 0.563-0.562v-12.35c0-0.31-0.252-0.562-0.563-0.562zM15.2 14.036c0.305 0 0.563 0.342 0.563 0.748 0 0.237-0.247 0.83-0.563 1.451-0.316-0.621-0.563-1.214-0.563-1.451 0-0.406 0.258-0.749 0.563-0.749zM20.22 9.323l-0.254 2.14-0.094-0.124c-0.066-0.086-0.155-0.153-0.257-0.19l-0.004-0.001-0.611-0.214c0.091-0.635 0.142-1.278 0.142-1.93 0-0.037-0.005-0.073-0.005-0.109l1.084 0.428zM10.79 11.148c-0.107 0.038-0.195 0.104-0.26 0.19l-0.001 0.001-0.095 0.124-0.254-2.14 1.084-0.428c0 0.037-0.005 0.073-0.005 0.109 0 0.651 0.051 1.295 0.142 1.93l-0.61 0.214zM12.385 9.004c0-2.977 1.020-5.73 2.815-7.645 1.795 1.915 2.815 4.669 2.815 7.646 0 1.146-0.155 2.269-0.459 3.347h-1.793v-1.684c0-0.31-0.252-0.561-0.563-0.561s-0.563 0.251-0.563 0.561v1.684h-1.793c-0.291-0.996-0.459-2.141-0.459-3.325 0-0.008 0-0.016 0-0.023v0.001zM29.275 30.878h-28.149v-11.229h12.428c0.422 0.561 0.824 1.050 1.247 1.52l-0.018-0.020c0.103 0.114 0.252 0.185 0.417 0.185s0.314-0.071 0.417-0.184l0-0c0.405-0.45 0.808-0.939 1.189-1.444l0.040-0.056h12.428v11.228zM8.444 20.772c0 0.31-0.252 0.561-0.563 0.561h-2.299c-0.25 1.415-1.352 2.514-2.748 2.758l-0.020 0.003v2.292c0 0.31-0.252 0.561-0.563 0.561s-0.563-0.251-0.563-0.561v-2.807c0-0.31 0.252-0.562 0.563-0.562 0 0 0.001 0 0.001 0 1.241 0 2.248-1.005 2.251-2.245v-0c0-0.31 0.252-0.562 0.563-0.562h2.815c0.311 0 0.563 0.251 0.563 0.562zM21.956 29.754c0-0.31 0.252-0.561 0.563-0.561h2.299c0.25-1.415 1.352-2.514 2.748-2.758l0.020-0.003v-2.292c0-0.31 0.252-0.561 0.563-0.561s0.563 0.251 0.563 0.561v2.807c0 0.31-0.252 0.562-0.563 0.562-0 0-0.001 0-0.001 0-1.241 0-2.248 1.005-2.251 2.245v0c0 0.31-0.252 0.562-0.563 0.562h-2.815c-0.311 0-0.563-0.251-0.563-0.562zM15.2 8.983c0 0 0.001 0 0.001 0 1.241 0 2.248-1.005 2.251-2.245v-0c-0.003-1.241-1.010-2.246-2.251-2.246-0 0-0 0-0.001 0h0c-0 0-0 0-0.001 0-1.241 0-2.248 1.005-2.251 2.245v0c0.003 1.241 1.010 2.245 2.251 2.245 0 0 0.001 0 0.001 0h-0zM15.2 5.614c0 0 0 0 0.001 0 0.621 0 1.124 0.502 1.125 1.123v0c0 0.622-0.504 1.126-1.126 1.126s-1.126-0.504-1.126-1.126v0c0.002-0.62 0.505-1.123 1.125-1.123 0 0 0 0 0.001 0h-0zM15.763 23.018v-0.562c0-0.31-0.252-0.561-0.563-0.561s-0.563 0.251-0.563 0.562v0.561h-1.125c-0.311 0-0.563 0.251-0.563 0.562v1.684c0 0.31 0.252 0.561 0.563 0.561h1.126v0.562h-1.125c-0.009-0-0.019-0.001-0.030-0.001-0.31 0-0.562 0.252-0.562 0.562s0.252 0.562 0.562 0.562c0.011 0 0.021-0 0.031-0.001l-0.001 0h1.125v0.562c0 0.31 0.252 0.561 0.563 0.561s0.563-0.251 0.563-0.561v-0.562h1.125c0.311 0 0.563-0.251 0.563-0.562v-1.683c0-0.31-0.252-0.562-0.563-0.562h-1.126v-0.562h1.125c0.009 0 0.019 0.001 0.030 0.001 0.31 0 0.562-0.252 0.562-0.562s-0.252-0.562-0.562-0.562c-0.011 0-0.021 0-0.031 0.001l0.001-0h-1.125zM16.326 25.825v0.562h-0.563v-0.562h0.563zM14.637 24.702h-0.562v-0.562h0.563v0.562z"></path>
</symbol>
<symbol id="icon-icon-4" viewBox="0 0 30 32">
<path d="M6.729 29.95c0 0.366-0.293 0.663-0.655 0.663-0.362-0.002-0.655-0.296-0.655-0.659 0-0.001 0-0.003 0-0.004v0c0-0.366 0.293-0.663 0.655-0.663s0.655 0.297 0.655 0.663zM22.27 1.326c0.362 0 0.655-0.297 0.655-0.663s-0.293-0.663-0.655-0.663c-0.362 0-0.655 0.297-0.655 0.663s0.293 0.663 0.655 0.663zM29.212 8.786c-0.362 0-0.655 0.297-0.655 0.663s0.293 0.663 0.655 0.663c0.362 0 0.655-0.297 0.655-0.663s-0.293-0.663-0.655-0.663zM2.623 26.959c-0.104-0.106-0.249-0.172-0.409-0.172s-0.305 0.066-0.409 0.172l-0 0-0.409 0.414-0.409-0.414c-0.104-0.106-0.249-0.171-0.409-0.171s-0.305 0.066-0.409 0.171l-0 0c-0.105 0.107-0.169 0.253-0.169 0.414s0.065 0.308 0.169 0.414l-0-0 0.409 0.414-0.409 0.414c-0.105 0.107-0.169 0.253-0.169 0.414s0.065 0.308 0.169 0.414l-0-0c0.104 0.106 0.249 0.171 0.409 0.171s0.305-0.066 0.409-0.171l0-0 0.409-0.414 0.409 0.414c0.104 0.106 0.249 0.172 0.409 0.172s0.305-0.066 0.409-0.172l0-0c0.105-0.107 0.169-0.253 0.169-0.414s-0.065-0.308-0.169-0.414l0 0-0.409-0.414 0.409-0.414c0.105-0.107 0.169-0.253 0.169-0.414s-0.065-0.308-0.169-0.414l0 0zM27.108 2.539l-0.98 19.352c-0.036 0.786-0.424 1.474-1.008 1.915l-0.006 0.005-10.853 8.076c-0.094 0.071-0.213 0.114-0.343 0.114s-0.247-0.042-0.343-0.114l0.001 0.001-10.918-8.076c-0.594-0.446-0.984-1.136-1.021-1.919l-0-0.006-0.98-19.348c-0.010-0.196 0.078-0.384 0.233-0.5 0.156-0.117 0.359-0.147 0.54-0.081 1.34 0.487 3.091 0.756 4.932 0.756 3.629 0 6.337-1.033 6.857-2.030 0.101-0.192 0.297-0.313 0.512-0.313h0.301c0.215 0 0.412 0.121 0.512 0.313 0.521 0.998 3.228 2.030 6.857 2.030 1.841 0 3.593-0.268 4.932-0.756 0.181-0.066 0.385-0.036 0.54 0.081 0.156 0.117 0.243 0.305 0.234 0.501zM21.508 20.948c0.2-0.149 0.322-0.382 0.335-0.64l0.676-13.331c-0.933 0.237-2.016 0.364-3.132 0.364-2.087 0-4.435-0.469-5.504-1.501-1.068 1.033-3.415 1.501-5.503 1.501-1.116 0-2.199-0.127-3.132-0.364l0.676 13.329c0.013 0.259 0.135 0.492 0.337 0.641l7.648 5.657 7.601-5.655zM3.341 22.866l9.963 7.37v-2.627l-7.727-5.716c-0.472-0.354-0.781-0.901-0.811-1.522l-0-0.005-0.702-13.881-2.159-2.186 0.889 17.528c0.021 0.418 0.22 0.796 0.547 1.038zM25.86 4.299l-2.159 2.187-0.703 13.883c-0.029 0.624-0.336 1.17-0.8 1.521l-0.005 0.004-7.731 5.753v2.637l9.967-7.416c0.317-0.241 0.525-0.613 0.543-1.033l0-0.003 0.889-17.531zM17.871 15.379c0.076 0.153 0.081 0.331 0.016 0.489-0.066 0.157-0.196 0.277-0.356 0.33l-1.913 0.623v6.979c0 0.323-0.259 0.586-0.578 0.586s-0.579-0.262-0.579-0.586v-6.602l-0.401 0.131c-0.053 0.018-0.114 0.028-0.177 0.028s-0.124-0.010-0.181-0.029l0.004 0.001-0.401-0.131v6.602c0 0.323-0.259 0.586-0.579 0.586s-0.578-0.262-0.578-0.586v-6.979l-1.913-0.624c-0.162-0.054-0.29-0.174-0.354-0.326l-0.001-0.004c-0.028-0.067-0.045-0.145-0.045-0.227 0-0.095 0.022-0.185 0.062-0.265l-0.002 0.003 3.47-7.069c0.196-0.398 0.841-0.398 1.036 0l3.471 7.069zM16.536 15.291l-2.075-4.226v2.192c0 0.323-0.259 0.586-0.579 0.586s-0.579-0.262-0.579-0.586v-2.192l-2.075 4.227 2.653 0.865 2.653-0.865z"></path>
</symbol>
</defs>
</svg>
